<svg id="Capa_1" data-name="Capa 1" xmlns="http://www.w3.org/2000/svg" viewBox="0 0 66.44 66.44"><defs><style>.cls-1{fill:#1f3765;}</style></defs><title>Mesa de trabajo 18</title><path class="cls-1" d="M0,33.22A33.22,33.22,0,1,0,33.22,0,33.25,33.25,0,0,0,0,33.22m62.79,0A29.57,29.57,0,1,1,33.22,3.65,29.64,29.64,0,0,1,62.79,33.22"/><path class="cls-1" d="M32,20.22,21,39.35a1.33,1.33,0,0,0,0,1.46,1.51,1.51,0,0,0,1.24.73H44.24a1.4,1.4,0,0,0,1.24-.73,1.32,1.32,0,0,0,0-1.46l-11-19.13a1.5,1.5,0,0,0-1.24-.73,1.41,1.41,0,0,0-1.24.73"/></svg>