<svg id="Capa_1" data-name="Capa 1" xmlns="http://www.w3.org/2000/svg" viewBox="0 0 201.63 305.08"><defs><style>.cls-1{fill:#3663ac;}.cls-2{fill:#fafafa;}.cls-3{fill:#1b3861;}.cls-4{fill:#7bbe78;}.cls-5{fill:#fff;}.cls-6{fill:#00a54e;}</style></defs><title>Artboard 1</title><rect class="cls-1" x="24.83" y="10.6" width="81.96" height="187.6"/><path class="cls-2" d="M40.19,136.47H35.25V103.26h7.9a36.87,36.87,0,0,1-4.6,16.43A72.29,72.29,0,0,1,40.19,136.47Z"/><path class="cls-2" d="M47.27,136.47h4.94V103.26h-7.9a36.94,36.94,0,0,0,4.59,16.43A71.91,71.91,0,0,0,47.27,136.47Z"/><path class="cls-2" d="M82.94,54.23H78V21h7.9a36.87,36.87,0,0,1-4.6,16.43A72.26,72.26,0,0,1,82.94,54.23Z"/><path class="cls-2" d="M90,54.23H95V21h-7.9a36.94,36.94,0,0,0,4.59,16.43A71.88,71.88,0,0,0,90,54.23Z"/><polygon class="cls-3" points="65.81 0 14.58 0 24.83 10.95 65.81 10.95 106.79 10.95 117.04 0 65.81 0"/><rect class="cls-1" x="17.86" y="3.01" width="95.89" height="1"/><rect class="cls-1" x="21.65" y="6.89" width="88.32" height="1"/><path class="cls-4" d="M52.71,54.38h-18V20.52h18Zm-17-1h16V21.52h-16Z"/><rect class="cls-4" x="35.25" y="22.73" width="16.96" height="1"/><rect class="cls-4" x="35.25" y="25.12" width="16.96" height="1"/><rect class="cls-4" x="35.25" y="27.51" width="16.96" height="1"/><rect class="cls-4" x="35.25" y="29.9" width="16.96" height="1"/><rect class="cls-4" x="35.25" y="32.29" width="16.96" height="1"/><rect class="cls-4" x="35.25" y="34.68" width="16.96" height="1"/><rect class="cls-4" x="35.25" y="37.07" width="16.96" height="1"/><rect class="cls-4" x="35.25" y="39.46" width="16.96" height="1"/><rect class="cls-4" x="35.25" y="41.85" width="16.96" height="1"/><path class="cls-4" d="M74.08,54.38h-18V20.52h18Zm-17-1h16V21.52h-16Z"/><rect class="cls-4" x="56.62" y="22.73" width="16.96" height="1"/><rect class="cls-4" x="56.62" y="25.12" width="16.96" height="1"/><rect class="cls-4" x="56.62" y="27.51" width="16.96" height="1"/><rect class="cls-4" x="56.62" y="29.9" width="16.96" height="1"/><rect class="cls-4" x="56.62" y="32.29" width="16.96" height="1"/><rect class="cls-4" x="56.62" y="34.68" width="16.96" height="1"/><rect class="cls-4" x="56.62" y="37.07" width="16.96" height="1"/><rect class="cls-4" x="56.62" y="39.46" width="16.96" height="1"/><rect class="cls-4" x="56.62" y="41.85" width="16.96" height="1"/><path class="cls-4" d="M95.46,54.38h-18V20.52h18Zm-17-1h16V21.52h-16Z"/><rect class="cls-4" x="78" y="37.07" width="16.96" height="1"/><path class="cls-4" d="M52.71,95.52h-18V61.66h18Zm-17-1h16V62.66h-16Z"/><rect class="cls-4" x="35.25" y="63.87" width="16.96" height="1"/><rect class="cls-4" x="35.25" y="66.26" width="16.96" height="1"/><rect class="cls-4" x="35.25" y="68.65" width="16.96" height="1"/><rect class="cls-4" x="35.25" y="71.04" width="16.96" height="1"/><rect class="cls-4" x="35.25" y="78.21" width="16.96" height="1"/><path class="cls-4" d="M74.08,95.52h-18V61.66h18Zm-17-1h16V62.66h-16Z"/><rect class="cls-4" x="56.62" y="63.87" width="16.96" height="1"/><rect class="cls-4" x="56.62" y="66.26" width="16.96" height="1"/><rect class="cls-4" x="56.62" y="68.65" width="16.96" height="1"/><rect class="cls-4" x="56.62" y="71.04" width="16.96" height="1"/><rect class="cls-4" x="56.62" y="73.43" width="16.96" height="1"/><rect class="cls-4" x="56.62" y="75.82" width="16.96" height="1"/><rect class="cls-4" x="56.62" y="78.21" width="16.96" height="1"/><rect class="cls-4" x="56.62" y="80.6" width="16.96" height="1"/><rect class="cls-4" x="56.62" y="82.99" width="16.96" height="1"/><path class="cls-4" d="M95.46,95.52h-18V61.66h18Zm-17-1h16V62.66h-16Z"/><rect class="cls-4" x="78" y="63.87" width="16.96" height="1"/><rect class="cls-4" x="78" y="66.26" width="16.96" height="1"/><rect class="cls-4" x="78" y="68.65" width="16.96" height="1"/><rect class="cls-4" x="78" y="71.04" width="16.96" height="1"/><rect class="cls-4" x="78" y="73.43" width="16.96" height="1"/><rect class="cls-4" x="78" y="75.82" width="16.96" height="1"/><rect class="cls-4" x="78" y="78.21" width="16.96" height="1"/><rect class="cls-4" x="78" y="80.6" width="16.96" height="1"/><rect class="cls-4" x="78" y="82.99" width="16.96" height="1"/><rect class="cls-4" x="78" y="85.38" width="16.96" height="1"/><rect class="cls-4" x="78" y="87.77" width="16.96" height="1"/><rect class="cls-4" x="78" y="90.16" width="16.96" height="1"/><rect class="cls-4" x="78" y="92.55" width="16.96" height="1"/><path class="cls-4" d="M52.71,136.65h-18V102.8h18Zm-17-1h16V103.8h-16Z"/><rect class="cls-4" x="35.25" y="119.35" width="16.96" height="1"/><path class="cls-4" d="M74.08,136.65h-18V102.8h18Zm-17-1h16V103.8h-16Z"/><rect class="cls-4" x="56.62" y="119.35" width="16.96" height="1"/><path class="cls-4" d="M95.46,136.65h-18V102.8h18Zm-17-1h16V103.8h-16Z"/><rect class="cls-4" x="78" y="105.01" width="16.96" height="1"/><rect class="cls-4" x="78" y="107.4" width="16.96" height="1"/><rect class="cls-4" x="78" y="109.79" width="16.96" height="1"/><rect class="cls-4" x="78" y="112.18" width="16.96" height="1"/><rect class="cls-4" x="78" y="114.57" width="16.96" height="1"/><rect class="cls-4" x="78" y="116.96" width="16.96" height="1"/><rect class="cls-4" x="78" y="119.35" width="16.96" height="1"/><rect class="cls-4" x="78" y="121.74" width="16.96" height="1"/><rect class="cls-4" x="78" y="124.13" width="16.96" height="1"/><rect class="cls-4" x="78" y="126.52" width="16.96" height="1"/><path class="cls-4" d="M52.71,177.79h-18V143.94h18Zm-17-1h16V144.94h-16Z"/><rect class="cls-4" x="35.25" y="146.15" width="16.96" height="1"/><rect class="cls-4" x="35.25" y="148.54" width="16.96" height="1"/><rect class="cls-4" x="35.25" y="150.93" width="16.96" height="1"/><rect class="cls-4" x="35.25" y="153.32" width="16.96" height="1"/><rect class="cls-4" x="35.25" y="160.37" width="16.96" height="1"/><path class="cls-4" d="M74.08,177.79h-18V143.94h18Zm-17-1h16V144.94h-16Z"/><rect class="cls-4" x="56.62" y="146.15" width="16.96" height="1"/><rect class="cls-4" x="56.62" y="148.54" width="16.96" height="1"/><rect class="cls-4" x="56.62" y="150.93" width="16.96" height="1"/><rect class="cls-4" x="56.62" y="153.32" width="16.96" height="1"/><rect class="cls-4" x="56.62" y="155.71" width="16.96" height="1"/><rect class="cls-4" x="56.62" y="158.1" width="16.96" height="1"/><rect class="cls-4" x="56.62" y="160.49" width="16.96" height="1"/><path class="cls-4" d="M95.46,177.79h-18V143.94h18Zm-17-1h16V144.94h-16Z"/><rect class="cls-4" x="78" y="146.15" width="16.96" height="1"/><rect class="cls-4" x="78" y="148.54" width="16.96" height="1"/><rect class="cls-4" x="78" y="150.93" width="16.96" height="1"/><rect class="cls-4" x="78" y="153.32" width="16.96" height="1"/><rect class="cls-4" x="78" y="155.71" width="16.96" height="1"/><rect class="cls-4" x="78" y="158.1" width="16.96" height="1"/><rect class="cls-4" x="78" y="160.49" width="16.96" height="1"/><rect class="cls-3" x="32.79" y="52.28" width="64.62" height="1.95"/><rect class="cls-3" x="32.79" y="93.4" width="64.62" height="1.95"/><rect class="cls-3" x="32.79" y="134.55" width="64.62" height="1.95"/><rect class="cls-3" x="32.79" y="175.69" width="64.62" height="1.95"/><rect class="cls-4" x="75.04" y="212.94" width="116.8" height="92.13"/><polygon class="cls-3" points="201.63 230.24 65.27 230.24 77.35 193.43 191.85 193.43 201.63 230.24"/><rect class="cls-4" x="75.49" y="198.6" width="117.86" height="1"/><rect class="cls-4" x="73.81" y="203.69" width="120.89" height="1"/><rect class="cls-4" x="72.14" y="208.78" width="123.92" height="1"/><rect class="cls-4" x="70.47" y="213.88" width="126.94" height="1"/><rect class="cls-4" x="68.8" y="218.97" width="129.97" height="1"/><rect class="cls-4" x="67.13" y="224.07" width="132.99" height="1"/><polygon class="cls-4" points="133.45 230.71 118.33 230.71 125.89 217.62 133.45 204.53 141 217.62 148.56 230.71 133.45 230.71"/><path class="cls-3" d="M133.43,236a7.55,7.55,0,1,1,7.55-7.54A7.55,7.55,0,0,1,133.43,236Zm0-14.09a6.55,6.55,0,1,0,6.55,6.55A6.55,6.55,0,0,0,133.43,221.91Z"/><rect class="cls-1" x="125.62" y="275.79" width="15.64" height="29.28"/><polygon class="cls-3" points="143.89 305.08 142.89 305.08 142.89 274.12 123.98 274.12 123.98 305.08 122.98 305.08 122.98 273.12 143.89 273.12 143.89 305.08"/><rect class="cls-3" x="126.39" y="227.96" width="14.09" height="1"/><rect class="cls-3" x="132.93" y="221.41" width="1" height="14.09"/><path class="cls-3" d="M97.63,299.34h-16V281.9a8,8,0,0,1,16,0c0,.14,0,.27,0,.4v17Zm-15-1h14l0-15.87c0-.19,0-.38,0-.57a7,7,0,0,0-14,0,5.44,5.44,0,0,0,0,.57l0,.54h-.07Z"/><rect class="cls-3" x="82.13" y="281.4" width="15" height="1"/><rect class="cls-3" x="89.13" y="274.4" width="1" height="24.44"/><polygon class="cls-3" points="89.63 282.61 83.98 276.96 84.69 276.25 89.63 281.19 94.43 276.39 95.14 277.1 89.63 282.61"/><path class="cls-3" d="M119.58,299.34h-16V282s0-.07,0-.11a8,8,0,0,1,16,0c0,.14,0,.27,0,.4v17Zm-15-1h14l0-15.87c0-.19,0-.38,0-.57a7,7,0,0,0-14,0c0,.19,0,.38,0,.57l0,.54h-.07Z"/><rect class="cls-3" x="104.08" y="281.4" width="15" height="1"/><rect class="cls-3" x="111.08" y="274.4" width="1" height="24.44"/><polygon class="cls-3" points="111.58 282.61 105.93 276.96 106.64 276.25 111.58 281.19 116.39 276.39 117.09 277.1 111.58 282.61"/><path class="cls-3" d="M163.19,299.34h-16V281.9a8,8,0,0,1,16,0c0,.13,0,.27,0,.4l0,.21Zm-15-1h14l0-15.87a5.44,5.44,0,0,0,0-.57,7,7,0,0,0-14,0c0,.19,0,.38,0,.57l0,.54h-.06Z"/><rect class="cls-3" x="147.69" y="281.4" width="15" height="1"/><rect class="cls-3" x="154.69" y="274.4" width="1" height="24.44"/><polygon class="cls-3" points="155.19 282.61 149.53 276.96 150.24 276.25 155.19 281.19 159.99 276.39 160.69 277.1 155.19 282.61"/><path class="cls-3" d="M185.14,299.34h-16V281.9a8,8,0,0,1,16,0c0,.13,0,.27,0,.4v17Zm-15-1h14l0-15.87a5.44,5.44,0,0,0,0-.57,7,7,0,0,0-14,0c0,.19,0,.38,0,.57l.05.54h-.07Z"/><rect class="cls-3" x="169.64" y="281.4" width="15" height="1"/><rect class="cls-3" x="176.64" y="274.4" width="1" height="24.44"/><polygon class="cls-3" points="177.14 282.61 171.49 276.96 172.19 276.25 177.14 281.19 181.94 276.39 182.65 277.1 177.14 282.61"/><path class="cls-3" d="M143.39,274.12a.52.52,0,0,1-.29-.09l-9.67-6.87L123.77,274a.5.5,0,0,1-.7-.12.49.49,0,0,1,.12-.69l9.95-7.08a.51.51,0,0,1,.58,0l10,7.08a.49.49,0,0,1,.12.69A.49.49,0,0,1,143.39,274.12Z"/><path class="cls-3" d="M133.43,274.12a.5.5,0,0,1-.5-.5v-7.07a.5.5,0,0,1,.5-.5.5.5,0,0,1,.5.5v7.07A.5.5,0,0,1,133.43,274.12Z"/><path class="cls-3" d="M119.3,264.8l-.88-.48a4,4,0,0,0,.21-.41l.91.42Z"/><path class="cls-3" d="M81.91,264.8l-.23-.45.9-.44.21.42Z"/><path class="cls-3" d="M119.09,245.68a.48.48,0,0,1-.45-.28c-.07-.14-.14-.28-.22-.42a20.15,20.15,0,0,0-35.62,0c-.08.13-.15.27-.22.41a.5.5,0,0,1-.67.23.51.51,0,0,1-.23-.67c.07-.15.15-.3.23-.44a21.15,21.15,0,0,1,37.39,0l.24.45a.5.5,0,0,1-.24.67A.54.54,0,0,1,119.09,245.68Z"/><path class="cls-3" d="M100.61,245.68a.47.47,0,0,1-.35-.15l-9-9a.5.5,0,1,1,.71-.71l9,9a.5.5,0,0,1-.35.85Z"/><path class="cls-3" d="M100.61,245.68a.41.41,0,0,1-.19,0,.5.5,0,0,1-.31-.46V233.75a.5.5,0,0,1,.5-.5.5.5,0,0,1,.5.5V244l8.18-8.18a.5.5,0,1,1,.71.71l-9,9A.47.47,0,0,1,100.61,245.68Z"/><path class="cls-3" d="M184.64,245.68a.48.48,0,0,1-.45-.28c-.07-.14-.14-.28-.22-.42a20.15,20.15,0,0,0-35.62,0,3.22,3.22,0,0,0-.21.41.5.5,0,0,1-.67.23.51.51,0,0,1-.24-.67l.2-.38a21.15,21.15,0,0,1,37.42-.06,4.92,4.92,0,0,1,.24.45.51.51,0,0,1-.23.67A.59.59,0,0,1,184.64,245.68Z"/><path class="cls-3" d="M166.16,245.68a.49.49,0,0,1-.35-.15l-9-9a.5.5,0,0,1,0-.71.5.5,0,0,1,.7,0l9,9a.5.5,0,0,1,0,.7A.51.51,0,0,1,166.16,245.68Z"/><path class="cls-3" d="M166.16,245.68a.43.43,0,0,1-.19,0,.5.5,0,0,1-.31-.46V233.75a.5.5,0,0,1,1,0V244l8.18-8.18a.5.5,0,0,1,.71.71l-9,9A.47.47,0,0,1,166.16,245.68Z"/><path class="cls-3" d="M90.11,264.35H82.35V245.24h7.76s-1.23,7.64-5.78,9.55A25.24,25.24,0,0,1,90.11,264.35Z"/><path class="cls-3" d="M111.08,264.35h7.75V245.24h-7.75s1.23,7.64,5.78,9.55A25.09,25.09,0,0,0,111.08,264.35Z"/><path class="cls-3" d="M155.68,264.35h-7.76V245.24h7.76s-1.23,7.64-5.78,9.55A25.24,25.24,0,0,1,155.68,264.35Z"/><path class="cls-3" d="M176.65,264.35h7.75V245.24h-7.75s1.23,7.64,5.77,9.55A25.14,25.14,0,0,0,176.65,264.35Z"/><path class="cls-3" d="M119.08,265.06H82.13a.5.5,0,0,1-.5-.5V245.24a.51.51,0,0,1,.5-.5h37a.5.5,0,0,1,.5.5v19.32A.5.5,0,0,1,119.08,265.06Zm-36.45-1h36V245.74H82.63Z"/><path class="cls-3" d="M119.09,255.29h-37a.5.5,0,0,1-.5-.5.51.51,0,0,1,.5-.5h37a.51.51,0,0,1,.5.5A.5.5,0,0,1,119.09,255.29Z"/><path class="cls-3" d="M184.64,255.29H147.69a.5.5,0,0,1-.5-.5.5.5,0,0,1,.5-.5h36.95a.5.5,0,0,1,.5.5A.5.5,0,0,1,184.64,255.29Z"/><path class="cls-3" d="M185.14,265.06H147.19V244.74h37.95Zm-36.95-1h35.95V245.74H148.19Z"/><path class="cls-5" d="M132.59,294.59H128a.5.5,0,0,1-.5-.5v-9.51a.5.5,0,0,1,.5-.5h4.58a.5.5,0,0,1,.5.5v9.51A.5.5,0,0,1,132.59,294.59Zm-4.08-1h3.58v-8.51h-3.58Z"/><path class="cls-5" d="M138.85,294.59h-4.57a.5.5,0,0,1-.5-.5v-9.51a.5.5,0,0,1,.5-.5h4.57a.5.5,0,0,1,.5.5v9.51A.5.5,0,0,1,138.85,294.59Zm-4.07-1h3.57v-8.51h-3.57Z"/><path class="cls-5" d="M133.09,305.08h-1v-8.66h-3.58v8.66h-1v-9.16a.5.5,0,0,1,.5-.5h4.58a.5.5,0,0,1,.5.5Z"/><path class="cls-5" d="M139.35,305.08h-1v-8.66h-3.57v8.66h-1v-9.16a.5.5,0,0,1,.5-.5h4.57a.5.5,0,0,1,.5.5Z"/><path class="cls-5" d="M138.85,283.13H128a.5.5,0,0,1-.5-.5,5.92,5.92,0,1,1,11.84,0A.5.5,0,0,1,138.85,283.13Zm-10.31-1h9.79a4.92,4.92,0,0,0-9.79,0Z"/><circle class="cls-6" cx="22.85" cy="152.58" r="22.85"/><circle class="cls-6" cx="22.85" cy="184.08" r="22.85"/><path class="cls-3" d="M22.85,259a.5.5,0,0,1-.5-.5V142.63a.51.51,0,0,1,.5-.5.5.5,0,0,1,.5.5V258.54A.5.5,0,0,1,22.85,259Z"/><path class="cls-3" d="M22.85,187.24a.51.51,0,0,1-.42-.23L8.22,165.32a.5.5,0,0,1,.84-.55l14.21,21.7a.5.5,0,0,1-.14.69A.57.57,0,0,1,22.85,187.24Z"/><path class="cls-3" d="M22.85,162.1a.5.5,0,0,1-.33-.87l16-14.51a.51.51,0,0,1,.71,0,.49.49,0,0,1,0,.7L23.19,162A.5.5,0,0,1,22.85,162.1Z"/></svg>