<svg id="Capa_1" data-name="Capa 1" xmlns="http://www.w3.org/2000/svg" viewBox="0 0 286.39 121.7"><defs><style>.cls-1{fill:#1b3861;}.cls-2{fill:#e3e4e2;}.cls-3{fill:#3663ac;}.cls-4{fill:#00a54e;}.cls-5{fill:#fff;}</style></defs><title>Mesa de trabajo 3</title><path class="cls-1" d="M212.93,81a1.63,1.63,0,0,1-2.9,1c-3.73-4.65-11.46-11.29-25.44-11.81-14.5-.54-23,6.94-27,12a1.64,1.64,0,0,1-2.92-1V73.84a1.62,1.62,0,0,1,.27-.91c1.59-2.35,10.25-13.58,29.69-13s26.75,10.83,28.1,13a1.58,1.58,0,0,1,.24.85Z"/><path class="cls-1" d="M154.63,63.32a.47.47,0,0,1-.27-.08.5.5,0,0,1-.15-.69c.09-.13,8.28-12.36,28.92-12.36l1.47,0c21.73.6,28.48,11.88,28.76,12.36a.5.5,0,1,1-.87.5c-.06-.11-6.79-11.27-27.92-11.86-11.06-.32-18.48,2.94-22.78,5.72a24.12,24.12,0,0,0-6.74,6.17A.5.5,0,0,1,154.63,63.32Z"/><path class="cls-1" d="M176.5,62.63a.5.5,0,0,1-.5-.5V51.38a.5.5,0,1,1,1,0V62.13A.5.5,0,0,1,176.5,62.63Z"/><path class="cls-1" d="M168.41,64.77a.5.5,0,0,1-.5-.5V53.52a.5.5,0,0,1,.5-.5.5.5,0,0,1,.5.5V64.27A.5.5,0,0,1,168.41,64.77Z"/><path class="cls-1" d="M160.32,68.7a.5.5,0,0,1-.5-.5V57.45a.5.5,0,0,1,.5-.5.5.5,0,0,1,.5.5V68.2A.5.5,0,0,1,160.32,68.7Z"/><path class="cls-1" d="M207.35,68.7a.5.5,0,0,1-.5-.5V57.45a.5.5,0,0,1,.5-.5.5.5,0,0,1,.5.5V68.2A.5.5,0,0,1,207.35,68.7Z"/><path class="cls-1" d="M199.26,64.77a.5.5,0,0,1-.5-.5V53.52a.5.5,0,0,1,.5-.5.5.5,0,0,1,.5.5V64.27A.5.5,0,0,1,199.26,64.77Z"/><path class="cls-1" d="M191.17,62.63a.5.5,0,0,1-.5-.5V51.38a.5.5,0,1,1,1,0V62.13A.5.5,0,0,1,191.17,62.63Z"/><path class="cls-1" d="M191.17,54.48H177a.51.51,0,0,1-.5-.5.5.5,0,0,1,.5-.5h14.17a.5.5,0,0,1,.5.5A.5.5,0,0,1,191.17,54.48Z"/><path class="cls-1" d="M191.17,57.45H177a.5.5,0,0,1,0-1h14.17a.5.5,0,0,1,0,1Z"/><rect class="cls-2" x="29.55" y="19.51" width="116.8" height="92.13"/><polygon class="cls-3" points="156.13 36.81 19.77 36.81 31.85 0 146.35 0 156.13 36.81"/><rect class="cls-1" x="29.99" y="5.17" width="117.86" height="1"/><rect class="cls-1" x="28.32" y="10.26" width="120.89" height="1"/><rect class="cls-1" x="26.65" y="15.35" width="123.92" height="1"/><rect class="cls-1" x="24.98" y="20.45" width="126.94" height="1"/><rect class="cls-1" x="23.31" y="25.54" width="129.97" height="1"/><rect class="cls-1" x="21.63" y="30.64" width="132.99" height="1"/><polygon class="cls-2" points="87.95 37.28 72.84 37.28 80.39 24.19 87.95 11.11 95.51 24.19 103.06 37.28 87.95 37.28"/><path class="cls-1" d="M87.94,42.57A7.55,7.55,0,1,1,95.48,35,7.55,7.55,0,0,1,87.94,42.57Zm0-14.09A6.55,6.55,0,1,0,94.48,35,6.56,6.56,0,0,0,87.94,28.48Z"/><rect class="cls-4" x="80.12" y="82.36" width="15.64" height="29.28"/><polygon class="cls-1" points="98.4 111.65 97.4 111.65 97.4 80.69 78.48 80.69 78.48 111.65 77.48 111.65 77.48 79.69 98.4 79.69 98.4 111.65"/><rect class="cls-1" x="80.89" y="34.53" width="14.09" height="1"/><rect class="cls-1" x="87.44" y="27.98" width="1" height="14.09"/><path class="cls-1" d="M52.14,105.91h-16V88.47a8,8,0,0,1,16,0c0,.14,0,.27,0,.4l0,.21Zm-15-1h14l0-15.87a5.44,5.44,0,0,0,0-.57,7,7,0,0,0-14,0c0,.19,0,.38,0,.57l0,.54h-.06Z"/><rect class="cls-1" x="36.64" y="87.97" width="15" height="1"/><rect class="cls-1" x="43.64" y="80.97" width="1" height="24.44"/><polygon class="cls-1" points="44.13 89.18 38.48 83.53 39.19 82.82 44.13 87.77 48.94 82.97 49.64 83.67 44.13 89.18"/><path class="cls-1" d="M74.09,105.91h-16V88.47a8,8,0,0,1,16,0c0,.14,0,.27,0,.4v17Zm-15-1h14l0-15.87a5.44,5.44,0,0,0,0-.57,7,7,0,0,0-14,0c0,.19,0,.38,0,.57l0,.54h-.07Z"/><rect class="cls-1" x="58.59" y="87.97" width="15" height="1"/><rect class="cls-1" x="65.59" y="80.97" width="1" height="24.44"/><polygon class="cls-1" points="66.09 89.18 60.44 83.53 61.14 82.82 66.09 87.77 70.89 82.97 71.6 83.67 66.09 89.18"/><path class="cls-1" d="M117.69,105.91h-16V88.47a8,8,0,0,1,16,0c0,.14,0,.27,0,.4v17Zm-15-1h14l0-15.87c0-.19,0-.38,0-.57a7,7,0,0,0-14,0,5.44,5.44,0,0,0,0,.57l0,.54h-.07Z"/><rect class="cls-1" x="102.19" y="87.97" width="15" height="1"/><rect class="cls-1" x="109.19" y="80.97" width="1" height="24.44"/><polygon class="cls-1" points="109.69 89.18 104.04 83.53 104.75 82.82 109.69 87.77 114.49 82.97 115.2 83.67 109.69 89.18"/><path class="cls-1" d="M139.64,105.91h-16V88.58a.41.41,0,0,1,0-.11,8,8,0,0,1,16,0c0,.14,0,.27,0,.4v17Zm-15-1h14l0-15.87c0-.19,0-.38,0-.57a7,7,0,0,0-14,0,5.44,5.44,0,0,0,0,.57l0,.54h-.07Z"/><rect class="cls-1" x="124.14" y="87.97" width="15" height="1"/><rect class="cls-1" x="131.14" y="80.97" width="1" height="24.44"/><polygon class="cls-1" points="131.64 89.18 125.99 83.53 126.7 82.82 131.64 87.77 136.44 82.97 137.15 83.67 131.64 89.18"/><path class="cls-1" d="M97.9,80.7a.51.51,0,0,1-.29-.1l-9.67-6.86L78.27,80.6a.5.5,0,1,1-.58-.81l10-7.08a.51.51,0,0,1,.58,0l10,7.08a.5.5,0,0,1,.11.69A.49.49,0,0,1,97.9,80.7Z"/><path class="cls-1" d="M87.94,80.7a.5.5,0,0,1-.5-.5V73.12a.5.5,0,0,1,.5-.5.51.51,0,0,1,.5.5V80.2A.51.51,0,0,1,87.94,80.7Z"/><path class="cls-1" d="M73.8,71.37l-.87-.48.21-.41.9.42A4.16,4.16,0,0,1,73.8,71.37Z"/><path class="cls-1" d="M36.42,71.37c-.08-.15-.16-.3-.23-.45l.9-.44c.06.14.14.28.21.42Z"/><path class="cls-1" d="M73.59,52.25a.49.49,0,0,1-.45-.28l-.21-.42a20.15,20.15,0,0,0-35.63,0c-.09.17-.16.29-.21.41a.5.5,0,0,1-.9-.44l.19-.38a21.16,21.16,0,0,1,37.43-.06c.08.15.16.3.23.45a.5.5,0,0,1-.23.67A.44.44,0,0,1,73.59,52.25Z"/><path class="cls-1" d="M55.11,52.25a.5.5,0,0,1-.35-.15l-9-9a.5.5,0,0,1,0-.71.5.5,0,0,1,.7,0l9,9a.5.5,0,0,1,0,.7A.51.51,0,0,1,55.11,52.25Z"/><path class="cls-1" d="M55.11,52.25a.43.43,0,0,1-.19,0,.49.49,0,0,1-.31-.46V40.32a.51.51,0,0,1,.5-.5.5.5,0,0,1,.5.5V50.54l8.18-8.18a.51.51,0,0,1,.71,0,.5.5,0,0,1,0,.71l-9,9A.51.51,0,0,1,55.11,52.25Z"/><path class="cls-1" d="M139.14,52.25a.5.5,0,0,1-.45-.28c-.06-.14-.14-.28-.21-.42a20.15,20.15,0,0,0-35.63,0l-.21.41a.5.5,0,0,1-.67.23.51.51,0,0,1-.23-.67c.06-.13.13-.25.2-.38a21.15,21.15,0,0,1,37.42-.06l.24.45a.51.51,0,0,1-.24.67A.42.42,0,0,1,139.14,52.25Z"/><path class="cls-1" d="M120.67,52.25a.51.51,0,0,1-.36-.15l-9-9a.5.5,0,0,1,0-.71.51.51,0,0,1,.71,0l9,9a.48.48,0,0,1,0,.7A.5.5,0,0,1,120.67,52.25Z"/><path class="cls-1" d="M120.67,52.25a.48.48,0,0,1-.2,0,.49.49,0,0,1-.3-.46V40.32a.5.5,0,0,1,.5-.5.51.51,0,0,1,.5.5V50.54l8.18-8.18a.5.5,0,0,1,.7,0,.5.5,0,0,1,0,.71l-9,9A.49.49,0,0,1,120.67,52.25Z"/><path class="cls-5" d="M44.61,70.92H36.86V51.81h7.75s-1.23,7.64-5.77,9.56A25.06,25.06,0,0,1,44.61,70.92Z"/><path class="cls-5" d="M65.59,70.92h7.75V51.81H65.59s1.22,7.64,5.77,9.56A25.06,25.06,0,0,0,65.59,70.92Z"/><path class="cls-5" d="M110.18,70.92h-7.75V51.81h7.75s-1.23,7.64-5.77,9.56A25.06,25.06,0,0,1,110.18,70.92Z"/><path class="cls-5" d="M131.15,70.92h7.76V51.81h-7.76s1.23,7.64,5.78,9.56A25.17,25.17,0,0,0,131.15,70.92Z"/><path class="cls-1" d="M73.59,71.63H36.64a.5.5,0,0,1-.5-.5V51.81a.5.5,0,0,1,.5-.5h37a.51.51,0,0,1,.5.5V71.13A.5.5,0,0,1,73.59,71.63Zm-36.45-1h36V52.31H37.14Z"/><path class="cls-1" d="M73.59,61.87H36.64a.5.5,0,0,1-.5-.5.5.5,0,0,1,.5-.5h37a.5.5,0,0,1,.5.5A.5.5,0,0,1,73.59,61.87Z"/><path class="cls-1" d="M139.14,61.87H102.19a.5.5,0,0,1-.5-.5.5.5,0,0,1,.5-.5h36.95a.5.5,0,0,1,.5.5A.5.5,0,0,1,139.14,61.87Z"/><path class="cls-1" d="M139.64,71.63H101.69V51.31h37.95Zm-36.95-1h35.95V52.31H102.69Z"/><path class="cls-5" d="M87.09,101.16H82.52a.5.5,0,0,1-.5-.5V91.15a.5.5,0,0,1,.5-.5h4.57a.5.5,0,0,1,.5.5v9.51A.5.5,0,0,1,87.09,101.16Zm-4.07-1h3.57V91.65H83Z"/><path class="cls-5" d="M93.36,101.16H88.78a.5.5,0,0,1-.5-.5V91.15a.5.5,0,0,1,.5-.5h4.58a.5.5,0,0,1,.5.5v9.51A.5.5,0,0,1,93.36,101.16Zm-4.08-1h3.58V91.65H89.28Z"/><path class="cls-5" d="M87.59,111.65h-1V103H83v8.66H82v-9.16a.5.5,0,0,1,.5-.5h4.57a.5.5,0,0,1,.5.5Z"/><path class="cls-5" d="M93.86,111.65h-1V103H89.28v8.66h-1v-9.16a.5.5,0,0,1,.5-.5h4.58a.5.5,0,0,1,.5.5Z"/><path class="cls-5" d="M93.36,89.7H82.52a.5.5,0,0,1-.5-.5,5.92,5.92,0,0,1,11.84,0A.5.5,0,0,1,93.36,89.7ZM83,88.7h9.79a4.92,4.92,0,0,0-9.79,0Z"/><path class="cls-4" d="M36.62,100.92c0-9.45-8.08-5.42-8.08-10.7,0-3.42-1.13-10.24-6.65-10.49v0l-.26,0-.25,0v0c-5.52.25-6.66,7.07-6.66,10.49,0,5.28-8.07,1.25-8.07,10.7,0,5.7-6.65,0-6.65,10.38H43.27C43.27,100.92,36.62,106.62,36.62,100.92Z"/><path class="cls-2" d="M13,106.4a.54.54,0,0,1-.36-.14l-2.07-2.08a.5.5,0,0,1,0-.7.5.5,0,0,1,.71,0l2.07,2.07a.5.5,0,0,1,0,.71A.52.52,0,0,1,13,106.4Z"/><path class="cls-2" d="M10.94,106.4a.54.54,0,0,1-.35-.14.51.51,0,0,1,0-.71l2.07-2.07a.5.5,0,0,1,.71,0,.48.48,0,0,1,0,.7l-2.07,2.08A.54.54,0,0,1,10.94,106.4Z"/><path class="cls-2" d="M21.63,93.32a.5.5,0,0,1-.35-.15L19.21,91.1a.5.5,0,0,1,0-.71.5.5,0,0,1,.7,0L22,92.47a.5.5,0,0,1,0,.7A.51.51,0,0,1,21.63,93.32Z"/><path class="cls-2" d="M19.56,93.32a.5.5,0,0,1-.35-.85l2.07-2.08a.5.5,0,0,1,.71.71l-2.08,2.07A.47.47,0,0,1,19.56,93.32Z"/><path class="cls-2" d="M30.85,100.38a.5.5,0,0,1-.36-.14l-2.07-2.08a.48.48,0,0,1,0-.7.5.5,0,0,1,.71,0l2.07,2.07a.51.51,0,0,1,0,.71A.49.49,0,0,1,30.85,100.38Z"/><path class="cls-2" d="M28.77,100.38a.47.47,0,0,1-.35-.14.5.5,0,0,1,0-.71l2.07-2.07a.5.5,0,0,1,.71,0,.5.5,0,0,1,0,.7l-2.07,2.08A.5.5,0,0,1,28.77,100.38Z"/><path class="cls-4" d="M279.75,111.32c0-9.45-8.08-5.42-8.08-10.7,0-3.42-1.13-10.24-6.65-10.49v0l-.26,0-.26,0v0c-5.52.25-6.65,7.07-6.65,10.49,0,5.28-8.08,1.25-8.08,10.7,0,5.7-6.64,0-6.64,10.38h43.26C286.39,111.32,279.75,117,279.75,111.32Z"/><path class="cls-2" d="M256.14,116.8a.49.49,0,0,1-.35-.14l-2.07-2.08a.49.49,0,1,1,.7-.7L256.5,116a.51.51,0,0,1,0,.71A.5.5,0,0,1,256.14,116.8Z"/><path class="cls-2" d="M254.07,116.8a.47.47,0,0,1-.35-.14.5.5,0,0,1,0-.71l2.07-2.07a.5.5,0,0,1,.71,0,.5.5,0,0,1,0,.7l-2.08,2.08A.46.46,0,0,1,254.07,116.8Z"/><path class="cls-2" d="M264.76,103.72a.47.47,0,0,1-.35-.15l-2.08-2.07a.5.5,0,0,1,.71-.71l2.07,2.08a.48.48,0,0,1,0,.7A.47.47,0,0,1,264.76,103.72Z"/><path class="cls-2" d="M262.69,103.72a.51.51,0,0,1-.36-.15.5.5,0,0,1,0-.7l2.08-2.08a.5.5,0,0,1,.7,0,.5.5,0,0,1,0,.71L263,103.57A.49.49,0,0,1,262.69,103.72Z"/><path class="cls-2" d="M274,110.78a.47.47,0,0,1-.35-.14l-2.07-2.07a.5.5,0,0,1,0-.71.48.48,0,0,1,.7,0l2.08,2.07a.51.51,0,0,1,0,.71A.5.5,0,0,1,274,110.78Z"/><path class="cls-2" d="M271.9,110.78a.46.46,0,0,1-.35-.14.5.5,0,0,1,0-.71l2.07-2.07a.5.5,0,0,1,.71,0,.51.51,0,0,1,0,.71l-2.08,2.07A.47.47,0,0,1,271.9,110.78Z"/></svg>