<svg id="Capa_1" data-name="Capa 1" xmlns="http://www.w3.org/2000/svg" viewBox="0 0 413.96 341.48"><defs><style>.cls-1{fill:#8ecbb1;}</style></defs><title>Mesa de trabajo 9_1</title><path class="cls-1" d="M384.39,0H118.47A29.57,29.57,0,0,0,88.89,29.57V46.71A23.83,23.83,0,0,1,65.06,70.54H32.58A32.58,32.58,0,0,0,0,103.12V263.66a32.58,32.58,0,0,0,32.59,32.58h6.53A23.84,23.84,0,0,1,63,320.08h0a21.4,21.4,0,0,0,21.4,21.4H366.62A21.41,21.41,0,0,0,388,320.08V265.51a21.41,21.41,0,0,0-21.41-21.4H354.16A29.09,29.09,0,0,1,325.07,215h0a29.09,29.09,0,0,1,29.09-29.09h30.23A29.57,29.57,0,0,0,414,156.35V29.57A29.57,29.57,0,0,0,384.39,0Z"/></svg>