<svg id="Layer_1" data-name="Layer 1" xmlns="http://www.w3.org/2000/svg" viewBox="0 0 258.61 273.31"><defs><style>.cls-1{fill:none;}.cls-1,.cls-2{stroke:#67a49a;stroke-miterlimit:10;}.cls-2{fill:#fff;}.cls-3{fill:#67a49a;}</style></defs><title>Mesa de trabajo 3_1</title><path class="cls-1" d="M247.33,30.5V152a30,30,0,0,1-30,30H198.69a30,30,0,0,0-30,30v30.77a30,30,0,0,1-30,30H41.42a30,30,0,0,1-30-30V121.27a30,30,0,0,1,30-30H60.05a30,30,0,0,0,30-30V30.5a30,30,0,0,1,30-30h97.28A30,30,0,0,1,247.33,30.5Z"/><path class="cls-1" d="M247.33,81.12V77.27c0-16.57-16.35-30-36.51-30H90.05"/><path class="cls-1" d="M121.8,154.32V141a30,30,0,0,0-30-30H41.28a30,30,0,0,0-30,30v13.33"/><path class="cls-1" d="M121.8,173V159.66a30,30,0,0,0-30-30H41.28a30,30,0,0,0-30,30V173"/><path class="cls-1" d="M36.77,95.4H96.32a30,30,0,0,1,30,30v70.52a10,10,0,0,1-10,10H36.77a30,30,0,0,1-30-30V125.4a30,30,0,0,1,30-30Z" transform="translate(217.2 84.12) rotate(90)"/><ellipse class="cls-2" cx="11.28" cy="210.43" rx="10.78" ry="10.16"/><ellipse class="cls-2" cx="247.33" cy="81.12" rx="10.78" ry="10.16"/><ellipse class="cls-3" cx="65.85" cy="110.99" rx="6.66" ry="6.28"/></svg>