<svg id="Capa_1" data-name="Capa 1" xmlns="http://www.w3.org/2000/svg" viewBox="0 0 726.44 501.81"><defs><style>.cls-1{fill:#b1d7b0;}</style></defs><title>Mesa de trabajo 11_1</title><path class="cls-1" d="M680.23,501.81H319.38a46.2,46.2,0,0,1-46.21-46.21V365.33a49.67,49.67,0,0,0-49.68-49.67H46.21A46.21,46.21,0,0,1,0,269.45V46.21A46.21,46.21,0,0,1,46.21,0H566.93a46.21,46.21,0,0,1,46.21,46.21V174.3a67.09,67.09,0,0,0,67.09,67.08h0a46.21,46.21,0,0,1,46.21,46.22v168A46.21,46.21,0,0,1,680.23,501.81Z"/></svg>