<svg id="Capa_1" data-name="Capa 1" xmlns="http://www.w3.org/2000/svg" viewBox="0 0 738.3 530.65"><defs><style>.cls-1{fill:#1f3765;}</style></defs><title>Mesa de trabajo 11</title><path class="cls-1" d="M385.34,346.64v18.88a27.17,27.17,0,0,0,27.17,27.17h0a27.16,27.16,0,0,1,27.16,27.17v13.05a27.17,27.17,0,0,0,27.17,27.17h55.74a27.16,27.16,0,0,0,27.17-27.17V419.86a27.16,27.16,0,0,1,27.17-27.17H596a27.16,27.16,0,0,1,27.17,27.17v83.62a27.18,27.18,0,0,0,27.17,27.17h60.77a27.18,27.18,0,0,0,27.17-27.17V196a27.17,27.17,0,0,0-27.17-27.17H420.51a27.17,27.17,0,0,1-27.17-27.17V27.17A27.17,27.17,0,0,0,366.17,0H27.41C12.4,0,0,18.39,0,33.39V298.52a27.16,27.16,0,0,0,27.17,27.17l331-6.22A27.17,27.17,0,0,1,385.34,346.64Z"/></svg>