<svg id="Layer_1" data-name="Layer 1" xmlns="http://www.w3.org/2000/svg" viewBox="0 0 290.76 216.09"><defs><style>.cls-1{fill:none;}.cls-1,.cls-2{stroke:#67a49a;stroke-miterlimit:10;}.cls-2{fill:#fff;}.cls-3{fill:#67a49a;}</style></defs><title>Artboard 1</title><path class="cls-1" d="M212,216.3v-3.85c0-16.57-16.35-30-36.51-30H17.3"/><path class="cls-1" d="M122.14,126.34V113a30,30,0,0,0-30-30H41.62a30,30,0,0,0-30,30v13.33"/><path class="cls-1" d="M122.14,145V131.68a30,30,0,0,0-30-30H41.62a30,30,0,0,0-30,30V145"/><path class="cls-1" d="M37.1,67.41H96.65a30,30,0,0,1,30,30v70.52a10,10,0,0,1-10,10H37.1a30,30,0,0,1-30-30V97.41a30,30,0,0,1,30-30Z" transform="translate(189.55 55.8) rotate(90)"/><rect class="cls-1" x="122.14" y="0.91" width="157.28" height="181.54" rx="30" ry="30"/><ellipse class="cls-2" cx="279.42" cy="92.65" rx="10.78" ry="10.16"/><ellipse class="cls-2" cx="11.62" cy="182.45" rx="10.78" ry="10.16"/><ellipse class="cls-3" cx="66.19" cy="83.01" rx="6.66" ry="6.28"/></svg>