<svg id="Capa_1" data-name="Capa 1" xmlns="http://www.w3.org/2000/svg" viewBox="0 0 62.46 63.03"><defs><style>.cls-1{fill:#1f2649;}</style></defs><title>Mesa de trabajo 13</title><path class="cls-1" d="M27,63a27,27,0,1,1,19.1-46.1h0A27,27,0,0,1,27,63Zm0-52.5a25.49,25.49,0,1,0,18,7.46A25.43,25.43,0,0,0,27,10.53Z"/><path class="cls-1" d="M27,56.81a20.78,20.78,0,1,1,14.69-6.08A20.72,20.72,0,0,1,27,56.81Zm0-40A19.27,19.27,0,1,0,40.65,22.4,19.23,19.23,0,0,0,27,16.76Z"/><path class="cls-1" d="M27,48.81a12.79,12.79,0,1,1,9-3.74A12.74,12.74,0,0,1,27,48.81Zm0-24.06a11.27,11.27,0,1,0,8,3.3A11.25,11.25,0,0,0,27,24.75Z"/><path class="cls-1" d="M62.24,7.21,58.79,3.68h0L55.24.21a.76.76,0,0,0-1.05,0l-4.38,4.3a.78.78,0,0,0-.22.43l-1.07,7.93L29.29,32.09l-3.51-3.5a.72.72,0,0,0-.71-.2.73.73,0,0,0-.53.5l-1.24,4-1.22-1.22L21,32.68l2.1,2.1h0l3.6,3.6L30,41.68l1.06-1.06-1.48-1.48,4-1.23a.73.73,0,0,0,.5-.53.74.74,0,0,0-.19-.71l-3.51-3.51L49.69,13.82l7.82-1a.78.78,0,0,0,.43-.22l4.3-4.29A.75.75,0,0,0,62.24,7.21ZM28.41,37.94l-1-1L24.51,34l1.09-3.51,6.32,6.32ZM51.05,5.4l3.67-3.6,2.46,2.41L50.29,11Zm6,5.92-5.62.75,6.81-6.8,2.4,2.46Z"/></svg>