<svg id="Capa_1" data-name="Capa 1" xmlns="http://www.w3.org/2000/svg" viewBox="0 0 70.05 50.5"><defs><style>.cls-1{fill:#1f2649;}</style></defs><title>Mesa de trabajo 15</title><path class="cls-1" d="M69.07,49.32,59,35.18,49.43,21.83a.74.74,0,0,0-.61-.31.72.72,0,0,0-.6.31l-9,12.55-.49.68-4.08-7.7h0L26.88,12.78V8.68a.73.73,0,0,0,.07-.3V.74A.74.74,0,0,0,26.2,0H13.27a.74.74,0,0,0-.75.74V8.38a.75.75,0,0,0,.75.75H25.39v3.65L18.45,25.83,5.84,49.4a.75.75,0,0,0,0,.74.73.73,0,0,0,.64.36h62a.74.74,0,0,0,.66-.4A.76.76,0,0,0,69.07,49.32ZM48.82,23.55l8.45,11.81-2.08,1.13L50.5,34a.78.78,0,0,0-.7,0l-4.63,2.47-4.06-2.14ZM14,7.63V1.49H25.39V7.63Zm12.13,6.92L33,27.43l-.67.4L28.24,25.4a.76.76,0,0,0-.76,0l-4.07,2.43L20.1,25.9ZM7.75,49,19.4,27.22,23,29.35a.75.75,0,0,0,.38.1.76.76,0,0,0,.38-.11l4.06-2.42L32,29.35a.78.78,0,0,0,.77,0l1-.59,4.06,7.67L28.8,49Zm22.89,0,.6-.85,9-12.58L44.83,38a.81.81,0,0,0,.7,0l4.62-2.47L54.85,38a.75.75,0,0,0,.7,0l2.6-1.41L67,49Z"/><rect class="cls-1" x="44.38" y="11.15" width="15.99" height="1.49"/><rect class="cls-1" x="55.79" y="24.44" width="14.26" height="1.49"/><rect class="cls-1" x="37.22" y="17.53" width="2.92" height="1.49"/><rect class="cls-1" x="31.18" y="2.72" width="12.07" height="1.49"/><rect class="cls-1" y="29.02" width="11.01" height="1.49"/><rect class="cls-1" x="11.01" y="20.65" width="5.31" height="1.49"/><rect class="cls-1" x="2.19" y="13.35" width="17.51" height="1.49"/></svg>