<svg id="Capa_1" data-name="Capa 1" xmlns="http://www.w3.org/2000/svg" viewBox="0 0 58.74 52.85"><defs><style>.cls-1{fill:#1f2649;}</style></defs><title>Mesa de trabajo 17</title><path class="cls-1" d="M51.09,51.35v-35a.75.75,0,0,0-.75-.75h-7a.74.74,0,0,0-.75.75v35h-3.7V23.42a.75.75,0,0,0-.75-.75h-7a.74.74,0,0,0-.75.75V51.35H27V30.61a.75.75,0,0,0-.75-.75h-7a.74.74,0,0,0-.75.75V51.35h-3.3V38.6a.75.75,0,0,0-.75-.75h-7a.74.74,0,0,0-.75.75V51.35H.42v1.5H58.74v-1.5Zm-43,0v-12h5.54v12Zm11.84,0v-20h5.54v20Zm11.84,0V24.17h5.54V51.35Zm12.24,0V17.14h5.54V51.35Z"/><path class="cls-1" d="M.84,31.23,42.12,3.46l-.67,2.77,1.46.35L44,1.94a.77.77,0,0,0-.1-.57A.7.7,0,0,0,43.46,1L38.9,0l-.33,1.46,2.87.65L0,30Z"/></svg>