<svg id="Capa_1" data-name="Capa 1" xmlns="http://www.w3.org/2000/svg" viewBox="0 0 62.67 60.62"><defs><style>.cls-1{fill:#1f2649;}</style></defs><title>Mesa de trabajo 13_1</title><path class="cls-1" d="M62.56,49.23a2.68,2.68,0,0,0-2.34-2.65h-2a8.69,8.69,0,0,0,3-6.67c0-4.64-3.46-8.42-7.71-8.42s-7.72,3.78-7.72,8.42a8.69,8.69,0,0,0,3,6.67h-2c-1.3,0-2.36,1.38-2.36,3.07v1.13L32.69,38.94V29.21H40a.88.88,0,0,0,.88-.88V18.25c0-1.7-1.07-3.07-2.37-3.07H36.4a8.67,8.67,0,0,0,3.13-6.76C39.53,3.78,36.07,0,31.82,0S24.1,3.78,24.1,8.42a8.7,8.7,0,0,0,3.13,6.76H25.07c-1.31,0-2.37,1.37-2.37,3.07V28.33a.87.87,0,0,0,.88.88h7.36v9.73L18.15,51.74V49.65a.93.93,0,0,0-.12-.43,2.67,2.67,0,0,0-2.34-2.64h-2a8.69,8.69,0,0,0,3-6.67c0-4.64-3.46-8.42-7.71-8.42s-7.72,3.78-7.72,8.42a8.69,8.69,0,0,0,3,6.67h-2C1.06,46.58,0,48,0,49.65V59.74a.88.88,0,0,0,.88.88H17.27a.89.89,0,0,0,.88-.88V54.22L31.82,40.54,44.53,53.26v6.48a.88.88,0,0,0,.87.88H61.79a.88.88,0,0,0,.88-.88V49.65A.85.85,0,0,0,62.56,49.23ZM25.86,8.42c0-3.67,2.67-6.67,6-6.67s6,3,6,6.67-2.68,6.67-6,6.67S25.86,12.1,25.86,8.42Zm-1.4,9.83c0-.82.42-1.32.61-1.32H38.48c.19,0,.61.5.61,1.32v9.21H24.46ZM3.07,39.91c0-3.67,2.67-6.66,6-6.66s6,3,6,6.66-2.68,6.67-6,6.67S3.07,43.59,3.07,39.91Zm13.32,19H1.75V49.65c0-.82.43-1.32.62-1.32H15.69c.19,0,.61.5.61,1.32a.79.79,0,0,0,.09.35Zm31.21-19c0-3.67,2.67-6.66,6-6.66s6,3,6,6.66-2.68,6.67-6,6.67S47.6,43.59,47.6,39.91Zm13.32,19H46.28V52.72l.1-.09-.1-.1V49.65c0-.82.43-1.32.61-1.32H60.22c.18,0,.61.5.61,1.32a.7.7,0,0,0,.09.35Z"/></svg>