<svg id="Capa_1" data-name="Capa 1" xmlns="http://www.w3.org/2000/svg" viewBox="0 0 149.3 282.44"><defs><style>.cls-1{fill:#7bbe78;}.cls-2{fill:#fafafa;}.cls-3{fill:#1b3760;}.cls-4{fill:#3664ac;}.cls-5{fill:#00a34e;}.cls-6{fill:#e1e2e0;}</style></defs><title>Mesa de trabajo 5</title><rect class="cls-1" x="17.9" y="15.1" width="116.8" height="267.34"/><path class="cls-2" d="M39.79,194.48h-7V147.16H44a52.57,52.57,0,0,1-6.55,23.41A102.69,102.69,0,0,1,39.79,194.48Z"/><path class="cls-2" d="M49.88,194.48h7V147.16H45.66a52.57,52.57,0,0,0,6.55,23.41A102.69,102.69,0,0,0,49.88,194.48Z"/><path class="cls-2" d="M100.71,77.28h-7V30h11.26a52.57,52.57,0,0,1-6.55,23.41A102.69,102.69,0,0,1,100.71,77.28Z"/><path class="cls-2" d="M110.8,77.28h7V30H106.58a52.57,52.57,0,0,0,6.55,23.41A102.69,102.69,0,0,0,110.8,77.28Z"/><polygon class="cls-3" points="76.3 0 3.3 0 17.9 15.61 76.3 15.61 134.7 15.61 149.3 0 76.3 0"/><rect class="cls-4" x="7.98" y="4.5" width="136.65" height="1"/><rect class="cls-4" x="13.37" y="10.04" width="125.86" height="1"/><path class="cls-3" d="M57.42,77.28H32.25V29.46H57.42Zm-24.17-1H56.42V30.46H33.25Z"/><rect class="cls-3" x="32.75" y="32.61" width="24.17" height="1"/><rect class="cls-3" x="32.75" y="36.01" width="24.17" height="1"/><rect class="cls-3" x="32.75" y="39.42" width="24.17" height="1"/><rect class="cls-3" x="32.75" y="42.82" width="24.17" height="1"/><rect class="cls-3" x="32.75" y="46.23" width="24.17" height="1"/><rect class="cls-3" x="32.75" y="49.64" width="24.17" height="1"/><rect class="cls-3" x="32.75" y="53.04" width="24.17" height="1"/><rect class="cls-3" x="32.75" y="56.45" width="24.17" height="1"/><rect class="cls-3" x="32.75" y="59.85" width="24.17" height="1"/><path class="cls-3" d="M87.88,77.28H62.71V29.46H87.88Zm-24.17-1H86.88V30.46H63.71Z"/><rect class="cls-3" x="63.21" y="32.61" width="24.17" height="1"/><rect class="cls-3" x="63.21" y="36.01" width="24.17" height="1"/><rect class="cls-3" x="63.21" y="39.42" width="24.17" height="1"/><rect class="cls-3" x="63.21" y="42.82" width="24.17" height="1"/><rect class="cls-3" x="63.21" y="46.23" width="24.17" height="1"/><rect class="cls-3" x="63.21" y="49.64" width="24.17" height="1"/><rect class="cls-3" x="63.21" y="53.04" width="24.17" height="1"/><rect class="cls-3" x="63.21" y="56.45" width="24.17" height="1"/><rect class="cls-3" x="63.21" y="59.85" width="24.17" height="1"/><path class="cls-3" d="M118.34,77.28H93.17V29.46h25.17Zm-24.17-1h23.17V30.46H94.17Z"/><rect class="cls-3" x="93.67" y="53.04" width="24.17" height="1"/><path class="cls-3" d="M57.42,135.9H32.25V88.08H57.42Zm-24.17-1H56.42V89.08H33.25Z"/><rect class="cls-3" x="32.75" y="91.23" width="24.17" height="1"/><rect class="cls-3" x="32.75" y="94.64" width="24.17" height="1"/><rect class="cls-3" x="32.75" y="98.04" width="24.17" height="1"/><rect class="cls-3" x="32.75" y="101.45" width="24.17" height="1"/><rect class="cls-3" x="32.75" y="111.67" width="24.17" height="1"/><path class="cls-3" d="M87.88,135.9H62.71V88.08H87.88Zm-24.17-1H86.88V89.08H63.71Z"/><rect class="cls-3" x="63.21" y="91.23" width="24.17" height="1"/><rect class="cls-3" x="63.21" y="94.64" width="24.17" height="1"/><rect class="cls-3" x="63.21" y="98.04" width="24.17" height="1"/><rect class="cls-3" x="63.21" y="101.45" width="24.17" height="1"/><rect class="cls-3" x="63.21" y="104.86" width="24.17" height="1"/><rect class="cls-3" x="63.21" y="108.26" width="24.17" height="1"/><rect class="cls-3" x="63.21" y="111.67" width="24.17" height="1"/><rect class="cls-3" x="63.21" y="115.07" width="24.17" height="1"/><rect class="cls-3" x="63.21" y="118.48" width="24.17" height="1"/><path class="cls-3" d="M118.34,135.9H93.17V88.08h25.17Zm-24.17-1h23.17V89.08H94.17Z"/><rect class="cls-3" x="93.67" y="91.23" width="24.17" height="1"/><rect class="cls-3" x="93.67" y="94.64" width="24.17" height="1"/><rect class="cls-3" x="93.67" y="98.04" width="24.17" height="1"/><rect class="cls-3" x="93.67" y="101.45" width="24.17" height="1"/><rect class="cls-3" x="93.67" y="104.86" width="24.17" height="1"/><rect class="cls-3" x="93.67" y="108.26" width="24.17" height="1"/><rect class="cls-3" x="93.67" y="111.67" width="24.17" height="1"/><rect class="cls-3" x="93.67" y="115.07" width="24.17" height="1"/><rect class="cls-3" x="93.67" y="118.48" width="24.17" height="1"/><rect class="cls-3" x="93.67" y="121.88" width="24.17" height="1"/><rect class="cls-3" x="93.67" y="125.29" width="24.17" height="1"/><rect class="cls-3" x="93.67" y="128.7" width="24.17" height="1"/><rect class="cls-3" x="93.67" y="132.1" width="24.17" height="1"/><path class="cls-3" d="M57.42,194.53H32.25V146.71H57.42Zm-24.17-1H56.42V147.71H33.25Z"/><rect class="cls-3" x="32.75" y="170.29" width="24.17" height="1"/><path class="cls-3" d="M87.88,194.53H62.71V146.71H87.88Zm-24.17-1H86.88V147.71H63.71Z"/><rect class="cls-3" x="63.21" y="170.29" width="24.17" height="1"/><path class="cls-3" d="M118.34,194.53H93.17V146.71h25.17Zm-24.17-1h23.17V147.71H94.17Z"/><rect class="cls-3" x="93.67" y="149.86" width="24.17" height="1"/><rect class="cls-3" x="93.67" y="153.26" width="24.17" height="1"/><rect class="cls-3" x="93.67" y="156.67" width="24.17" height="1"/><rect class="cls-3" x="93.67" y="160.08" width="24.17" height="1"/><rect class="cls-3" x="93.67" y="163.48" width="24.17" height="1"/><rect class="cls-3" x="93.67" y="166.89" width="24.17" height="1"/><rect class="cls-3" x="93.67" y="170.29" width="24.17" height="1"/><rect class="cls-3" x="93.67" y="173.7" width="24.17" height="1"/><rect class="cls-3" x="93.67" y="177.1" width="24.17" height="1"/><rect class="cls-3" x="93.67" y="180.51" width="24.17" height="1"/><path class="cls-3" d="M57.42,253.15H32.25V205.33H57.42Zm-24.17-1H56.42V206.33H33.25Z"/><rect class="cls-3" x="32.75" y="208.48" width="24.17" height="1"/><rect class="cls-3" x="32.75" y="211.89" width="24.17" height="1"/><rect class="cls-3" x="32.75" y="215.3" width="24.17" height="1"/><rect class="cls-3" x="32.75" y="218.7" width="24.17" height="1"/><rect class="cls-3" x="32.75" y="228.74" width="24.17" height="1"/><path class="cls-3" d="M87.88,253.15H62.71V205.33H87.88Zm-24.17-1H86.88V206.33H63.71Z"/><rect class="cls-3" x="63.21" y="208.48" width="24.17" height="1"/><rect class="cls-3" x="63.21" y="211.89" width="24.17" height="1"/><rect class="cls-3" x="63.21" y="215.3" width="24.17" height="1"/><rect class="cls-3" x="63.21" y="218.7" width="24.17" height="1"/><rect class="cls-3" x="63.21" y="222.11" width="24.17" height="1"/><rect class="cls-3" x="63.21" y="225.51" width="24.17" height="1"/><rect class="cls-3" x="63.21" y="228.92" width="24.17" height="1"/><path class="cls-3" d="M118.34,253.15H93.17V205.33h25.17Zm-24.17-1h23.17V206.33H94.17Z"/><rect class="cls-3" x="93.67" y="208.48" width="24.17" height="1"/><rect class="cls-3" x="93.67" y="211.89" width="24.17" height="1"/><rect class="cls-3" x="93.67" y="215.3" width="24.17" height="1"/><rect class="cls-3" x="93.67" y="218.7" width="24.17" height="1"/><rect class="cls-3" x="93.67" y="222.11" width="24.17" height="1"/><rect class="cls-3" x="93.67" y="225.51" width="24.17" height="1"/><rect class="cls-3" x="93.67" y="228.92" width="24.17" height="1"/><rect class="cls-3" x="29.24" y="74.5" width="92.09" height="2.78"/><rect class="cls-3" x="29.24" y="133.1" width="92.09" height="2.78"/><rect class="cls-3" x="29.24" y="191.74" width="92.09" height="2.78"/><rect class="cls-3" x="29.24" y="250.38" width="92.09" height="2.78"/><path class="cls-5" d="M36.62,271.27c0-9.46-8.08-5.42-8.08-10.7,0-3.42-1.13-10.25-6.65-10.49v0h-.51v0c-5.52.24-6.66,7.07-6.66,10.49,0,5.28-8.07,1.24-8.07,10.7,0,5.7-6.65,0-6.65,10.38H43.27C43.27,271.27,36.62,277,36.62,271.27Z"/><path class="cls-6" d="M13,276.75a.51.51,0,0,1-.36-.15l-2.07-2.07a.5.5,0,1,1,.71-.71l2.07,2.08a.48.48,0,0,1,0,.7A.5.5,0,0,1,13,276.75Z"/><path class="cls-6" d="M10.94,276.75a.5.5,0,0,1-.35-.85l2.07-2.08a.51.51,0,0,1,.71,0,.5.5,0,0,1,0,.71L11.3,276.6A.51.51,0,0,1,10.94,276.75Z"/><path class="cls-6" d="M21.63,263.67a.5.5,0,0,1-.35-.15l-2.07-2.07a.5.5,0,0,1,0-.71.5.5,0,0,1,.7,0L22,262.81a.51.51,0,0,1,0,.71A.51.51,0,0,1,21.63,263.67Z"/><path class="cls-6" d="M19.56,263.67a.49.49,0,0,1-.35-.15.5.5,0,0,1,0-.71l2.07-2.07a.5.5,0,0,1,.71.71l-2.08,2.07A.47.47,0,0,1,19.56,263.67Z"/><path class="cls-6" d="M30.85,270.73a.54.54,0,0,1-.36-.14l-2.07-2.08a.48.48,0,0,1,0-.7.5.5,0,0,1,.71,0l2.07,2.07a.51.51,0,0,1,0,.71A.54.54,0,0,1,30.85,270.73Z"/><path class="cls-6" d="M28.77,270.73a.52.52,0,0,1-.35-.14.5.5,0,0,1,0-.71l2.07-2.07a.5.5,0,0,1,.71,0,.5.5,0,0,1,0,.7l-2.07,2.08A.54.54,0,0,1,28.77,270.73Z"/></svg>