<svg id="Capa_1" data-name="Capa 1" xmlns="http://www.w3.org/2000/svg" viewBox="0 0 109.35 93.84"><defs><style>.cls-1{fill:#00a34e;}.cls-2{fill:#1b3760;}</style></defs><title>Mesa de trabajo 5_1</title><circle class="cls-1" cx="40.45" cy="39.82" r="17.25"/><path class="cls-2" d="M40.45,93.84a.5.5,0,0,1-.5-.5V34.79a.5.5,0,0,1,.5-.5.51.51,0,0,1,.5.5V93.34A.51.51,0,0,1,40.45,93.84Z"/><path class="cls-2" d="M40.45,57.57a.57.57,0,0,1-.28-.08A.5.5,0,0,1,40,56.8l7.18-11a.5.5,0,0,1,.69-.15.51.51,0,0,1,.15.7l-7.19,11A.48.48,0,0,1,40.45,57.57Z"/><path class="cls-2" d="M40.45,44.87a.5.5,0,0,1-.34-.13L32,37.42a.5.5,0,0,1,.67-.75L40.78,44a.5.5,0,0,1-.33.87Z"/><circle class="cls-1" cx="16.54" cy="16.54" r="16.54"/><circle class="cls-1" cx="16.54" cy="39.34" r="16.54"/><path class="cls-2" d="M16.54,93.74a.5.5,0,0,1-.5-.5V9.34a.51.51,0,0,1,.5-.5.5.5,0,0,1,.5.5v83.9A.5.5,0,0,1,16.54,93.74Z"/><path class="cls-2" d="M16.54,41.77a.51.51,0,0,1-.42-.23L5.83,25.84A.5.5,0,0,1,6,25.15a.49.49,0,0,1,.69.14L17,41a.51.51,0,0,1-.14.7A.57.57,0,0,1,16.54,41.77Z"/><path class="cls-2" d="M16.54,23.57a.5.5,0,0,1-.33-.87l11.6-10.5a.5.5,0,1,1,.67.74l-11.6,10.5A.5.5,0,0,1,16.54,23.57Z"/><path class="cls-1" d="M102.7,78.12c0-9.45-8.08-5.42-8.08-10.69,0-3.43-1.13-10.25-6.65-10.5v0a3.39,3.39,0,0,1-.52,0v0c-5.51.25-6.65,7.07-6.65,10.5,0,5.27-8.08,1.24-8.08,10.69,0,5.71-6.64,0-6.64,10.38h43.27C109.35,78.12,102.7,83.83,102.7,78.12Z"/></svg>