<svg id="Capa_1" data-name="Capa 1" xmlns="http://www.w3.org/2000/svg" viewBox="0 0 407.3 473.22"><defs><style>.cls-1{fill:#e3e4e2;}.cls-2{fill:#3663ac;}.cls-3{fill:#1b3861;}.cls-4{fill:#7bbe78;}.cls-5{fill:#fafafa;}.cls-6{fill:#00a54e;}</style></defs><title>Mesa de trabajo 3</title><path class="cls-1" d="M407.3,80.54V473.22c-.42-.08-.84-.17-1.26-.28a27.16,27.16,0,0,1-20.7-26.39V427.68c0-15-8.74-23.75-23.75-23.75l-334.42,2.8A27.18,27.18,0,0,1,0,379.56V114.43C0,99.42,11.5,81,26.51,81H366.17c1.38,0,21.05-.42,39.87-.49Z"/><rect class="cls-2" x="72.95" y="40.94" width="334.35" height="139.77"/><rect class="cls-3" x="72.95" y="40.94" width="334.35" height="25.06"/><path class="cls-4" d="M193,40.93V66a39.16,39.16,0,0,0-61.54-1.55,39.15,39.15,0,0,0-58.5-2V40.93Z"/><path class="cls-4" d="M407.3,40.94V66c-.41-.54-.82-1.07-1.26-1.59a38.43,38.43,0,0,0-3.57-3.76,39.17,39.17,0,0,0-54.16,1,37.48,37.48,0,0,0-2.55,2.79,34.73,34.73,0,0,0-2.45-2.69,39.15,39.15,0,0,0-56.05.65V40.94Z"/><path class="cls-2" d="M287.26,23.93V180.71H193V23.93l19.1,0c5.25-10.88,14.67-18.46,28-18.46s23.21,7.72,28.48,18.61Z"/><path class="cls-2" d="M287.26,19.3v4.63l-18.65.17c-5.27-10.89-15.1-18.61-28.48-18.61s-22.79,7.58-28,18.46l-19.1,0V19.3h17a33.22,33.22,0,0,1,60.33,0Z"/><path class="cls-4" d="M287.26,23.93V180.71H193V23.93l19.1,0c5.25-10.88,14.67-18.46,28-18.46s23.21,7.72,28.48,18.61Z"/><path class="cls-2" d="M240.13,102.53a29.67,29.67,0,0,0-29.67,29.67v48.51h59.33V132.2a29.67,29.67,0,0,0-29.66-29.67Z"/><path class="cls-3" d="M240.13,26.16A14.78,14.78,0,1,0,254.9,40.94,14.8,14.8,0,0,0,240.13,26.16Zm.5,28.54h-1a13.8,13.8,0,0,1-13.27-13.26c0-.17,0-.33,0-.5s0-.33,0-.5a13.8,13.8,0,0,1,13.27-13.27h1a13.8,13.8,0,0,1,13.26,13.27c0,.17,0,.33,0,.5s0,.33,0,.5A13.8,13.8,0,0,1,240.63,54.7Z"/><rect class="cls-3" x="225.85" y="40.43" width="28.55" height="1"/><rect class="cls-3" x="239.63" y="26.66" width="1" height="28.55"/><rect class="cls-4" x="286.57" y="120.75" width="120.73" height="13.43"/><rect class="cls-4" x="72.95" y="120.75" width="120.04" height="13.43"/><rect class="cls-3" x="124.77" y="66" width="13.44" height="114.71"/><rect class="cls-3" x="338.64" y="66" width="13.44" height="114.71"/><path class="cls-3" d="M73.12,99.53v21.72h52.15V99.53Zm1,1h50.15v19.72H74.12Z"/><rect class="cls-3" x="78.4" y="100.03" width="1" height="20.72"/><rect class="cls-3" x="83.48" y="100.03" width="1" height="20.72"/><rect class="cls-3" x="88.55" y="100.03" width="1" height="20.72"/><rect class="cls-3" x="93.62" y="100.03" width="1" height="20.72"/><rect class="cls-3" x="98.69" y="100.03" width="1" height="20.72"/><rect class="cls-3" x="103.76" y="100.03" width="1" height="20.72"/><rect class="cls-3" x="108.84" y="100.03" width="1" height="20.72"/><rect class="cls-3" x="113.91" y="100.03" width="1" height="20.72"/><rect class="cls-3" x="118.98" y="100.03" width="1" height="20.72"/><path class="cls-3" d="M137.71,99.53v21.72h54.75V99.53Zm1,1h52.75v19.72H138.71Z"/><rect class="cls-3" x="143.26" y="100.03" width="1" height="20.72"/><rect class="cls-3" x="148.59" y="100.03" width="1" height="20.72"/><rect class="cls-3" x="153.92" y="100.03" width="1" height="20.72"/><rect class="cls-3" x="159.25" y="100.03" width="1" height="20.72"/><rect class="cls-3" x="164.58" y="100.03" width="1" height="20.72"/><rect class="cls-3" x="169.91" y="100.03" width="1" height="20.72"/><rect class="cls-3" x="175.24" y="100.03" width="1" height="20.72"/><rect class="cls-3" x="180.57" y="100.03" width="1" height="20.72"/><rect class="cls-3" x="185.9" y="100.03" width="1" height="20.72"/><path class="cls-3" d="M287.37,99.53v21.72h51.77V99.53Zm1,1h49.77v19.72H288.37Z"/><rect class="cls-3" x="292.61" y="100.03" width="1" height="20.72"/><rect class="cls-3" x="297.65" y="100.03" width="1" height="20.72"/><rect class="cls-3" x="302.68" y="100.03" width="1" height="20.72"/><rect class="cls-3" x="307.72" y="100.03" width="1" height="20.72"/><rect class="cls-3" x="312.75" y="100.03" width="1" height="20.72"/><rect class="cls-3" x="317.79" y="100.03" width="1" height="20.72"/><rect class="cls-3" x="322.82" y="100.03" width="1" height="20.72"/><rect class="cls-3" x="327.86" y="100.03" width="1" height="20.72"/><rect class="cls-3" x="332.89" y="100.03" width="1" height="20.72"/><path class="cls-3" d="M351.58,99.53v21.72H407V99.53Zm1,1H406v19.72H352.58Z"/><rect class="cls-3" x="357.21" y="100.03" width="1" height="20.72"/><rect class="cls-3" x="362.61" y="100.03" width="1" height="20.72"/><rect class="cls-3" x="368.01" y="100.03" width="1" height="20.72"/><rect class="cls-3" x="373.41" y="100.03" width="1" height="20.72"/><rect class="cls-3" x="378.81" y="100.03" width="1" height="20.72"/><rect class="cls-3" x="384.21" y="100.03" width="1" height="20.72"/><rect class="cls-3" x="389.61" y="100.03" width="1" height="20.72"/><rect class="cls-3" x="395.02" y="100.03" width="1" height="20.72"/><rect class="cls-3" x="400.42" y="100.03" width="1" height="20.72"/><path class="cls-5" d="M211.86,72.61v5.93h10.76V72.61Zm9.76,4.93h-8.76V73.61h8.76Z"/><path class="cls-5" d="M207.35,77.42v5.93h10.76V77.42Zm9.76,4.93h-8.76V78.42h8.76Z"/><path class="cls-5" d="M264.41,87.12v5.94h10.76V87.12Zm9.76,4.94h-8.76V88.12h8.76Z"/><path class="cls-5" d="M253.9,87.12v5.94h10.76V87.12Zm9.76,4.94H254.9V88.12h8.76Z"/><path class="cls-5" d="M201.85,72.61v5.93h10.76V72.61Zm1,4.93V73.61h8.76v3.93Z"/><path class="cls-3" d="M407.3,206.16v45.45H57.36c0-23.57,15.48-42.94,35.28-45.22l2-.17,2-.06Z"/><path class="cls-3" d="M30.28,233.34H84.64a45.45,45.45,0,0,1,45.45,45.45v0a0,0,0,0,1,0,0H30.28a0,0,0,0,1,0,0V233.34a0,0,0,0,1,0,0Z" transform="translate(-175.88 336.25) rotate(-90)"/><circle class="cls-3" cx="80.18" cy="310.72" r="45.88"/><rect class="cls-5" x="356.17" y="228.14" width="28.29" height="4.13"/><rect class="cls-5" x="286.55" y="228.14" width="28.29" height="4.13"/><rect class="cls-5" x="216.94" y="228.14" width="28.29" height="4.13"/><rect class="cls-5" x="147.32" y="228.14" width="28.29" height="4.13"/><path class="cls-5" d="M102.91,280.47A37.84,37.84,0,1,0,118,310.72,37.68,37.68,0,0,0,102.91,280.47Zm-22.73,67.1A36.83,36.83,0,1,1,117,310.72,36.89,36.89,0,0,1,80.18,347.57Z"/><path class="cls-6" d="M247.32,323.82c0-9.45-8.08-5.41-8.08-10.69,0-3.42-1.13-10.25-6.65-10.5v0h-.52v0c-5.52.25-6.65,7.08-6.65,10.5,0,5.28-8.08,1.24-8.08,10.69,0,5.71-6.64,0-6.64,10.39H254C254,323.82,247.32,329.53,247.32,323.82Z"/><path class="cls-1" d="M223.71,329.31a.5.5,0,0,1-.35-.15l-2.07-2.07a.5.5,0,0,1,0-.71.5.5,0,0,1,.7,0l2.08,2.08a.5.5,0,0,1,0,.7A.51.51,0,0,1,223.71,329.31Z"/><path class="cls-1" d="M221.64,329.31a.47.47,0,0,1-.35-.15.48.48,0,0,1,0-.7l2.07-2.08a.5.5,0,0,1,.71.71L222,329.16A.47.47,0,0,1,221.64,329.31Z"/><path class="cls-1" d="M232.33,316.22a.46.46,0,0,1-.35-.14L229.9,314a.51.51,0,0,1,0-.71.5.5,0,0,1,.71,0l2.07,2.07a.5.5,0,0,1,0,.71A.46.46,0,0,1,232.33,316.22Z"/><path class="cls-1" d="M230.26,316.22a.5.5,0,0,1-.36-.14.51.51,0,0,1,0-.71L232,313.3a.48.48,0,0,1,.7,0,.5.5,0,0,1,0,.71l-2.07,2.07A.49.49,0,0,1,230.26,316.22Z"/><path class="cls-1" d="M241.54,323.29a.49.49,0,0,1-.35-.15l-2.07-2.07a.5.5,0,0,1,0-.71.5.5,0,0,1,.7,0l2.08,2.08a.5.5,0,0,1,0,.7A.51.51,0,0,1,241.54,323.29Z"/><path class="cls-1" d="M239.47,323.29a.47.47,0,0,1-.35-.15.48.48,0,0,1,0-.7l2.07-2.08a.5.5,0,0,1,.71.71l-2.08,2.07A.49.49,0,0,1,239.47,323.29Z"/></svg>