<svg id="Capa_1" data-name="Capa 1" xmlns="http://www.w3.org/2000/svg" viewBox="0 0 432.18 775.34"><defs><style>.cls-1{fill:#b1d7b0;}.cls-2{fill:#1b3861;}.cls-3{fill:#3663ac;}.cls-4{fill:#fff;}.cls-5{fill:#e3e4e2;}.cls-6{fill:#7bbe78;}.cls-7{fill:#fafafa;}.cls-8{fill:#00a54e;}</style></defs><title>Artboard 1</title><path class="cls-1" d="M432.55,319.7V542.93a46.2,46.2,0,0,1-46.21,46.21H209.06a49.67,49.67,0,0,0-49.67,49.68v90.27a46.21,46.21,0,0,1-46.21,46.21H.36V273.48h386A46.21,46.21,0,0,1,432.55,319.7Z"/><path class="cls-2" d="M175.72,71.37l-.79.5h15.54l-.79.5H250l.79-.5.79-.5Zm0,0-.79.5h15.54l-.79.5H250l.79-.5.79-.5Zm0,0-.79.5h15.54l-.79.5H250l.79-.5.79-.5Zm0,0-.79.5h15.54l-.79.5H250l.79-.5.79-.5Zm0,0-.79.5h15.54l-.79.5H250l.79-.5.79-.5ZM274.37.14a.49.49,0,0,0-.51,0L161.37,71.45a.47.47,0,0,0-.23.42.34.34,0,0,0,0,.14.5.5,0,0,0,.48.36H274.12a.52.52,0,0,0,.38-.17l.08-.13a.45.45,0,0,0,0-.2V.58A.52.52,0,0,0,274.37.14Zm-.75,1.35V71.37H163.36Zm-97.9,69.88-.79.5h15.54l-.79.5H250l.79-.5.79-.5Zm0,0-.79.5h15.54l-.79.5H250l.79-.5.79-.5Zm0,0-.79.5h15.54l-.79.5H250l.79-.5.79-.5Zm0,0-.79.5h15.54l-.79.5H250l.79-.5.79-.5Z"/><path class="cls-2" d="M166.77,76.93a.52.52,0,0,1-.42-.24.49.49,0,0,1,.16-.69L273.85,8.23a.51.51,0,0,1,.69.16.5.5,0,0,1-.15.69L167,76.85A.5.5,0,0,1,166.77,76.93Z"/><path class="cls-2" d="M166.77,86.74a.51.51,0,0,1-.42-.23.49.49,0,0,1,.16-.69L273.85,18.05a.5.5,0,0,1,.54.85L167,86.67A.5.5,0,0,1,166.77,86.74Z"/><path class="cls-2" d="M166.77,96.56a.51.51,0,0,1-.42-.23.49.49,0,0,1,.16-.69L273.85,27.87a.49.49,0,0,1,.69.16.5.5,0,0,1-.15.69L167,96.48A.43.43,0,0,1,166.77,96.56Z"/><path class="cls-2" d="M166.77,106.38a.51.51,0,0,1-.42-.23.49.49,0,0,1,.16-.69L273.85,37.69a.5.5,0,0,1,.54.84L167,106.3A.5.5,0,0,1,166.77,106.38Z"/><path class="cls-2" d="M166.77,116.2a.52.52,0,0,1-.42-.24.49.49,0,0,1,.16-.69L273.85,47.51a.5.5,0,0,1,.54.84L167,116.12A.5.5,0,0,1,166.77,116.2Z"/><path class="cls-2" d="M166.77,126a.51.51,0,0,1-.42-.23.49.49,0,0,1,.16-.69L273.85,57.32a.51.51,0,0,1,.69.16.5.5,0,0,1-.15.69L167,125.94A.5.5,0,0,1,166.77,126Z"/><path class="cls-2" d="M166.77,135.83a.51.51,0,0,1-.42-.23.49.49,0,0,1,.16-.69L273.85,67.14a.49.49,0,0,1,.69.16.5.5,0,0,1-.15.69L167,135.76A.5.5,0,0,1,166.77,135.83Z"/><rect class="cls-2" x="160.93" y="71.87" width="113.65" height="452.69"/><polygon class="cls-3" points="160.93 71.87 274.58 71.87 160.93 524.56 160.93 71.87"/><rect class="cls-4" x="160.93" y="85.74" width="113.2" height="1"/><rect class="cls-4" x="160.93" y="100.95" width="113.2" height="1"/><rect class="cls-4" x="160.93" y="116.15" width="113.2" height="1"/><rect class="cls-4" x="160.93" y="131.36" width="113.2" height="1"/><rect class="cls-4" x="160.93" y="146.56" width="113.2" height="1"/><rect class="cls-4" x="160.93" y="161.77" width="113.2" height="1"/><rect class="cls-4" x="160.93" y="176.97" width="113.2" height="1"/><rect class="cls-4" x="160.93" y="192.18" width="113.2" height="1"/><rect class="cls-4" x="160.93" y="207.39" width="113.2" height="1"/><rect class="cls-4" x="160.93" y="222.59" width="113.2" height="1"/><rect class="cls-4" x="160.93" y="237.8" width="113.2" height="1"/><rect class="cls-4" x="160.93" y="253" width="113.2" height="1"/><rect class="cls-4" x="160.93" y="268.21" width="113.2" height="1"/><rect class="cls-4" x="160.93" y="283.41" width="113.2" height="1"/><rect class="cls-4" x="160.93" y="298.62" width="113.2" height="1"/><rect class="cls-4" x="160.93" y="313.82" width="113.2" height="1"/><rect class="cls-4" x="160.93" y="329.03" width="113.2" height="1"/><rect class="cls-4" x="160.93" y="344.23" width="113.2" height="1"/><rect class="cls-4" x="160.93" y="359.44" width="113.2" height="1"/><rect class="cls-4" x="160.93" y="374.64" width="113.2" height="1"/><rect class="cls-4" x="160.93" y="389.85" width="113.2" height="1"/><rect class="cls-4" x="160.93" y="405.06" width="113.2" height="1"/><rect class="cls-4" x="160.93" y="420.26" width="113.2" height="1"/><rect class="cls-4" x="160.93" y="435.47" width="113.2" height="1"/><rect class="cls-4" x="160.93" y="450.67" width="113.2" height="1"/><rect class="cls-4" x="160.93" y="465.88" width="113.2" height="1"/><rect class="cls-4" x="160.93" y="481.08" width="113.2" height="1"/><rect class="cls-4" x="160.93" y="496.29" width="113.2" height="1"/><rect class="cls-4" x="160.93" y="511.49" width="113.2" height="1"/><rect class="cls-5" x="0.36" y="183.29" width="175.52" height="341.27"/><path class="cls-2" d="M175.38,273.48V451.67h.5V273.48Zm0,0V451.67h.5V273.48Zm0,0V451.67h.5V273.48ZM.33,182.8v.49h0v.51h175V524.06H.36v1h176V182.8Zm175,90.68V451.67h.5V273.48Zm0,0V451.67h.5V273.48Z"/><rect class="cls-6" x="87.13" y="174.69" width="88.85" height="1"/><rect class="cls-6" x="87.13" y="171.88" width="88.85" height="1"/><rect class="cls-6" x="87.13" y="167.65" width="89.99" height="1"/><polygon class="cls-6" points="176.48 183.29 175.48 183.29 175.5 172.25 177.56 164.59 87.13 164.59 87.13 163.59 178.87 163.59 176.48 172.45 176.48 183.29"/><rect class="cls-6" x="0.33" y="174.69" width="88.35" height="1"/><rect class="cls-6" x="0.36" y="171.88" width="88.32" height="1"/><rect class="cls-6" x="0.36" y="167.65" width="88.32" height="1"/><rect class="cls-6" x="0.36" y="163.59" width="88.32" height="1"/><path class="cls-2" d="M27,211.16v43.75H49.65V211.16Zm21.68,42.75H28V212.16H48.65Z"/><rect class="cls-2" x="25.76" y="210.23" width="25.11" height="1.43"/><rect class="cls-2" x="25.76" y="254.41" width="25.11" height="2.29"/><polygon class="cls-2" points="50.87 210.44 25.76 210.44 23.32 208.19 53.31 208.19 50.87 210.44"/><rect class="cls-2" x="27.47" y="217.47" width="21.69" height="1"/><rect class="cls-2" x="27.47" y="225" width="21.69" height="1"/><rect class="cls-2" x="27.47" y="232.53" width="21.69" height="1"/><rect class="cls-2" x="27.47" y="240.05" width="21.69" height="1"/><rect class="cls-2" x="27.47" y="247.58" width="21.69" height="1"/><rect class="cls-2" x="34.44" y="211.67" width="1" height="42.75"/><rect class="cls-2" x="41.19" y="211.67" width="1" height="42.75"/><path class="cls-2" d="M76.52,211.16v43.75H99.21V211.16Zm21.69,42.75H77.52V212.16H98.21Z"/><rect class="cls-2" x="75.32" y="210.23" width="25.11" height="1.43"/><rect class="cls-2" x="75.32" y="254.41" width="25.11" height="2.29"/><polygon class="cls-2" points="100.43 210.44 75.32 210.44 72.87 208.19 102.87 208.19 100.43 210.44"/><rect class="cls-2" x="77.03" y="217.47" width="21.69" height="1"/><rect class="cls-2" x="77.03" y="225" width="21.69" height="1"/><rect class="cls-2" x="77.03" y="232.53" width="21.69" height="1"/><rect class="cls-2" x="77.03" y="240.05" width="21.69" height="1"/><rect class="cls-2" x="77.03" y="247.58" width="21.69" height="1"/><rect class="cls-2" x="84" y="211.67" width="1" height="42.75"/><rect class="cls-2" x="90.75" y="211.67" width="1" height="42.75"/><path class="cls-2" d="M126.08,211.16v43.75h22.69V211.16Zm21.69,42.75H127.08V212.16h20.69Z"/><rect class="cls-2" x="124.87" y="210.23" width="25.11" height="1.43"/><rect class="cls-2" x="124.87" y="254.41" width="25.11" height="2.29"/><polygon class="cls-2" points="149.99 210.44 124.87 210.44 122.43 208.19 152.43 208.19 149.99 210.44"/><rect class="cls-2" x="126.59" y="217.47" width="21.69" height="1"/><rect class="cls-2" x="126.59" y="225" width="21.69" height="1"/><rect class="cls-2" x="126.59" y="232.53" width="21.69" height="1"/><rect class="cls-2" x="126.59" y="240.05" width="21.69" height="1"/><rect class="cls-2" x="126.59" y="247.58" width="21.69" height="1"/><rect class="cls-2" x="133.55" y="211.67" width="1" height="42.75"/><rect class="cls-2" x="140.31" y="211.67" width="1" height="42.75"/><path class="cls-2" d="M27,289.87v43.75H49.65V289.87Zm21.68,42.75H28V290.87H48.65Z"/><rect class="cls-2" x="25.76" y="288.94" width="25.11" height="1.43"/><rect class="cls-2" x="25.76" y="333.11" width="25.11" height="2.29"/><polygon class="cls-2" points="50.87 289.15 25.76 289.15 23.32 286.89 53.31 286.89 50.87 289.15"/><rect class="cls-2" x="27.47" y="296.18" width="21.69" height="1"/><rect class="cls-2" x="27.47" y="303.71" width="21.69" height="1"/><rect class="cls-2" x="27.47" y="311.23" width="21.69" height="1"/><rect class="cls-2" x="27.47" y="318.76" width="21.69" height="1"/><rect class="cls-2" x="27.47" y="326.29" width="21.69" height="1"/><rect class="cls-2" x="34.44" y="290.38" width="1" height="42.75"/><rect class="cls-2" x="41.19" y="290.38" width="1" height="42.75"/><path class="cls-2" d="M76.52,289.87v43.75H99.21V289.87Zm21.69,42.75H77.52V290.87H98.21Z"/><rect class="cls-2" x="75.32" y="288.94" width="25.11" height="1.43"/><rect class="cls-2" x="75.32" y="333.11" width="25.11" height="2.29"/><polygon class="cls-2" points="100.43 289.15 75.32 289.15 72.87 286.89 102.87 286.89 100.43 289.15"/><rect class="cls-2" x="77.03" y="296.18" width="21.69" height="1"/><rect class="cls-2" x="77.03" y="303.71" width="21.69" height="1"/><rect class="cls-2" x="77.03" y="311.23" width="21.69" height="1"/><rect class="cls-2" x="77.03" y="318.76" width="21.69" height="1"/><rect class="cls-2" x="77.03" y="326.29" width="21.69" height="1"/><rect class="cls-2" x="84" y="290.38" width="1" height="42.75"/><rect class="cls-2" x="90.75" y="290.38" width="1" height="42.75"/><path class="cls-2" d="M126.08,289.87v43.75h22.69V289.87Zm21.69,42.75H127.08V290.87h20.69Z"/><rect class="cls-2" x="124.87" y="288.94" width="25.11" height="1.43"/><rect class="cls-2" x="124.87" y="333.11" width="25.11" height="2.29"/><polygon class="cls-2" points="149.99 289.15 124.87 289.15 122.43 286.89 152.43 286.89 149.99 289.15"/><rect class="cls-2" x="126.59" y="296.18" width="21.69" height="1"/><rect class="cls-2" x="126.59" y="303.71" width="21.69" height="1"/><rect class="cls-2" x="126.59" y="311.23" width="21.69" height="1"/><rect class="cls-2" x="126.59" y="318.76" width="21.69" height="1"/><rect class="cls-2" x="126.59" y="326.29" width="21.69" height="1"/><rect class="cls-2" x="133.55" y="290.38" width="1" height="42.75"/><rect class="cls-2" x="140.31" y="290.38" width="1" height="42.75"/><path class="cls-2" d="M27,368.58v43.74H49.65V368.58Zm21.68,42.74H28V369.58H48.65Z"/><rect class="cls-2" x="25.76" y="367.65" width="25.11" height="1.43"/><rect class="cls-2" x="25.76" y="411.82" width="25.11" height="2.29"/><polygon class="cls-2" points="50.87 367.86 25.76 367.86 23.32 365.6 53.31 365.6 50.87 367.86"/><rect class="cls-2" x="27.47" y="374.89" width="21.69" height="1"/><rect class="cls-2" x="27.47" y="382.41" width="21.69" height="1"/><rect class="cls-2" x="27.47" y="389.94" width="21.69" height="1"/><rect class="cls-2" x="27.47" y="397.47" width="21.69" height="1"/><rect class="cls-2" x="27.47" y="404.99" width="21.69" height="1"/><rect class="cls-2" x="34.44" y="369.09" width="1" height="42.75"/><rect class="cls-2" x="41.19" y="369.09" width="1" height="42.75"/><path class="cls-2" d="M76.52,368.58v43.74H99.21V368.58Zm21.69,42.74H77.52V369.58H98.21Z"/><rect class="cls-2" x="75.32" y="367.65" width="25.11" height="1.43"/><rect class="cls-2" x="75.32" y="411.82" width="25.11" height="2.29"/><polygon class="cls-2" points="100.43 367.86 75.32 367.86 72.87 365.6 102.87 365.6 100.43 367.86"/><rect class="cls-2" x="77.03" y="374.89" width="21.69" height="1"/><rect class="cls-2" x="77.03" y="382.41" width="21.69" height="1"/><rect class="cls-2" x="77.03" y="389.94" width="21.69" height="1"/><rect class="cls-2" x="77.03" y="397.47" width="21.69" height="1"/><rect class="cls-2" x="77.03" y="404.99" width="21.69" height="1"/><rect class="cls-2" x="84" y="369.09" width="1" height="42.75"/><rect class="cls-2" x="90.75" y="369.09" width="1" height="42.75"/><path class="cls-2" d="M126.08,368.58v43.74h22.69V368.58Zm21.69,42.74H127.08V369.58h20.69Z"/><rect class="cls-2" x="124.87" y="367.65" width="25.11" height="1.43"/><rect class="cls-2" x="124.87" y="411.82" width="25.11" height="2.29"/><polygon class="cls-2" points="149.99 367.86 124.87 367.86 122.43 365.6 152.43 365.6 149.99 367.86"/><rect class="cls-2" x="126.59" y="374.89" width="21.69" height="1"/><rect class="cls-2" x="126.59" y="382.41" width="21.69" height="1"/><rect class="cls-2" x="126.59" y="389.94" width="21.69" height="1"/><rect class="cls-2" x="126.59" y="397.47" width="21.69" height="1"/><rect class="cls-2" x="126.59" y="404.99" width="21.69" height="1"/><rect class="cls-2" x="133.55" y="369.09" width="1" height="42.75"/><rect class="cls-2" x="140.31" y="369.09" width="1" height="42.75"/><path class="cls-2" d="M76.52,444.36v43.75H99.21V444.36Zm21.69,42.75H77.52V445.36H98.21Z"/><rect class="cls-2" x="75.32" y="443.43" width="25.11" height="1.43"/><rect class="cls-2" x="75.32" y="487.61" width="25.11" height="2.29"/><polygon class="cls-2" points="100.43 443.64 75.32 443.64 72.87 441.39 102.87 441.39 100.43 443.64"/><rect class="cls-2" x="77.03" y="450.67" width="21.69" height="1"/><rect class="cls-2" x="77.03" y="458.2" width="21.69" height="1"/><rect class="cls-2" x="77.03" y="465.72" width="21.69" height="1"/><rect class="cls-2" x="77.03" y="473.25" width="21.69" height="1"/><rect class="cls-2" x="77.03" y="480.78" width="21.69" height="1"/><rect class="cls-2" x="84" y="444.87" width="1" height="42.75"/><rect class="cls-2" x="90.75" y="444.87" width="1" height="42.75"/><path class="cls-2" d="M20.65,443.66v70.68H56V443.66ZM55,513.34H21.65V444.66H55Z"/><rect class="cls-2" x="19.04" y="441.22" width="38.54" height="2.94"/><polygon class="cls-2" points="57.58 441.44 19.04 441.42 17.57 439.17 58.9 439.19 57.58 441.44"/><path class="cls-2" d="M55,452.77c-1.73-3.84-6-6.87-11.3-8.11a19.68,19.68,0,0,0-3-.5h-.09a20.62,20.62,0,0,0-2.24-.11,18.46,18.46,0,0,0-2.12.11H36.1a21.26,21.26,0,0,0-3.16.5c-5.34,1.23-9.56,4.26-11.29,8.09a9.28,9.28,0,0,0-.86,3.89v.5h35v-.5A9.37,9.37,0,0,0,55,452.77Zm-33.17,3.37c.21-3.55,2.72-6.69,6.5-8.72.3-.17.61-.32.94-.47h0a21.47,21.47,0,0,1,8.48-1.89h1a21.57,21.57,0,0,1,8.53,1.84c.33.15.64.31.94.47h0c3.83,2,6.38,5.19,6.6,8.77Z"/><polygon class="cls-2" points="38.74 457.85 28.05 447.16 28.76 446.45 37.74 455.43 37.74 444.55 38.74 444.55 38.74 457.85"/><rect class="cls-2" x="36.2" y="451.21" width="13.94" height="1" transform="translate(-306.76 162.83) rotate(-45)"/><path class="cls-2" d="M23.85,459.78V483h7.72V459.78ZM30.57,482H24.85V460.78h5.72Z"/><path class="cls-2" d="M34.45,459.78V483h7.72V459.78ZM41.17,482H35.45V460.78h5.72Z"/><path class="cls-2" d="M45.05,459.78V483h7.72V459.78ZM51.77,482H46.05V460.78h5.72Z"/><path class="cls-2" d="M126.08,444.36v43.75h22.69V444.36Zm21.69,42.75H127.08V445.36h20.69Z"/><rect class="cls-2" x="124.87" y="443.43" width="25.11" height="1.43"/><rect class="cls-2" x="124.87" y="487.61" width="25.11" height="2.29"/><polygon class="cls-2" points="149.99 443.64 124.87 443.64 122.43 441.39 152.43 441.39 149.99 443.64"/><rect class="cls-2" x="126.59" y="450.67" width="21.69" height="1"/><rect class="cls-2" x="126.59" y="458.2" width="21.69" height="1"/><rect class="cls-2" x="126.59" y="465.72" width="21.69" height="1"/><rect class="cls-2" x="126.59" y="473.25" width="21.69" height="1"/><rect class="cls-2" x="126.59" y="480.78" width="21.69" height="1"/><rect class="cls-2" x="133.55" y="444.87" width="1" height="42.75"/><rect class="cls-2" x="140.31" y="444.87" width="1" height="42.75"/><polygon class="cls-4" points="113.13 256.68 62.61 256.68 62.61 233.03 65.44 233.03 113.13 233.03 113.13 256.68"/><path class="cls-2" d="M62.11,232.53v24.65h51.52V232.53Zm50.52,23.65H63.11V233.53h49.52Z"/><rect class="cls-2" x="64.44" y="233.03" width="1" height="23.65"/><rect class="cls-2" x="67.14" y="233.03" width="1" height="23.65"/><rect class="cls-2" x="69.84" y="233.03" width="1" height="23.65"/><rect class="cls-2" x="72.54" y="233.03" width="1" height="23.65"/><rect class="cls-2" x="75.23" y="233.03" width="1" height="23.65"/><rect class="cls-2" x="77.93" y="233.03" width="1" height="23.65"/><rect class="cls-2" x="80.63" y="233.03" width="1" height="23.65"/><rect class="cls-2" x="83.33" y="233.03" width="1" height="23.65"/><rect class="cls-2" x="86.02" y="233.03" width="1" height="23.65"/><rect class="cls-2" x="88.72" y="233.03" width="1" height="23.65"/><rect class="cls-2" x="91.42" y="233.03" width="1" height="23.65"/><rect class="cls-2" x="94.12" y="233.03" width="1" height="23.65"/><rect class="cls-2" x="96.82" y="233.03" width="1" height="23.65"/><rect class="cls-2" x="99.51" y="233.03" width="1" height="23.65"/><rect class="cls-2" x="102.21" y="233.03" width="1" height="23.65"/><rect class="cls-2" x="104.91" y="233.03" width="1" height="23.65"/><rect class="cls-2" x="107.61" y="233.03" width="1" height="23.65"/><rect class="cls-2" x="110.3" y="233.03" width="1" height="23.65"/><polygon class="cls-4" points="113.13 335.38 62.61 335.38 62.61 311.73 65.44 311.73 113.13 311.73 113.13 335.38"/><path class="cls-2" d="M62.11,311.24v24.64h51.52V311.24Zm50.52,23.64H63.11V312.24h49.52Z"/><rect class="cls-2" x="64.44" y="311.73" width="1" height="23.65"/><rect class="cls-2" x="67.14" y="311.73" width="1" height="23.65"/><rect class="cls-2" x="69.84" y="311.73" width="1" height="23.65"/><rect class="cls-2" x="72.54" y="311.73" width="1" height="23.65"/><rect class="cls-2" x="75.23" y="311.73" width="1" height="23.65"/><rect class="cls-2" x="77.93" y="311.73" width="1" height="23.65"/><rect class="cls-2" x="80.63" y="311.73" width="1" height="23.65"/><rect class="cls-2" x="83.33" y="311.73" width="1" height="23.65"/><rect class="cls-2" x="86.02" y="311.73" width="1" height="23.65"/><rect class="cls-2" x="88.72" y="311.73" width="1" height="23.65"/><rect class="cls-2" x="91.42" y="311.73" width="1" height="23.65"/><rect class="cls-2" x="94.12" y="311.73" width="1" height="23.65"/><rect class="cls-2" x="96.82" y="311.73" width="1" height="23.65"/><rect class="cls-2" x="99.51" y="311.73" width="1" height="23.65"/><rect class="cls-2" x="102.21" y="311.73" width="1" height="23.65"/><rect class="cls-2" x="104.91" y="311.73" width="1" height="23.65"/><rect class="cls-2" x="107.61" y="311.73" width="1" height="23.65"/><rect class="cls-2" x="110.3" y="311.73" width="1" height="23.65"/><polygon class="cls-4" points="113.13 414.11 62.61 414.11 62.61 390.46 65.44 390.46 113.13 390.46 113.13 414.11"/><path class="cls-2" d="M62.11,390v24.65h51.52V390Zm50.52,23.65H63.11V391h49.52Z"/><rect class="cls-2" x="64.44" y="390.46" width="1" height="23.65"/><rect class="cls-2" x="67.14" y="390.46" width="1" height="23.65"/><rect class="cls-2" x="69.84" y="390.46" width="1" height="23.65"/><rect class="cls-2" x="72.54" y="390.46" width="1" height="23.65"/><rect class="cls-2" x="75.23" y="390.46" width="1" height="23.65"/><rect class="cls-2" x="77.93" y="390.46" width="1" height="23.65"/><rect class="cls-2" x="80.63" y="390.46" width="1" height="23.65"/><rect class="cls-2" x="83.33" y="390.46" width="1" height="23.65"/><rect class="cls-2" x="86.02" y="390.46" width="1" height="23.65"/><rect class="cls-2" x="88.72" y="390.46" width="1" height="23.65"/><rect class="cls-2" x="91.42" y="390.46" width="1" height="23.65"/><rect class="cls-2" x="94.12" y="390.46" width="1" height="23.65"/><rect class="cls-2" x="96.82" y="390.46" width="1" height="23.65"/><rect class="cls-2" x="99.51" y="390.46" width="1" height="23.65"/><rect class="cls-2" x="102.21" y="390.46" width="1" height="23.65"/><rect class="cls-2" x="104.91" y="390.46" width="1" height="23.65"/><rect class="cls-2" x="107.61" y="390.46" width="1" height="23.65"/><rect class="cls-2" x="110.3" y="390.46" width="1" height="23.65"/><polygon class="cls-6" points="176.32 177.99 176.32 184.34 0.36 184.34 0.36 183.29 0.33 183.29 0.33 177.99 176.32 177.99"/><rect class="cls-2" x="15.46" y="508.35" width="45.9" height="9.53"/><rect class="cls-2" x="7.11" y="517.88" width="62.4" height="9.53"/><rect class="cls-6" x="262.15" y="257.22" width="116.8" height="267.34"/><path class="cls-7" d="M284,436.6h-7V389.28h11.26a52.57,52.57,0,0,1-6.55,23.41A102.69,102.69,0,0,1,284,436.6Z"/><path class="cls-7" d="M294.13,436.6h7V389.28H289.91a52.57,52.57,0,0,0,6.55,23.41A102.69,102.69,0,0,0,294.13,436.6Z"/><path class="cls-7" d="M345,319.4h-7V272.07h11.26a52.6,52.6,0,0,1-6.55,23.42A102.69,102.69,0,0,1,345,319.4Z"/><path class="cls-7" d="M355.05,319.4h7V272.07H350.83a52.6,52.6,0,0,0,6.55,23.42A102.69,102.69,0,0,0,355.05,319.4Z"/><polygon class="cls-2" points="320.55 242.12 247.55 242.12 262.15 257.73 320.55 257.73 378.95 257.73 393.55 242.12 320.55 242.12"/><rect class="cls-3" x="252.23" y="246.62" width="136.65" height="1"/><rect class="cls-3" x="257.62" y="252.16" width="125.86" height="1"/><path class="cls-2" d="M276.5,271.57V319.4h25.16V271.57Zm24.16,46.83H277.5V272.57h23.16Z"/><rect class="cls-2" x="277" y="274.73" width="24.17" height="1"/><rect class="cls-2" x="277" y="278.13" width="24.17" height="1"/><rect class="cls-2" x="277" y="281.54" width="24.17" height="1"/><rect class="cls-2" x="277" y="284.94" width="24.17" height="1"/><rect class="cls-2" x="277" y="288.35" width="24.17" height="1"/><rect class="cls-2" x="277" y="291.75" width="24.17" height="1"/><rect class="cls-2" x="277" y="295.16" width="24.17" height="1"/><rect class="cls-2" x="277" y="298.57" width="24.17" height="1"/><rect class="cls-2" x="277" y="301.97" width="24.17" height="1"/><path class="cls-2" d="M307,271.57V319.4h25.16V271.57Zm24.16,46.83H308V272.57h23.16Z"/><rect class="cls-2" x="307.46" y="274.73" width="24.17" height="1"/><rect class="cls-2" x="307.46" y="278.13" width="24.17" height="1"/><rect class="cls-2" x="307.46" y="281.54" width="24.17" height="1"/><rect class="cls-2" x="307.46" y="284.94" width="24.17" height="1"/><rect class="cls-2" x="307.46" y="288.35" width="24.17" height="1"/><rect class="cls-2" x="307.46" y="291.75" width="24.17" height="1"/><rect class="cls-2" x="307.46" y="295.16" width="24.17" height="1"/><rect class="cls-2" x="307.46" y="298.57" width="24.17" height="1"/><rect class="cls-2" x="307.46" y="301.97" width="24.17" height="1"/><path class="cls-2" d="M337.42,271.57V319.4h25.16V271.57Zm24.16,46.83H338.42V272.57h23.16Z"/><rect class="cls-2" x="337.92" y="295.16" width="24.17" height="1"/><path class="cls-2" d="M276.5,330.2V378h25.16V330.2ZM300.66,377H277.5V331.2h23.16Z"/><rect class="cls-2" x="277" y="333.35" width="24.17" height="1"/><rect class="cls-2" x="277" y="336.76" width="24.17" height="1"/><rect class="cls-2" x="277" y="340.16" width="24.17" height="1"/><rect class="cls-2" x="277" y="343.57" width="24.17" height="1"/><rect class="cls-2" x="277" y="353.79" width="24.17" height="1"/><path class="cls-2" d="M307,330.2V378h25.16V330.2ZM331.12,377H308V331.2h23.16Z"/><rect class="cls-2" x="307.46" y="333.35" width="24.17" height="1"/><rect class="cls-2" x="307.46" y="336.76" width="24.17" height="1"/><rect class="cls-2" x="307.46" y="340.16" width="24.17" height="1"/><rect class="cls-2" x="307.46" y="343.57" width="24.17" height="1"/><rect class="cls-2" x="307.46" y="346.97" width="24.17" height="1"/><rect class="cls-2" x="307.46" y="350.38" width="24.17" height="1"/><rect class="cls-2" x="307.46" y="353.79" width="24.17" height="1"/><rect class="cls-2" x="307.46" y="357.19" width="24.17" height="1"/><rect class="cls-2" x="307.46" y="360.6" width="24.17" height="1"/><path class="cls-2" d="M337.42,330.2V378h25.16V330.2Zm1,1h23.16V377H338.42Z"/><rect class="cls-2" x="337.92" y="333.35" width="24.17" height="1"/><rect class="cls-2" x="337.92" y="336.76" width="24.17" height="1"/><rect class="cls-2" x="337.92" y="340.16" width="24.17" height="1"/><rect class="cls-2" x="337.92" y="343.57" width="24.17" height="1"/><rect class="cls-2" x="337.92" y="346.97" width="24.17" height="1"/><rect class="cls-2" x="337.92" y="350.38" width="24.17" height="1"/><rect class="cls-2" x="337.92" y="353.79" width="24.17" height="1"/><rect class="cls-2" x="337.92" y="357.19" width="24.17" height="1"/><rect class="cls-2" x="337.92" y="360.6" width="24.17" height="1"/><rect class="cls-2" x="337.92" y="364" width="24.17" height="1"/><rect class="cls-2" x="337.92" y="367.41" width="24.17" height="1"/><rect class="cls-2" x="337.92" y="370.81" width="24.17" height="1"/><rect class="cls-2" x="337.92" y="374.22" width="24.17" height="1"/><path class="cls-2" d="M276.5,388.83v47.82h25.16V388.83Zm24.16,46.82H277.5V389.83h23.16Z"/><rect class="cls-2" x="277" y="412.41" width="24.17" height="1"/><path class="cls-2" d="M307,388.83v47.82h25.16V388.83Zm24.16,46.82H308V389.83h23.16Z"/><rect class="cls-2" x="307.46" y="412.41" width="24.17" height="1"/><path class="cls-2" d="M337.42,388.83v47.82h25.16V388.83Zm24.16,46.82H338.42V389.83h23.16Z"/><rect class="cls-2" x="337.92" y="391.98" width="24.17" height="1"/><rect class="cls-2" x="337.92" y="395.38" width="24.17" height="1"/><rect class="cls-2" x="337.92" y="398.79" width="24.17" height="1"/><rect class="cls-2" x="337.92" y="402.19" width="24.17" height="1"/><rect class="cls-2" x="337.92" y="405.6" width="24.17" height="1"/><rect class="cls-2" x="337.92" y="409.01" width="24.17" height="1"/><rect class="cls-2" x="337.92" y="412.41" width="24.17" height="1"/><rect class="cls-2" x="337.92" y="415.82" width="24.17" height="1"/><rect class="cls-2" x="337.92" y="419.22" width="24.17" height="1"/><rect class="cls-2" x="337.92" y="422.63" width="24.17" height="1"/><path class="cls-2" d="M276.5,447.45v47.82h25.16V447.45Zm24.16,46.82H277.5V448.45h23.16Z"/><rect class="cls-2" x="277" y="450.6" width="24.17" height="1"/><rect class="cls-2" x="277" y="454.01" width="24.17" height="1"/><rect class="cls-2" x="277" y="457.41" width="24.17" height="1"/><rect class="cls-2" x="277" y="460.82" width="24.17" height="1"/><rect class="cls-2" x="277" y="470.86" width="24.17" height="1"/><path class="cls-2" d="M307,447.45v47.82h25.16V447.45Zm24.16,46.82H308V448.45h23.16Z"/><rect class="cls-2" x="307.46" y="450.6" width="24.17" height="1"/><rect class="cls-2" x="307.46" y="454.01" width="24.17" height="1"/><rect class="cls-2" x="307.46" y="457.41" width="24.17" height="1"/><rect class="cls-2" x="307.46" y="460.82" width="24.17" height="1"/><rect class="cls-2" x="307.46" y="464.23" width="24.17" height="1"/><rect class="cls-2" x="307.46" y="467.63" width="24.17" height="1"/><rect class="cls-2" x="307.46" y="471.04" width="24.17" height="1"/><path class="cls-2" d="M337.42,447.45v47.82h25.16V447.45Zm24.16,46.82H338.42V448.45h23.16Z"/><rect class="cls-2" x="337.92" y="450.6" width="24.17" height="1"/><rect class="cls-2" x="337.92" y="454.01" width="24.17" height="1"/><rect class="cls-2" x="337.92" y="457.41" width="24.17" height="1"/><rect class="cls-2" x="337.92" y="460.82" width="24.17" height="1"/><rect class="cls-2" x="337.92" y="464.23" width="24.17" height="1"/><rect class="cls-2" x="337.92" y="467.63" width="24.17" height="1"/><rect class="cls-2" x="337.92" y="471.04" width="24.17" height="1"/><rect class="cls-2" x="273.49" y="316.62" width="92.09" height="2.78"/><rect class="cls-2" x="273.49" y="375.22" width="92.09" height="2.78"/><rect class="cls-2" x="273.49" y="433.86" width="92.09" height="2.78"/><rect class="cls-2" x="273.49" y="492.49" width="92.09" height="2.78"/><path class="cls-8" d="M175,508.77v.07c0,1.47-.06,2.89-.17,4.25,0,.5-.09,1-.14,1.47l0,.23c-.07.58-.15,1.14-.24,1.69,0,.26-.08.51-.13.76s-.07.42-.11.63c-.17.9-.38,1.74-.6,2.52-.06.22-.13.43-.19.64s-.17.51-.26.75-.28.75-.43,1.08l-.29.62a8.3,8.3,0,0,1-.86,1.35,4.12,4.12,0,0,1-.28.31c-.55,0-1.12,0-1.69,0s-1.14,0-1.69,0c0,0,0,0,0,0a7,7,0,0,1-1.09-1.62c-.13-.25-.26-.52-.38-.81l-.18-.45c-.13-.32-.25-.65-.36-1s-.25-.77-.35-1.19c-.19-.68-.36-1.4-.5-2.16,0-.2-.08-.4-.11-.61a5.4,5.4,0,0,1-.1-.58c-.09-.48-.16-1-.22-1.48,0-.2-.05-.41-.08-.62-.07-.71-.14-1.43-.19-2.18-.08-1.16-.12-2.37-.12-3.61v-.36a48.88,48.88,0,0,1,.71-8.15c.93-5.21,2.69-8.72,4.71-8.72s3.83,3.6,4.74,8.93A47.81,47.81,0,0,1,175,508.77Z"/><ellipse class="cls-8" cx="164.91" cy="509.82" rx="5.42" ry="17.24" transform="translate(-232.81 150.76) rotate(-30)"/><ellipse class="cls-8" cx="161.39" cy="513.06" rx="5.42" ry="17.24" transform="translate(-363.63 396.29) rotate(-60)"/><ellipse class="cls-8" cx="159.96" cy="517.62" rx="17.24" ry="5.42"/><ellipse class="cls-8" cx="178.43" cy="518.39" rx="17.24" ry="5.42"/><ellipse class="cls-8" cx="177.38" cy="513.72" rx="17.24" ry="5.42" transform="translate(-233.09 157.52) rotate(-30)"/><path class="cls-8" d="M167.7,525.14h0l.13,0a8.55,8.55,0,0,0,2-1.12c.3-.22.61-.46.93-.73l.59-.52.5-.46c.32-.32.66-.66,1-1l.76-.85c.3-.35.61-.71.91-1.09s.7-.87,1-1.34l.53-.72.63-.91c.31-.45.61-.91.92-1.38.4-.64.8-1.3,1.19-2l0-.06a48.62,48.62,0,0,0,3.57-7.53c1.87-5.07,2.13-9.08.35-10.1s-5,1.15-8.44,5.19a48.05,48.05,0,0,0-4.68,6.7l-.19.32c-.62,1.07-1.19,2.14-1.71,3.18-.32.67-.63,1.33-.91,2s-.51,1.2-.73,1.78c0,.07,0,.14-.08.2-.15.39-.28.77-.41,1.14s-.33,1-.46,1.47c-.07.21-.12.41-.17.61-.12.42-.22.83-.3,1.22-.11.55-.2,1.07-.26,1.56,0,.31-.06.61-.07.89a7.41,7.41,0,0,0,0,1.35,5.4,5.4,0,0,0,.09.6,2.5,2.5,0,0,0,.89,1.54Z"/><path class="cls-8" d="M186.81,519.74c0,1.59-2.16,3-5.61,4a41.19,41.19,0,0,1-9.93,1.39c-.55,0-1.12,0-1.69,0s-1.14,0-1.69,0h-.39l-1.91-.11h-.23a32,32,0,0,1-9.88-2.14c-2-.89-3.14-2-3.14-3.13,0-.9.7-1.75,1.95-2.5a12.65,12.65,0,0,1,2-1,27.83,27.83,0,0,1,5.41-1.36c.89-.15,1.82-.27,2.79-.37l1.63-.13.71,0,.29,0c.81,0,1.64,0,2.48,0s1.92,0,2.84.07l.68,0,1,.07.64.06c1,.1,2,.23,2.92.39a26.35,26.35,0,0,1,5.65,1.5,10.84,10.84,0,0,1,1.6.79C186.1,518,186.81,518.84,186.81,519.74Z"/><path class="cls-3" d="M275.51,513.77c0-9.45-8.08-5.42-8.08-10.7,0-3.42-1.13-10.24-6.65-10.49v0h-.52v0c-5.51.25-6.65,7.07-6.65,10.49,0,5.28-8.08,1.25-8.08,10.7,0,5.7-6.64,0-6.64,10.38h43.27C282.16,513.77,275.51,519.47,275.51,513.77Z"/><circle class="cls-8" cx="169.94" cy="448.98" r="28.56"/><path class="cls-2" d="M169.94,538.08a.5.5,0,0,1-.5-.5V440.67a.5.5,0,0,1,1,0v96.91A.5.5,0,0,1,169.94,538.08Z"/><path class="cls-2" d="M169.94,478a.5.5,0,0,1-.42-.22l-11.88-18.14a.5.5,0,0,1,.14-.69.49.49,0,0,1,.69.14l11.89,18.14a.5.5,0,0,1-.14.69A.48.48,0,0,1,169.94,478Z"/><path class="cls-2" d="M169.94,457a.51.51,0,0,1-.37-.17.49.49,0,0,1,0-.7L183,444a.5.5,0,1,1,.67.74l-13.4,12.13A.5.5,0,0,1,169.94,457Z"/></svg>