<svg id="Capa_1" data-name="Capa 1" xmlns="http://www.w3.org/2000/svg" viewBox="0 0 353.6 432.8"><defs><style>.cls-1{fill:#3e63a6;}.cls-2{fill:#21375e;}.cls-3{fill:#89bb7e;}.cls-4{fill:#fff;}</style></defs><title>Mesa de trabajo 1</title><path class="cls-1" d="M196.06,93.94q0,4.45-.37,8.81c-3.94,47.38-39.42,84.46-82.61,84.46-42.36,0-77.3-35.67-82.35-81.74a104.29,104.29,0,0,1-.63-11.53c0-51.51,37.15-93.26,83-93.26a74.83,74.83,0,0,1,28,5.46C173.14,19,196.06,53.48,196.06,93.94Z"/><path class="cls-2" d="M141.09,5.54A94.14,94.14,0,0,1,134.39,36,94.61,94.61,0,0,1,46.62,95.26a93.44,93.44,0,0,1-15.89-1.34A83,83,0,0,1,127.59,2,80.3,80.3,0,0,1,141.09,5.54Z"/><path class="cls-2" d="M196.06,83.66c0,2.64-.12,5.26-.37,7.84A94.8,94.8,0,0,1,134.39,36a94,94,0,0,1-6.8-34,80.3,80.3,0,0,1,13.5,3.59A83,83,0,0,1,196.06,83.66Z"/><ellipse class="cls-1" cx="26.78" cy="108.95" rx="15.2" ry="22.29" transform="translate(-29.49 11.89) rotate(-16.29)"/><ellipse class="cls-1" cx="196.58" cy="108.95" rx="22.29" ry="15.2" transform="translate(36.85 267.07) rotate(-73.71)"/><path class="cls-3" d="M230.08,317.87V432.7H.43V317.87a114.83,114.83,0,0,1,229.65,0Z"/><path class="cls-1" d="M165.19,214.44,113.08,343,64.93,214.64a115.1,115.1,0,0,1,100.26-.2Z"/><rect class="cls-4" x="100.28" y="209.25" width="29.94" height="29.94" transform="translate(192.3 -15.82) rotate(45)"/><polygon class="cls-4" points="115.25 245.39 94.27 292.84 113.08 342.95 134.3 290.61 115.25 245.39"/><path class="cls-2" d="M351.68,66.55,313.13,28a6.53,6.53,0,0,0-9.22,0L282.7,49.21V33.83H268.33V63.59l-3,3a6.48,6.48,0,0,0-1.91,4.61v55.78a6.51,6.51,0,0,0,6.52,6.52h77.09a6.52,6.52,0,0,0,6.52-6.52V71.16A6.52,6.52,0,0,0,351.68,66.55Z"/><circle class="cls-4" cx="285.85" cy="96.56" r="7.88"/><circle class="cls-4" cx="308.52" cy="96.56" r="7.88"/><circle class="cls-4" cx="331.19" cy="96.56" r="7.88"/><path class="cls-2" d="M275.94,129.82s8.61,18.47-6.57,27.08c0,0,24.5-.12,24.36-23.44Z"/></svg>