<svg id="Capa_1" data-name="Capa 1" xmlns="http://www.w3.org/2000/svg" viewBox="0 0 229.65 462.82"><defs><style>.cls-1{fill:#1c4982;}.cls-2{fill:#21375e;}.cls-3{fill:#fff;}.cls-4{fill:#3e63a6;}.cls-5{fill:#43a057;}.cls-6{fill:#89bb7e;}</style></defs><title>Mesa de trabajo 5</title><path class="cls-1" d="M229.65,348V462.82H0V348a114.83,114.83,0,0,1,229.65,0Z"/><path class="cls-2" d="M164.76,244.56,112.65,373.07,64.5,244.76a115.1,115.1,0,0,1,100.26-.2Z"/><rect class="cls-3" x="99.86" y="239.37" width="29.94" height="29.94" transform="translate(213.48 -6.7) rotate(45)"/><polygon class="cls-3" points="114.83 275.51 93.84 322.96 112.65 373.07 135.38 324.29 114.83 275.51"/><path class="cls-4" d="M197.81,124.06q0,4.45-.37,8.81c-3.94,47.38-39.42,84.45-82.61,84.45-42.36,0-77.3-35.66-82.35-81.73a104.29,104.29,0,0,1-.63-11.53c0-51.51,37.15-93.26,83-93.26a74.31,74.31,0,0,1,28,5.46C174.89,49.16,197.81,83.6,197.81,124.06Z"/><path class="cls-2" d="M142.84,35.66a94.52,94.52,0,0,1-94.47,89.72A93.44,93.44,0,0,1,32.48,124a83,83,0,0,1,96.86-92A80.3,80.3,0,0,1,142.84,35.66Z"/><path class="cls-2" d="M197.81,113.78c0,2.64-.12,5.26-.37,7.84a94.8,94.8,0,0,1-61.3-55.5,94,94,0,0,1-6.8-34.05,80.3,80.3,0,0,1,13.5,3.59A83,83,0,0,1,197.81,113.78Z"/><ellipse class="cls-4" cx="28.53" cy="139.07" rx="15.2" ry="22.29" transform="translate(-37.87 13.59) rotate(-16.29)"/><ellipse class="cls-4" cx="198.33" cy="139.07" rx="22.29" ry="15.2" transform="translate(9.2 290.42) rotate(-73.71)"/><path class="cls-5" d="M202.67,101.63H24.11a105,105,0,0,1,2.94-24.79,98.14,98.14,0,0,1,31.51-51.9A84.4,84.4,0,0,1,113.38,4.46c21.4,0,41,8.19,56.41,21.85a98.63,98.63,0,0,1,30.59,53.38A105.34,105.34,0,0,1,202.67,101.63Z"/><rect class="cls-6" x="15.46" y="72.9" width="194.53" height="13.59"/><rect class="cls-6" x="98.65" width="32.35" height="72.9"/><path class="cls-6" d="M58.56,24.94v51.9H27.05A98.14,98.14,0,0,1,58.56,24.94Z"/><path class="cls-6" d="M200.42,79.69h-30.1V26.31A99,99,0,0,1,200.42,79.69Z"/></svg>