<svg id="Capa_1" data-name="Capa 1" xmlns="http://www.w3.org/2000/svg" viewBox="0 0 392.27 567.97"><defs><style>.cls-1{fill:#3e63a4;}.cls-2{fill:#21375e;}.cls-3{fill:#99c7b1;}.cls-4{fill:#fff;}</style></defs><title>Mesa de trabajo 3</title><path class="cls-1" d="M195.63,229.21c0,3-.12,5.92-.37,8.82-3.94,47.37-39.42,84.45-82.61,84.45-42.36,0-77.3-35.66-82.35-81.73a104.61,104.61,0,0,1-.63-11.54c0-51.5,37.15-93.26,83-93.26a74.83,74.83,0,0,1,28,5.46C172.71,154.32,195.63,188.75,195.63,229.21Z"/><path class="cls-2" d="M140.66,140.81a94.52,94.52,0,0,1-94.47,89.72,93.44,93.44,0,0,1-15.89-1.34,83,83,0,0,1,96.86-92A80.3,80.3,0,0,1,140.66,140.81Z"/><path class="cls-2" d="M195.63,218.93c0,2.64-.12,5.26-.37,7.84a94.46,94.46,0,0,1-68.1-89.55,80.3,80.3,0,0,1,13.5,3.59A83,83,0,0,1,195.63,218.93Z"/><ellipse class="cls-1" cx="26.35" cy="244.23" rx="15.2" ry="22.29" transform="translate(-67.46 17.2) rotate(-16.29)"/><ellipse class="cls-1" cx="196.15" cy="244.23" rx="22.29" ry="15.2" transform="matrix(0.28, -0.96, 0.96, 0.28, -93.3, 363.98)"/><path class="cls-3" d="M229.65,453.14V568H0V453.14a114.83,114.83,0,0,1,229.65,0Z"/><path class="cls-1" d="M164.76,349.71,112.65,478.22,64.5,349.91a115.1,115.1,0,0,1,100.26-.2Z"/><rect class="cls-4" x="99.86" y="344.52" width="29.94" height="29.94" transform="translate(287.83 24.1) rotate(45)"/><polygon class="cls-4" points="114.83 380.66 93.84 428.11 112.65 478.22 133.88 425.88 114.83 380.66"/><rect class="cls-2" x="265.31" y="128.61" width="39.38" height="39.38" rx="19.69" ry="19.69"/><rect class="cls-2" x="244.97" y="163.98" width="24.34" height="24.34" rx="12.17" ry="12.17"/><rect class="cls-2" x="229.93" y="188.18" width="15.04" height="15.04" rx="7.52" ry="7.52"/><path class="cls-2" d="M366.39,51.13A34.47,34.47,0,0,0,332.08,20l-.94,0a34.48,34.48,0,1,0-62.05,30c-.46,0-.92,0-1.39,0a34.48,34.48,0,0,0,0,69h90.09a34.48,34.48,0,0,0,8.6-67.87Z"/><path class="cls-4" d="M288.63,49.92V76.31l24-26.39Zm2,1.75h17.87L290.65,71.34Z"/><polygon class="cls-4" points="342.38 103.79 283.11 103.79 283.11 100.56 280.49 100.56 280.49 106.41 345 106.41 345 100.56 342.38 100.56 342.38 103.79"/><polygon class="cls-4" points="342.38 66.21 342.38 79.18 330.52 79.18 330.52 60.24 327.9 60.24 327.9 79.18 301.33 79.18 301.33 81.8 310.5 81.8 310.5 95.17 312.73 95.17 312.73 81.8 342.38 81.8 342.38 87.02 345 87.02 345 66.21 342.38 66.21"/><polygon class="cls-4" points="342.7 55.41 344.69 55.41 344.69 42.4 334.04 42.4 334.04 44.38 342.7 44.38 342.7 55.41"/><path class="cls-4" d="M280.76,42V97l50.06-55Zm1.93,43.33V44.44l.16-.53h43.72L282.69,92.12Z"/></svg>