<svg id="Capa_1" data-name="Capa 1" xmlns="http://www.w3.org/2000/svg" xmlns:xlink="http://www.w3.org/1999/xlink" viewBox="0 0 66.44 66.44"><defs><style>.cls-1{fill:none;}.cls-2{clip-path:url(#clip-path);}.cls-3{fill:#010101;}</style><clipPath id="clip-path"><rect class="cls-1" width="66.44" height="66.44"/></clipPath></defs><title>Mesa de trabajo 3_1</title><g class="cls-2"><path class="cls-3" d="M33.22,0A33.22,33.22,0,1,0,66.44,33.22,33.24,33.24,0,0,0,33.22,0m0,62.79A29.57,29.57,0,1,1,62.79,33.22,29.64,29.64,0,0,1,33.22,62.79"/><path class="cls-3" d="M46.21,32,27.09,21a1.33,1.33,0,0,0-1.46,0,1.51,1.51,0,0,0-.73,1.24V44.24a1.4,1.4,0,0,0,.73,1.24,1.32,1.32,0,0,0,1.46,0l19.12-11a1.5,1.5,0,0,0,.73-1.24A1.41,1.41,0,0,0,46.21,32"/></g></svg>