<svg id="Capa_1" data-name="Capa 1" xmlns="http://www.w3.org/2000/svg" viewBox="0 0 197.65 282.5"><defs><style>.cls-1{fill:#7bbe78;}.cls-2{fill:#fafafa;}.cls-3{fill:#1b3861;}.cls-4{fill:#3663ac;}.cls-5{fill:#00a54e;}.cls-6{fill:#fff;}.cls-7{fill:#e3e4e2;}</style></defs><title>Artboard 1</title><rect class="cls-1" x="14.6" y="15.11" width="116.8" height="267.34"/><path class="cls-2" d="M36.49,194.49h-7V147.16H40.71a52.57,52.57,0,0,1-6.55,23.41A102.79,102.79,0,0,1,36.49,194.49Z"/><path class="cls-2" d="M46.58,194.49h7V147.16H42.36a52.57,52.57,0,0,0,6.55,23.41A102.79,102.79,0,0,0,46.58,194.49Z"/><path class="cls-2" d="M97.41,77.29h-7V30h11.26a52.57,52.57,0,0,1-6.55,23.41A102.79,102.79,0,0,1,97.41,77.29Z"/><path class="cls-2" d="M107.5,77.29h7V30H103.28a52.57,52.57,0,0,0,6.55,23.41A102.79,102.79,0,0,0,107.5,77.29Z"/><polygon class="cls-3" points="73 0 0 0 14.6 15.61 73 15.61 131.41 15.61 146 0 73 0"/><rect class="cls-4" x="4.68" y="4.5" width="136.65" height="1"/><rect class="cls-4" x="10.07" y="10.04" width="125.86" height="1"/><path class="cls-3" d="M54.12,77.28H29V29.46H54.12ZM30,76.28H53.12V30.46H30Z"/><rect class="cls-3" x="29.45" y="32.61" width="24.17" height="1"/><rect class="cls-3" x="29.45" y="36.02" width="24.17" height="1"/><rect class="cls-3" x="29.45" y="39.42" width="24.17" height="1"/><rect class="cls-3" x="29.45" y="42.83" width="24.17" height="1"/><rect class="cls-3" x="29.45" y="46.23" width="24.17" height="1"/><rect class="cls-3" x="29.45" y="49.64" width="24.17" height="1"/><rect class="cls-3" x="29.45" y="53.05" width="24.17" height="1"/><rect class="cls-3" x="29.45" y="56.45" width="24.17" height="1"/><rect class="cls-3" x="29.45" y="59.86" width="24.17" height="1"/><path class="cls-3" d="M84.58,77.28H59.41V29.46H84.58Zm-24.17-1H83.58V30.46H60.41Z"/><rect class="cls-3" x="59.91" y="32.61" width="24.17" height="1"/><rect class="cls-3" x="59.91" y="36.02" width="24.17" height="1"/><rect class="cls-3" x="59.91" y="39.42" width="24.17" height="1"/><rect class="cls-3" x="59.91" y="42.83" width="24.17" height="1"/><rect class="cls-3" x="59.91" y="46.23" width="24.17" height="1"/><rect class="cls-3" x="59.91" y="49.64" width="24.17" height="1"/><rect class="cls-3" x="59.91" y="53.05" width="24.17" height="1"/><rect class="cls-3" x="59.91" y="56.45" width="24.17" height="1"/><rect class="cls-3" x="59.91" y="59.86" width="24.17" height="1"/><path class="cls-3" d="M115,77.28H89.87V29.46H115Zm-24.17-1H114V30.46H90.87Z"/><rect class="cls-3" x="90.37" y="53.05" width="24.17" height="1"/><path class="cls-3" d="M54.12,135.91H29V88.09H54.12Zm-24.17-1H53.12V89.09H30Z"/><rect class="cls-3" x="29.45" y="91.24" width="24.17" height="1"/><rect class="cls-3" x="29.45" y="94.64" width="24.17" height="1"/><rect class="cls-3" x="29.45" y="98.05" width="24.17" height="1"/><rect class="cls-3" x="29.45" y="101.45" width="24.17" height="1"/><rect class="cls-3" x="29.45" y="111.67" width="24.17" height="1"/><path class="cls-3" d="M84.58,135.91H59.41V88.09H84.58Zm-24.17-1H83.58V89.09H60.41Z"/><rect class="cls-3" x="59.91" y="91.24" width="24.17" height="1"/><rect class="cls-3" x="59.91" y="94.64" width="24.17" height="1"/><rect class="cls-3" x="59.91" y="98.05" width="24.17" height="1"/><rect class="cls-3" x="59.91" y="101.45" width="24.17" height="1"/><rect class="cls-3" x="59.91" y="104.86" width="24.17" height="1"/><rect class="cls-3" x="59.91" y="108.27" width="24.17" height="1"/><rect class="cls-3" x="59.91" y="111.67" width="24.17" height="1"/><rect class="cls-3" x="59.91" y="115.08" width="24.17" height="1"/><rect class="cls-3" x="59.91" y="118.48" width="24.17" height="1"/><path class="cls-3" d="M115,135.91H89.87V88.09H115Zm-24.17-1H114V89.09H90.87Z"/><rect class="cls-3" x="90.37" y="91.24" width="24.17" height="1"/><rect class="cls-3" x="90.37" y="94.64" width="24.17" height="1"/><rect class="cls-3" x="90.37" y="98.05" width="24.17" height="1"/><rect class="cls-3" x="90.37" y="101.45" width="24.17" height="1"/><rect class="cls-3" x="90.37" y="104.86" width="24.17" height="1"/><rect class="cls-3" x="90.37" y="108.27" width="24.17" height="1"/><rect class="cls-3" x="90.37" y="111.67" width="24.17" height="1"/><rect class="cls-3" x="90.37" y="115.08" width="24.17" height="1"/><rect class="cls-3" x="90.37" y="118.48" width="24.17" height="1"/><rect class="cls-3" x="90.37" y="121.89" width="24.17" height="1"/><rect class="cls-3" x="90.37" y="125.29" width="24.17" height="1"/><rect class="cls-3" x="90.37" y="128.7" width="24.17" height="1"/><rect class="cls-3" x="90.37" y="132.11" width="24.17" height="1"/><path class="cls-3" d="M54.12,194.53H29V146.71H54.12Zm-24.17-1H53.12V147.71H30Z"/><rect class="cls-3" x="29.45" y="170.3" width="24.17" height="1"/><path class="cls-3" d="M84.58,194.53H59.41V146.71H84.58Zm-24.17-1H83.58V147.71H60.41Z"/><rect class="cls-3" x="59.91" y="170.3" width="24.17" height="1"/><path class="cls-3" d="M115,194.53H89.87V146.71H115Zm-24.17-1H114V147.71H90.87Z"/><rect class="cls-3" x="90.37" y="149.86" width="24.17" height="1"/><rect class="cls-3" x="90.37" y="153.27" width="24.17" height="1"/><rect class="cls-3" x="90.37" y="156.67" width="24.17" height="1"/><rect class="cls-3" x="90.37" y="160.08" width="24.17" height="1"/><rect class="cls-3" x="90.37" y="163.49" width="24.17" height="1"/><rect class="cls-3" x="90.37" y="166.89" width="24.17" height="1"/><rect class="cls-3" x="90.37" y="170.3" width="24.17" height="1"/><rect class="cls-3" x="90.37" y="173.7" width="24.17" height="1"/><rect class="cls-3" x="90.37" y="177.11" width="24.17" height="1"/><rect class="cls-3" x="90.37" y="180.51" width="24.17" height="1"/><path class="cls-3" d="M54.12,253.16H29V205.34H54.12Zm-24.17-1H53.12V206.34H30Z"/><rect class="cls-3" x="29.45" y="208.49" width="24.17" height="1"/><rect class="cls-3" x="29.45" y="211.89" width="24.17" height="1"/><rect class="cls-3" x="29.45" y="215.3" width="24.17" height="1"/><rect class="cls-3" x="29.45" y="218.71" width="24.17" height="1"/><rect class="cls-3" x="29.45" y="228.75" width="24.17" height="1"/><path class="cls-3" d="M84.58,253.16H59.41V205.34H84.58Zm-24.17-1H83.58V206.34H60.41Z"/><rect class="cls-3" x="59.91" y="208.49" width="24.17" height="1"/><rect class="cls-3" x="59.91" y="211.89" width="24.17" height="1"/><rect class="cls-3" x="59.91" y="215.3" width="24.17" height="1"/><rect class="cls-3" x="59.91" y="218.71" width="24.17" height="1"/><rect class="cls-3" x="59.91" y="222.11" width="24.17" height="1"/><rect class="cls-3" x="59.91" y="225.52" width="24.17" height="1"/><rect class="cls-3" x="59.91" y="228.92" width="24.17" height="1"/><path class="cls-3" d="M115,253.16H89.87V205.34H115Zm-24.17-1H114V206.34H90.87Z"/><rect class="cls-3" x="90.37" y="208.49" width="24.17" height="1"/><rect class="cls-3" x="90.37" y="211.89" width="24.17" height="1"/><rect class="cls-3" x="90.37" y="215.3" width="24.17" height="1"/><rect class="cls-3" x="90.37" y="218.71" width="24.17" height="1"/><rect class="cls-3" x="90.37" y="222.11" width="24.17" height="1"/><rect class="cls-3" x="90.37" y="225.52" width="24.17" height="1"/><rect class="cls-3" x="90.37" y="228.92" width="24.17" height="1"/><rect class="cls-3" x="25.95" y="74.5" width="92.09" height="2.78"/><rect class="cls-3" x="25.95" y="133.11" width="92.09" height="2.78"/><rect class="cls-3" x="25.95" y="191.75" width="92.09" height="2.78"/><rect class="cls-3" x="25.95" y="250.38" width="92.09" height="2.78"/><rect class="cls-4" x="66.42" y="190.31" width="116.8" height="92.13"/><polygon class="cls-3" points="193 207.6 56.64 207.6 68.72 170.8 183.22 170.8 193 207.6"/><rect class="cls-1" x="66.86" y="175.97" width="117.86" height="1"/><rect class="cls-1" x="65.19" y="181.06" width="120.89" height="1"/><rect class="cls-1" x="63.52" y="186.15" width="123.92" height="1"/><rect class="cls-1" x="61.85" y="191.25" width="126.94" height="1"/><rect class="cls-1" x="60.18" y="196.34" width="129.97" height="1"/><rect class="cls-1" x="58.5" y="201.44" width="132.99" height="1"/><polygon class="cls-4" points="124.82 208.08 109.71 208.08 117.26 194.99 124.82 181.9 132.38 194.99 139.93 208.08 124.82 208.08"/><path class="cls-3" d="M124.81,213.37a7.55,7.55,0,1,1,7.54-7.55A7.56,7.56,0,0,1,124.81,213.37Zm0-14.09a6.55,6.55,0,1,0,6.54,6.54A6.56,6.56,0,0,0,124.81,199.28Z"/><rect class="cls-5" x="116.99" y="253.16" width="15.64" height="29.28"/><polygon class="cls-3" points="135.27 282.44 134.27 282.44 134.27 251.49 115.35 251.49 115.35 282.44 114.35 282.44 114.35 250.49 135.27 250.49 135.27 282.44"/><rect class="cls-3" x="117.76" y="205.32" width="14.09" height="1"/><rect class="cls-3" x="124.31" y="198.78" width="1" height="14.09"/><path class="cls-3" d="M89,276.71H73V259.27a8,8,0,0,1,16,0c0,.13,0,.26,0,.39l0,.22Zm-15-1H88l0-15.87a5.44,5.44,0,0,0,0-.57,7,7,0,0,0-14,0c0,.19,0,.38,0,.57l0,.54H74Z"/><rect class="cls-3" x="73.51" y="258.77" width="15" height="1"/><rect class="cls-3" x="80.51" y="251.77" width="1" height="24.44"/><polygon class="cls-3" points="81.01 259.98 75.35 254.32 76.06 253.62 81.01 258.56 85.81 253.76 86.51 254.47 81.01 259.98"/><path class="cls-3" d="M111,276.71H95V259.27a8,8,0,0,1,16,0c0,.13,0,.26,0,.39v17Zm-15-1h14l0-15.87a5.44,5.44,0,0,0,0-.57,7,7,0,0,0-14,0c0,.19,0,.38,0,.57l0,.54H96Z"/><rect class="cls-3" x="95.46" y="258.77" width="15" height="1"/><rect class="cls-3" x="102.46" y="251.77" width="1" height="24.44"/><polygon class="cls-3" points="102.96 259.98 97.31 254.32 98.01 253.62 102.96 258.56 107.76 253.76 108.47 254.47 102.96 259.98"/><path class="cls-3" d="M154.56,276.71h-16V259.27a8,8,0,0,1,16,0c0,.13,0,.26,0,.4v17Zm-15-1h14l0-15.87c0-.19,0-.38,0-.57a7,7,0,0,0-14,0,5.44,5.44,0,0,0,0,.57l0,.54h-.07Z"/><rect class="cls-3" x="139.06" y="258.77" width="15" height="1"/><rect class="cls-3" x="146.06" y="251.77" width="1" height="24.44"/><polygon class="cls-3" points="146.56 259.98 140.91 254.32 141.62 253.62 146.56 258.56 151.36 253.76 152.07 254.47 146.56 259.98"/><path class="cls-3" d="M176.51,276.71h-16V259.38s0-.07,0-.11a8,8,0,0,1,16,0c0,.13,0,.26,0,.39v17Zm-15-1h14l0-15.87c0-.19,0-.38,0-.57a7,7,0,0,0-14,0,5.44,5.44,0,0,0,0,.57l0,.54h-.07Z"/><rect class="cls-3" x="161.01" y="258.77" width="15" height="1"/><rect class="cls-3" x="168.01" y="251.77" width="1" height="24.44"/><polygon class="cls-3" points="168.51 259.98 162.86 254.32 163.57 253.62 168.51 258.56 173.31 253.76 174.02 254.47 168.51 259.98"/><path class="cls-3" d="M134.77,251.49a.5.5,0,0,1-.29-.09l-9.67-6.87-9.67,6.87a.5.5,0,0,1-.7-.12.51.51,0,0,1,.12-.7l10-7.07a.51.51,0,0,1,.58,0l10,7.07a.51.51,0,0,1,.11.7A.48.48,0,0,1,134.77,251.49Z"/><path class="cls-3" d="M124.81,251.49a.5.5,0,0,1-.5-.5v-7.07a.5.5,0,0,1,.5-.5.5.5,0,0,1,.5.5V251A.5.5,0,0,1,124.81,251.49Z"/><path class="cls-3" d="M110.67,242.17l-.87-.48.21-.41.9.42A4.16,4.16,0,0,1,110.67,242.17Z"/><path class="cls-3" d="M73.29,242.17c-.08-.15-.16-.3-.23-.46l.9-.43.21.42Z"/><path class="cls-3" d="M110.46,223.05a.52.52,0,0,1-.45-.28l-.21-.42a20.16,20.16,0,0,0-35.63,0c-.07.14-.15.28-.21.42a.51.51,0,0,1-.67.23.5.5,0,0,1-.23-.67c.07-.15.15-.3.23-.45a21.15,21.15,0,0,1,37.39,0c.08.14.16.3.23.45a.5.5,0,0,1-.23.67A.59.59,0,0,1,110.46,223.05Z"/><path class="cls-3" d="M92,223.05a.5.5,0,0,1-.35-.15l-9-9a.5.5,0,0,1,0-.71.5.5,0,0,1,.7,0l9,9a.51.51,0,0,1,0,.71A.51.51,0,0,1,92,223.05Z"/><path class="cls-3" d="M92,223.05a.65.65,0,0,1-.19,0,.5.5,0,0,1-.31-.46V211.12a.5.5,0,0,1,.5-.5.5.5,0,0,1,.5.5v10.22l8.18-8.18a.51.51,0,0,1,.71,0,.5.5,0,0,1,0,.71l-9,9A.51.51,0,0,1,92,223.05Z"/><path class="cls-3" d="M176,223.05a.52.52,0,0,1-.45-.28,4.11,4.11,0,0,0-.21-.42,20.16,20.16,0,0,0-35.63,0l-.21.42a.51.51,0,0,1-.67.23.5.5,0,0,1-.23-.67c.07-.15.15-.3.23-.45a21.15,21.15,0,0,1,37.39,0c.08.14.16.3.23.45a.5.5,0,0,1-.23.67A.54.54,0,0,1,176,223.05Z"/><path class="cls-3" d="M157.54,223.05a.51.51,0,0,1-.36-.15l-9-9a.5.5,0,1,1,.71-.71l9,9a.5.5,0,0,1,0,.71A.49.49,0,0,1,157.54,223.05Z"/><path class="cls-3" d="M157.54,223.05a.71.71,0,0,1-.2,0,.51.51,0,0,1-.3-.46V211.12a.5.5,0,0,1,.5-.5.5.5,0,0,1,.5.5v10.22l8.18-8.18a.5.5,0,0,1,.7,0,.5.5,0,0,1,0,.71l-9,9A.49.49,0,0,1,157.54,223.05Z"/><path class="cls-6" d="M81.48,241.71H73.73v-19.1h7.75s-1.23,7.64-5.77,9.55A25.14,25.14,0,0,1,81.48,241.71Z"/><path class="cls-6" d="M102.46,241.71h7.75v-19.1h-7.75s1.22,7.64,5.77,9.55A25.14,25.14,0,0,0,102.46,241.71Z"/><path class="cls-6" d="M147.05,241.71H139.3v-19.1h7.75s-1.23,7.64-5.77,9.55A25.14,25.14,0,0,1,147.05,241.71Z"/><path class="cls-6" d="M168,241.71h7.76v-19.1H168s1.23,7.64,5.78,9.55A25.24,25.24,0,0,0,168,241.71Z"/><path class="cls-3" d="M110.46,242.43H73.51a.5.5,0,0,1-.5-.5V222.61a.5.5,0,0,1,.5-.5h36.95a.5.5,0,0,1,.5.5v19.32A.5.5,0,0,1,110.46,242.43Zm-36.45-1H110V223.11H74Z"/><path class="cls-3" d="M110.46,232.66H73.51a.5.5,0,0,1-.5-.5.5.5,0,0,1,.5-.5h36.95a.5.5,0,0,1,.5.5A.5.5,0,0,1,110.46,232.66Z"/><path class="cls-3" d="M176,232.66H139.06a.5.5,0,0,1-.5-.5.5.5,0,0,1,.5-.5H176a.5.5,0,0,1,.5.5A.5.5,0,0,1,176,232.66Z"/><path class="cls-3" d="M176.51,242.43H138.56V222.11h37.95Zm-36.95-1h35.95V223.11H139.56Z"/><path class="cls-6" d="M124,272h-4.57a.5.5,0,0,1-.5-.5v-9.52a.5.5,0,0,1,.5-.5H124a.5.5,0,0,1,.5.5v9.52A.5.5,0,0,1,124,272Zm-4.07-1h3.57v-8.52h-3.57Z"/><path class="cls-6" d="M130.23,272h-4.58a.5.5,0,0,1-.5-.5v-9.52a.51.51,0,0,1,.5-.5h4.58a.51.51,0,0,1,.5.5v9.52A.5.5,0,0,1,130.23,272Zm-4.08-1h3.58v-8.52h-3.58Z"/><path class="cls-6" d="M124.46,282.44h-1v-8.66h-3.57v8.66h-1v-9.16a.5.5,0,0,1,.5-.5H124a.5.5,0,0,1,.5.5Z"/><path class="cls-6" d="M130.73,282.44h-1v-8.66h-3.58v8.66h-1v-9.16a.51.51,0,0,1,.5-.5h4.58a.51.51,0,0,1,.5.5Z"/><path class="cls-6" d="M130.23,260.5H119.39a.5.5,0,0,1-.5-.5,5.92,5.92,0,1,1,11.84,0A.5.5,0,0,1,130.23,260.5Zm-10.32-1h9.79a4.92,4.92,0,0,0-9.79,0Z"/><path class="cls-5" d="M191,272.12c0-9.45-8.08-5.42-8.08-10.7,0-3.42-1.13-10.24-6.65-10.49v0l-.26,0-.26,0v0c-5.51.25-6.65,7.07-6.65,10.49,0,5.28-8.07,1.25-8.07,10.7,0,5.7-6.65,0-6.65,10.38h43.27C197.65,272.12,191,277.82,191,272.12Z"/><path class="cls-7" d="M171.18,270.38a.49.49,0,0,1-.35-.15l-2.07-2.07a.5.5,0,0,1,0-.71.48.48,0,0,1,.7,0l2.08,2.07a.51.51,0,0,1,0,.71A.51.51,0,0,1,171.18,270.38Z"/><path class="cls-7" d="M169.11,270.38a.47.47,0,0,1-.35-.15.5.5,0,0,1,0-.71l2.07-2.07a.5.5,0,0,1,.71,0,.51.51,0,0,1,0,.71l-2.08,2.07A.47.47,0,0,1,169.11,270.38Z"/><path class="cls-7" d="M185.29,277.75a.5.5,0,0,1-.35-.15l-2.07-2.07a.5.5,0,1,1,.71-.71l2.07,2.07a.51.51,0,0,1,0,.71A.51.51,0,0,1,185.29,277.75Z"/><path class="cls-7" d="M183.22,277.75a.49.49,0,0,1-.35-.15.5.5,0,0,1,0-.71l2.07-2.07a.5.5,0,0,1,.71,0,.51.51,0,0,1,0,.71l-2.07,2.07A.51.51,0,0,1,183.22,277.75Z"/><path class="cls-7" d="M164.25,280.09a.52.52,0,0,1-.35-.14l-2.08-2.08a.5.5,0,0,1,0-.7.5.5,0,0,1,.71,0l2.07,2.07a.5.5,0,0,1-.35.85Z"/><path class="cls-7" d="M162.18,280.09a.54.54,0,0,1-.36-.14.51.51,0,0,1,0-.71l2.08-2.07a.49.49,0,1,1,.7.7L162.53,280A.52.52,0,0,1,162.18,280.09Z"/><path class="cls-7" d="M181.41,262.57a.52.52,0,0,1-.35-.14L179,260.35a.5.5,0,0,1,0-.7.5.5,0,0,1,.71,0l2.07,2.07a.5.5,0,0,1-.35.85Z"/><path class="cls-7" d="M179.34,262.57a.54.54,0,0,1-.36-.14.51.51,0,0,1,0-.71l2.08-2.07a.49.49,0,0,1,.7.7l-2.07,2.08A.52.52,0,0,1,179.34,262.57Z"/><path class="cls-7" d="M179.34,273.78a.54.54,0,0,1-.36-.14l-2.07-2.08a.5.5,0,0,1,0-.7.5.5,0,0,1,.71,0l2.07,2.07a.5.5,0,0,1,0,.71A.52.52,0,0,1,179.34,273.78Z"/><path class="cls-7" d="M177.27,273.78a.54.54,0,0,1-.36-.14.51.51,0,0,1,0-.71l2.07-2.07a.5.5,0,0,1,.71,0,.48.48,0,0,1,0,.7l-2.07,2.08A.54.54,0,0,1,177.27,273.78Z"/></svg>