<svg id="Capa_1" data-name="Capa 1" xmlns="http://www.w3.org/2000/svg" xmlns:xlink="http://www.w3.org/1999/xlink" viewBox="0 0 726.44 501.81"><defs><style>.cls-1{fill:none;}.cls-2{fill:#b7d4b2;}.cls-3{fill:#43a057;}.cls-4{fill:#21375e;}.cls-5{fill:#3e63a6;}.cls-6{fill:#89bb7e;}.cls-7{fill:#fff;}.cls-8{fill:#f9f9f9;}.cls-9{fill:#e2e3e1;}.cls-10{clip-path:url(#clip-path);}.cls-11{fill:#21385e;}.cls-12{fill:#faf9f9;}</style><clipPath id="clip-path"><rect class="cls-1" x="127.23" y="367.58" width="91.75" height="91.75"/></clipPath></defs><title>Mesa de trabajo 7_1</title><path class="cls-2" d="M46.21,0H407.06a46.21,46.21,0,0,1,46.21,46.21v90.27a49.67,49.67,0,0,0,49.67,49.67H680.23a46.21,46.21,0,0,1,46.21,46.21V455.6a46.21,46.21,0,0,1-46.21,46.21H159.51a46.21,46.21,0,0,1-46.22-46.21V327.51a67.08,67.08,0,0,0-67.08-67.08h0A46.21,46.21,0,0,1,0,214.22v-168A46.21,46.21,0,0,1,46.21,0Z"/><path class="cls-3" d="M303.3,295.38v.07c0,1.47.06,2.89.17,4.25,0,.5.09,1,.14,1.47l0,.23c.07.58.15,1.14.24,1.69,0,.26.08.51.13.76s.07.42.11.63c.17.9.38,1.74.6,2.52.06.22.13.43.19.64s.17.51.26.75.28.75.43,1.08l.29.62a8.3,8.3,0,0,0,.86,1.35,4.12,4.12,0,0,0,.28.31c.55,0,1.12,0,1.69,0s1.14,0,1.69,0c0,0,0,0,0-.05a7,7,0,0,0,1.09-1.62c.13-.25.26-.52.38-.81l.18-.45c.13-.32.25-.65.36-1s.25-.77.35-1.19c.19-.68.36-1.4.5-2.16,0-.2.08-.4.11-.61a5.4,5.4,0,0,0,.1-.58c.09-.48.16-1,.22-1.48,0-.2.05-.41.08-.62.07-.71.14-1.43.19-2.18.08-1.16.12-2.37.12-3.61V295a48.88,48.88,0,0,0-.71-8.15c-.93-5.21-2.69-8.72-4.71-8.72s-3.83,3.6-4.74,8.93A47.81,47.81,0,0,0,303.3,295.38Z"/><ellipse class="cls-3" cx="313.39" cy="296.43" rx="17.24" ry="5.42" transform="matrix(0.5, -0.87, 0.87, 0.5, -100.03, 419.62)"/><ellipse class="cls-3" cx="316.91" cy="299.68" rx="17.24" ry="5.42" transform="translate(-107.38 198.6) rotate(-30)"/><ellipse class="cls-3" cx="318.34" cy="304.24" rx="17.24" ry="5.42"/><ellipse class="cls-3" cx="299.87" cy="305.01" rx="17.24" ry="5.42"/><ellipse class="cls-3" cx="300.91" cy="300.34" rx="5.42" ry="17.24" transform="translate(-109.65 410.77) rotate(-60)"/><path class="cls-3" d="M310.6,311.75h0l-.13-.05a8.55,8.55,0,0,1-2-1.12c-.3-.22-.61-.46-.93-.73l-.59-.52-.5-.46c-.32-.32-.66-.66-1-1l-.76-.85c-.3-.35-.61-.71-.91-1.09s-.7-.87-1-1.34l-.53-.72-.63-.91c-.31-.45-.61-.91-.92-1.38-.4-.64-.8-1.3-1.19-2l0-.06a48.62,48.62,0,0,1-3.57-7.53c-1.87-5.07-2.13-9.08-.35-10.1s5,1.15,8.44,5.19a48.05,48.05,0,0,1,4.68,6.7l.19.32c.62,1.07,1.19,2.14,1.71,3.18.32.67.63,1.33.91,2s.51,1.2.73,1.78c0,.07.05.14.08.2.15.39.28.77.41,1.14s.33,1,.46,1.47c.07.21.12.41.17.61.12.42.22.83.3,1.22.11.55.2,1.07.26,1.56,0,.31.06.61.07.89a7.41,7.41,0,0,1,0,1.35,5.4,5.4,0,0,1-.09.6,2.5,2.5,0,0,1-.89,1.54Z"/><path class="cls-3" d="M291.49,306.35c0,1.59,2.16,3,5.61,4a41.19,41.19,0,0,0,9.93,1.39c.55,0,1.12,0,1.69,0s1.14,0,1.69,0h.39l1.91-.11h.23a32,32,0,0,0,9.88-2.14c2-.89,3.14-2,3.14-3.13,0-.9-.7-1.75-1.95-2.5a12.65,12.65,0,0,0-2-1,27.83,27.83,0,0,0-5.41-1.36c-.89-.15-1.82-.27-2.79-.37L312.2,301l-.71,0-.29,0c-.81,0-1.64-.05-2.48-.05s-1.92,0-2.84.07l-.68,0-.95.07-.64.06c-1,.1-2,.23-2.92.39a26.35,26.35,0,0,0-5.65,1.5,10.84,10.84,0,0,0-1.6.79C292.2,304.6,291.49,305.45,291.49,306.35Z"/><circle class="cls-3" cx="369.3" cy="206.2" r="22.85"/><circle class="cls-3" cx="369.3" cy="237.69" r="22.85"/><path class="cls-4" d="M369.3,312.65a.5.5,0,0,0,.5-.5V196.25a.5.5,0,0,0-.5-.5.5.5,0,0,0-.5.5v115.9A.5.5,0,0,0,369.3,312.65Z"/><path class="cls-4" d="M369.3,240.85a.5.5,0,0,0,.42-.22l14.22-21.7a.5.5,0,0,0-.84-.55l-14.22,21.7a.5.5,0,0,0,.15.69A.45.45,0,0,0,369.3,240.85Z"/><path class="cls-4" d="M369.3,215.72a.5.5,0,0,0,.34-.87l-16-14.51a.5.5,0,0,0-.67.74l16,14.51A.51.51,0,0,0,369.3,215.72Z"/><ellipse class="cls-3" cx="325.87" cy="229.6" rx="14.76" ry="17.52"/><ellipse class="cls-3" cx="325.87" cy="253.73" rx="14.76" ry="17.52"/><path class="cls-4" d="M325.87,311.08a.5.5,0,0,0,.5-.5v-81a.5.5,0,0,0-.5-.5.51.51,0,0,0-.5.5v81A.51.51,0,0,0,325.87,311.08Z"/><path class="cls-3" d="M615,413.3v.07c0,1.47-.06,2.89-.17,4.25,0,.5-.09,1-.14,1.47l0,.23c-.07.58-.15,1.14-.24,1.69,0,.26-.08.51-.13.76s-.07.42-.11.63c-.17.9-.38,1.74-.6,2.52-.06.22-.13.43-.19.64s-.17.51-.26.75-.28.75-.43,1.08l-.29.62a8.3,8.3,0,0,1-.86,1.35,4.12,4.12,0,0,1-.28.31c-.55,0-1.12,0-1.69,0s-1.14,0-1.69,0c0,0,0,0,0-.05a7,7,0,0,1-1.09-1.62c-.13-.25-.26-.52-.38-.81l-.18-.45c-.13-.32-.25-.65-.36-1s-.25-.77-.35-1.19c-.19-.68-.36-1.4-.5-2.16,0-.2-.08-.4-.11-.61a5.4,5.4,0,0,1-.1-.58c-.09-.48-.16-1-.22-1.48,0-.2,0-.41-.08-.62-.07-.71-.14-1.43-.19-2.18-.08-1.16-.12-2.37-.12-3.61v-.36a48.88,48.88,0,0,1,.71-8.15c.93-5.21,2.69-8.72,4.71-8.72s3.83,3.6,4.74,8.93A47.81,47.81,0,0,1,615,413.3Z"/><ellipse class="cls-3" cx="604.9" cy="414.35" rx="5.42" ry="17.24" transform="translate(-126.13 357.96) rotate(-30)"/><ellipse class="cls-3" cx="601.38" cy="417.59" rx="5.42" ry="17.24" transform="matrix(0.5, -0.87, 0.87, 0.5, -60.95, 729.61)"/><ellipse class="cls-3" cx="599.95" cy="422.16" rx="17.24" ry="5.42"/><ellipse class="cls-3" cx="618.43" cy="422.92" rx="17.24" ry="5.42"/><ellipse class="cls-3" cx="617.38" cy="418.25" rx="17.24" ry="5.42" transform="translate(-126.41 364.73) rotate(-30)"/><path class="cls-3" d="M607.7,429.67h0l.13-.05a8.55,8.55,0,0,0,2-1.12c.3-.22.61-.46.93-.73l.59-.52.5-.46c.32-.32.66-.66,1-1l.76-.85c.3-.35.61-.71.91-1.09s.7-.87,1-1.34l.53-.72.63-.91c.31-.45.61-.91.92-1.38.4-.64.8-1.3,1.19-2a.21.21,0,0,0,0-.06,48.62,48.62,0,0,0,3.57-7.53c1.87-5.07,2.13-9.08.35-10.1s-5,1.15-8.44,5.19a48.05,48.05,0,0,0-4.68,6.7l-.19.32c-.62,1.07-1.19,2.14-1.71,3.18-.32.67-.63,1.33-.91,2s-.51,1.2-.73,1.78c0,.07-.05.14-.08.2-.15.39-.28.77-.41,1.14s-.33,1-.46,1.47c-.07.21-.12.41-.17.61-.12.42-.22.83-.3,1.22-.11.55-.2,1.07-.26,1.56,0,.31-.06.61-.07.89a7.41,7.41,0,0,0,0,1.35,5.4,5.4,0,0,0,.09.6,2.5,2.5,0,0,0,.89,1.54Z"/><path class="cls-3" d="M626.81,424.27c0,1.59-2.16,3-5.61,4a41.19,41.19,0,0,1-9.93,1.39c-.55,0-1.12,0-1.69,0s-1.14,0-1.69,0h-.39l-1.91-.11h-.23a32,32,0,0,1-9.88-2.14c-2-.89-3.14-2-3.14-3.13,0-.9.7-1.75,1.95-2.5a12.65,12.65,0,0,1,2-.95,27.83,27.83,0,0,1,5.41-1.36c.89-.15,1.82-.27,2.79-.37l1.63-.13.71,0,.29,0c.81,0,1.64,0,2.48,0s1.92,0,2.84.07l.68,0,.95.07.64.06c1,.1,2,.23,2.92.39a26.35,26.35,0,0,1,5.65,1.5,10.84,10.84,0,0,1,1.6.79C626.1,422.52,626.81,423.37,626.81,424.27Z"/><circle class="cls-3" cx="548.99" cy="324.11" r="22.85"/><circle class="cls-3" cx="548.99" cy="355.61" r="22.85"/><path class="cls-4" d="M549,430.57a.5.5,0,0,1-.5-.5V314.16a.5.5,0,0,1,1,0V430.07A.5.5,0,0,1,549,430.57Z"/><path class="cls-4" d="M549,358.77a.51.51,0,0,1-.42-.23l-14.21-21.69a.5.5,0,0,1,.14-.7.49.49,0,0,1,.69.15L549.41,358a.51.51,0,0,1-.15.7A.53.53,0,0,1,549,358.77Z"/><path class="cls-4" d="M549,333.63a.49.49,0,0,1-.37-.16.5.5,0,0,1,0-.71l16-14.51a.5.5,0,0,1,.67.74l-16,14.51A.5.5,0,0,1,549,333.63Z"/><ellipse class="cls-3" cx="592.42" cy="347.52" rx="14.76" ry="17.52"/><ellipse class="cls-3" cx="592.42" cy="371.65" rx="14.76" ry="17.52"/><path class="cls-4" d="M592.42,429a.5.5,0,0,1-.5-.5v-81a.5.5,0,0,1,1,0v81A.5.5,0,0,1,592.42,429Z"/><rect class="cls-5" x="158.52" y="77.65" width="116.8" height="92.13"/><polygon class="cls-4" points="285.1 94.94 148.74 94.94 160.83 58.14 275.32 58.14 285.1 94.94"/><rect class="cls-6" x="158.96" y="63.31" width="117.86" height="1"/><rect class="cls-6" x="157.29" y="68.4" width="120.89" height="1"/><rect class="cls-6" x="155.62" y="73.49" width="123.92" height="1"/><rect class="cls-6" x="153.95" y="78.59" width="126.94" height="1"/><rect class="cls-6" x="152.28" y="83.68" width="129.97" height="1"/><rect class="cls-6" x="150.61" y="88.78" width="132.99" height="1"/><polygon class="cls-5" points="216.92 95.42 201.81 95.42 209.37 82.33 216.92 69.25 224.48 82.33 232.03 95.42 216.92 95.42"/><path class="cls-4" d="M216.91,100.71a7.55,7.55,0,1,1,7.54-7.54A7.55,7.55,0,0,1,216.91,100.71Zm0-14.09a6.55,6.55,0,1,0,6.54,6.55A6.56,6.56,0,0,0,216.91,86.62Z"/><rect class="cls-3" x="209.09" y="140.5" width="15.64" height="29.28"/><polygon class="cls-4" points="227.37 169.78 226.37 169.78 226.37 138.83 207.45 138.83 207.45 169.78 206.45 169.78 206.45 137.83 227.37 137.83 227.37 169.78"/><rect class="cls-4" x="209.86" y="92.67" width="14.09" height="1"/><rect class="cls-4" x="216.41" y="86.12" width="1" height="14.09"/><path class="cls-4" d="M181.11,164.05h-16V146.61a8,8,0,0,1,16,0c0,.13,0,.27,0,.4v17Zm-15-1h14l0-15.87a5.44,5.44,0,0,0,0-.57,7,7,0,0,0-14,0c0,.19,0,.38,0,.57l.05.54h-.07Z"/><rect class="cls-4" x="165.61" y="146.11" width="15" height="1"/><rect class="cls-4" x="172.61" y="139.11" width="1" height="24.44"/><polygon class="cls-4" points="173.11 147.32 167.46 141.67 168.16 140.96 173.11 145.91 177.91 141.1 178.62 141.81 173.11 147.32"/><path class="cls-4" d="M203.06,164.05h-16V146.61a8,8,0,0,1,16,0c0,.13,0,.27,0,.4v17Zm-15-1h14l0-15.87c0-.19,0-.38,0-.57a7,7,0,0,0-14,0,5.44,5.44,0,0,0,0,.57l0,.54h-.07Z"/><rect class="cls-4" x="187.56" y="146.11" width="15" height="1"/><rect class="cls-4" x="194.56" y="139.11" width="1" height="24.44"/><polygon class="cls-4" points="195.06 147.32 189.41 141.67 190.12 140.96 195.06 145.91 199.86 141.1 200.57 141.81 195.06 147.32"/><path class="cls-4" d="M246.66,164.05h-16V146.61a8,8,0,0,1,16,0c0,.13,0,.27,0,.4v17Zm-15-1h14l0-15.87c0-.19,0-.38,0-.57a7,7,0,0,0-14,0,5.44,5.44,0,0,0,0,.57l0,.54h-.07Z"/><rect class="cls-4" x="231.16" y="146.11" width="15" height="1"/><rect class="cls-4" x="238.16" y="139.11" width="1" height="24.44"/><polygon class="cls-4" points="238.66 147.32 233.01 141.67 233.72 140.96 238.66 145.91 243.46 141.1 244.17 141.81 238.66 147.32"/><path class="cls-4" d="M268.61,164.05h-16V146.61a8,8,0,1,1,16,0c0,.13,0,.27,0,.4v17Zm-15-1h14l0-15.87c0-.19,0-.38,0-.57a7,7,0,1,0-14,0c0,.19,0,.38,0,.57l0,.54h-.06Z"/><rect class="cls-4" x="253.12" y="146.11" width="15" height="1"/><rect class="cls-4" x="260.12" y="139.11" width="1" height="24.44"/><polygon class="cls-4" points="260.62 147.32 254.96 141.67 255.67 140.96 260.62 145.91 265.42 141.1 266.12 141.81 260.62 147.32"/><path class="cls-4" d="M226.87,138.83a.52.52,0,0,1-.29-.09l-9.67-6.87-9.67,6.87a.5.5,0,1,1-.58-.81l10-7.08a.51.51,0,0,1,.58,0l10,7.08a.5.5,0,0,1,.12.69A.51.51,0,0,1,226.87,138.83Z"/><path class="cls-4" d="M216.91,138.83a.5.5,0,0,1-.5-.5v-7.07a.5.5,0,0,1,1,0v7.07A.5.5,0,0,1,216.91,138.83Z"/><path class="cls-4" d="M202.77,129.51l-.87-.48.21-.41.91.42C202.94,129.2,202.86,129.36,202.77,129.51Z"/><path class="cls-4" d="M165.39,129.51c-.08-.15-.16-.3-.23-.45l.9-.44.21.42Z"/><path class="cls-4" d="M202.56,110.39a.5.5,0,0,1-.45-.28c-.06-.14-.14-.28-.21-.42a20.15,20.15,0,0,0-35.63,0l-.21.41a.5.5,0,1,1-.9-.44c.07-.15.15-.3.23-.45a21.15,21.15,0,0,1,37.39,0c.08.14.16.3.23.45a.5.5,0,0,1-.23.67A.54.54,0,0,1,202.56,110.39Z"/><path class="cls-4" d="M184.09,110.39a.51.51,0,0,1-.36-.15l-9-9a.5.5,0,0,1,0-.71.51.51,0,0,1,.71,0l9,9a.5.5,0,0,1-.35.85Z"/><path class="cls-4" d="M184.08,110.39a.43.43,0,0,1-.19,0,.51.51,0,0,1-.31-.46V98.46a.5.5,0,0,1,.5-.5.5.5,0,0,1,.5.5v10.22l8.18-8.18a.51.51,0,0,1,.71,0,.5.5,0,0,1,0,.71l-9,9A.51.51,0,0,1,184.08,110.39Z"/><path class="cls-4" d="M268.12,110.39a.48.48,0,0,1-.45-.28c-.07-.14-.14-.28-.22-.42a20.15,20.15,0,0,0-35.62,0c-.08.13-.15.27-.22.41a.5.5,0,0,1-.67.23.51.51,0,0,1-.23-.67c.08-.15.15-.3.23-.44a21.15,21.15,0,0,1,37.39,0c.08.14.16.3.24.45a.5.5,0,0,1-.24.67A.54.54,0,0,1,268.12,110.39Z"/><path class="cls-4" d="M249.64,110.39a.47.47,0,0,1-.35-.15l-9-9a.5.5,0,0,1,.71-.71l9,9a.5.5,0,0,1-.35.85Z"/><path class="cls-4" d="M249.64,110.39a.41.41,0,0,1-.19,0,.5.5,0,0,1-.31-.46V98.46a.5.5,0,0,1,.5-.5.5.5,0,0,1,.5.5v10.22l8.18-8.18a.5.5,0,0,1,.7,0,.5.5,0,0,1,0,.71l-9,9A.47.47,0,0,1,249.64,110.39Z"/><path class="cls-7" d="M173.58,129.06h-7.75V110h7.75s-1.22,7.64-5.77,9.55A25.14,25.14,0,0,1,173.58,129.06Z"/><path class="cls-7" d="M194.56,129.06h7.75V110h-7.75s1.22,7.64,5.77,9.55A25.14,25.14,0,0,0,194.56,129.06Z"/><path class="cls-7" d="M239.15,129.06H231.4V110h7.75s-1.23,7.64-5.77,9.55A25.14,25.14,0,0,1,239.15,129.06Z"/><path class="cls-7" d="M260.13,129.06h7.75V110h-7.75s1.22,7.64,5.77,9.55A25.14,25.14,0,0,0,260.13,129.06Z"/><path class="cls-4" d="M202.56,129.77H165.61a.5.5,0,0,1-.5-.5V110a.5.5,0,0,1,.5-.5h36.95a.5.5,0,0,1,.5.5v19.32A.5.5,0,0,1,202.56,129.77Zm-36.45-1h35.95V110.45H166.11Z"/><path class="cls-4" d="M202.56,120H165.61a.5.5,0,0,1-.5-.5.5.5,0,0,1,.5-.5h36.95a.5.5,0,0,1,.5.5A.5.5,0,0,1,202.56,120Z"/><path class="cls-4" d="M268.12,120h-37a.5.5,0,0,1-.5-.5.51.51,0,0,1,.5-.5h37a.51.51,0,0,1,.5.5A.5.5,0,0,1,268.12,120Z"/><path class="cls-4" d="M268.61,129.77h-38V109.45h38Zm-37-1h36V110.45h-36Z"/><path class="cls-7" d="M216.06,159.3h-4.57a.5.5,0,0,1-.5-.5v-9.51a.5.5,0,0,1,.5-.5h4.57a.5.5,0,0,1,.5.5v9.51A.5.5,0,0,1,216.06,159.3Zm-4.07-1h3.57v-8.51H212Z"/><path class="cls-7" d="M222.33,159.3h-4.57a.5.5,0,0,1-.5-.5v-9.51a.5.5,0,0,1,.5-.5h4.57a.5.5,0,0,1,.5.5v9.51A.5.5,0,0,1,222.33,159.3Zm-4.07-1h3.57v-8.51h-3.57Z"/><path class="cls-7" d="M216.56,169.79h-1v-8.66H212v8.66h-1v-9.16a.5.5,0,0,1,.5-.5h4.57a.5.5,0,0,1,.5.5Z"/><path class="cls-7" d="M222.83,169.79h-1v-8.66h-3.57v8.66h-1v-9.16a.5.5,0,0,1,.5-.5h4.57a.5.5,0,0,1,.5.5Z"/><path class="cls-7" d="M222.33,147.84H211.49a.5.5,0,0,1-.5-.5,5.92,5.92,0,0,1,11.84,0A.5.5,0,0,1,222.33,147.84Zm-10.31-1h9.78a4.91,4.91,0,0,0-9.78,0Z"/><path class="cls-5" d="M450.61,335.88l-.89,4.18-1.58,7.41-.06.3-7.39-.17-5.05-.12-2.07-8.14h0l-.5-2-.26-1c-.76-3.57,1.48-7,4.55-7H446a4,4,0,0,1,.78.08C449.27,329.87,451.06,332.75,450.61,335.88Z"/><polygon class="cls-4" points="457.88 399.74 454.43 399.74 447.27 382.42 445.48 378.09 441.66 356.58 441.43 355.28 440.12 347.6 440.09 347.43 440.08 347.38 442 347.41 444.01 347.43 447.56 347.47 448.08 347.48 451.82 376.93 453.28 382.42 457.88 399.74"/><polygon class="cls-4" points="435.66 347.48 426.71 399.74 430.26 399.74 442 355.28 444.02 347.38 435.66 347.48"/><path class="cls-4" d="M437.09,322.36h1.63l.4,6.93h5.77l-1.14-8-.3-2.14h0c0-.05,0-.09,0-.14a2.46,2.46,0,0,0-4.88-.38.17.17,0,0,0,0,.07Z"/><path class="cls-5" d="M430.77,345.93l7.93-16h0a5.78,5.78,0,0,0-7.48,3.28l-4.17,10.64c-.58,1.48-.16,2.15,1.33,2.73C428.38,346.58,430.25,347.18,430.77,345.93Z"/><path class="cls-4" d="M430.44,343.81h0a2.69,2.69,0,0,0-3.79.18l-8.89,10,2,1.95L430,347.58A2.69,2.69,0,0,0,430.44,343.81Z"/><path class="cls-4" d="M419.73,357l-2.85,2.44a2,2,0,0,1-2.63-3.07L417.1,354a2,2,0,0,1,2.63,3.07Z"/><rect class="cls-8" x="448.07" y="399.74" width="10.68" height="1.15" rx="0.48" ry="0.48" transform="translate(906.82 800.64) rotate(180)"/><rect class="cls-8" x="419.77" y="399.74" width="10.68" height="1.15" rx="0.48" ry="0.48" transform="translate(850.22 800.64) rotate(-180)"/><path class="cls-3" d="M438.57,318.66c1.41,2.2,5.18,2.66,5.18,2.66l-.3-2.14h0c0-.05,0-.09,0-.14a2.46,2.46,0,0,0-4.88-.38Z"/><polygon class="cls-9" points="448.21 347.48 435.5 347.48 425.11 392.52 435.5 394.54 440.7 369.13 442.43 378.95 448.21 394.83 458.89 391.37 453.4 377.51 448.21 347.48"/><path class="cls-4" d="M444.84,328.93l.05.36-.25.36a3.2,3.2,0,0,1-5.52-.36h0v-.36Z"/><path class="cls-3" d="M440.7,316.59s7.51-2.31,7.51,5.77H440.7Z"/><rect class="cls-6" x="410.17" y="369.8" width="46.78" height="1" transform="translate(-22.63 712.34) rotate(-77.36)"/><rect class="cls-6" x="413.36" y="370.09" width="47.34" height="1" transform="translate(-19.47 716.91) rotate(-77.48)"/><polygon class="cls-6" points="451.44 393.82 445.12 378.17 440.73 351.72 441.72 351.56 446.09 377.95 452.37 393.44 451.44 393.82"/><polygon class="cls-6" points="455.49 392.67 449.16 377.02 443.67 347.57 444.66 347.39 450.13 376.79 456.41 392.29 455.49 392.67"/><path class="cls-5" d="M456.14,346.71h0c-1.44.69-1.51-.06-2.21-1.5l-9.11-15.35h0a5.78,5.78,0,0,1,7.71,2.7l5,10.29A2.9,2.9,0,0,1,456.14,346.71Z"/><path class="cls-4" d="M458,342.87h0a2.71,2.71,0,0,0-3.79-.29l-10.05,8.83,1.78,2.18,11.19-7A2.7,2.7,0,0,0,458,342.87Z"/><path class="cls-4" d="M441.05,353l3.05-2.19a2,2,0,0,1,2.36,3.29l-3.06,2.18a2,2,0,1,1-2.35-3.28Z"/><rect class="cls-8" x="358.83" y="385.18" width="17.03" height="9.47" rx="4.28" ry="4.28"/><path class="cls-8" d="M358.83,378.35h.34a6.21,6.21,0,0,1,6.21,6.21v5.35a0,0,0,0,1,0,0h-6.55a0,0,0,0,1,0,0V378.35A0,0,0,0,1,358.83,378.35Z"/><path class="cls-8" d="M355.11,382.9l3.72,1.23v-5.76H355.5c-.93,0-1.68,1-1.68,2.3h0A2.26,2.26,0,0,0,355.11,382.9Z"/><path class="cls-8" d="M371.21,401.53l-.18,0a.5.5,0,0,1-.29-.65l3-7.73a.5.5,0,1,1,.93.36l-3,7.73A.48.48,0,0,1,371.21,401.53Z"/><path class="cls-8" d="M360.15,401a.58.58,0,0,1-.19,0,.51.51,0,0,1-.28-.65l3-7.73a.5.5,0,1,1,.93.36l-3,7.73A.5.5,0,0,1,360.15,401Z"/><path class="cls-8" d="M364.07,398.52a4,4,0,0,1-2.65-.88c-1.94-1.58-1.78-4.73-1.77-4.86a.5.5,0,1,1,1,.06s-.13,2.77,1.42,4a4,4,0,0,0,3.69.4.51.51,0,0,1,.61.36.5.5,0,0,1-.36.61A7.26,7.26,0,0,1,364.07,398.52Z"/><path class="cls-8" d="M375.3,398.52a4,4,0,0,1-2.66-.88c-1.94-1.58-1.78-4.73-1.77-4.86a.5.5,0,1,1,1,.06s-.13,2.77,1.42,4a4,4,0,0,0,3.69.4.51.51,0,0,1,.61.36.5.5,0,0,1-.35.61A7.37,7.37,0,0,1,375.3,398.52Z"/><path class="cls-4" d="M360.34,380.39a.45.45,0,0,1-.2,0,.5.5,0,0,1-.25-.66c.81-1.75-.44-2.41-.49-2.44a.5.5,0,1,1,.45-.89,2.68,2.68,0,0,1,.95,3.74A.5.5,0,0,1,360.34,380.39Z"/><path class="cls-4" d="M375.08,387.5a.5.5,0,0,1-.49-.43.49.49,0,0,1,.43-.56,3.39,3.39,0,0,0,2.13-1.28,3.18,3.18,0,0,0,.16-2.7.5.5,0,1,1,1-.28,4.1,4.1,0,0,1-.29,3.53,4.34,4.34,0,0,1-2.83,1.72Z"/><path class="cls-5" d="M358.83,385.68a.5.5,0,0,1,0-1l6.5-.61c9.9-3.11,32.93-12.52,49.6-26.05a.49.49,0,0,1,.81.43c0,.32-.71,7.87,4.81,8.67a.5.5,0,0,1-.14,1c-5.06-.73-5.67-6.23-5.7-8.64C398,372.72,376,381.75,365.53,385l-.1,0-6.55.62Z"/><path class="cls-4" d="M196.2,300v79.74H150.75v-115H161A35.23,35.23,0,0,1,196.2,300Z"/><path class="cls-4" d="M196.2,253.39v79.74H150.75v-115H161A35.23,35.23,0,0,1,196.2,253.39Z"/><rect class="cls-8" x="159.33" y="298.54" width="28.29" height="4.13" transform="translate(474.09 127.13) rotate(90)"/><rect class="cls-4" y="218.16" width="160.79" height="45.45"/><rect class="cls-8" x="41.96" y="238.82" width="28.29" height="4.13"/><rect class="cls-8" x="118.59" y="238.82" width="28.29" height="4.13"/><g class="cls-10"><path class="cls-11" d="M127.23,413.46a45.88,45.88,0,1,1,45.88,45.88,45.88,45.88,0,0,1-45.88-45.88"/><path class="cls-12" d="M173.11,451.31A37.85,37.85,0,1,1,211,413.46a37.9,37.9,0,0,1-37.85,37.85m0-74.7A36.85,36.85,0,1,0,210,413.46a36.9,36.9,0,0,0-36.85-36.85"/></g></svg>