<svg id="Capa_1" data-name="Capa 1" xmlns="http://www.w3.org/2000/svg" viewBox="0 0 512.77 482.48"><defs><style>.cls-1{fill:#74a29a;}.cls-2{fill:#21375e;}.cls-3{fill:#f9f9f9;}.cls-4{fill:#3e63a6;}.cls-5{fill:#b7d4b2;}.cls-6{fill:#99c8b1;}.cls-7{fill:#89bb7e;}.cls-8{fill:#43a057;}.cls-9{fill:#fff;}.cls-10{fill:#e2e3e1;}</style></defs><title>Mesa de trabajo 9</title><path class="cls-1" d="M157.47,226.21v65.08a27.14,27.14,0,0,0,27.14,27.14h301a27.14,27.14,0,0,1,27.13,27.14V455.34a27.14,27.14,0,0,1-27.13,27.14H27.26A27.14,27.14,0,0,1,.12,455.34V226.21a27.14,27.14,0,0,1,27.14-27.13H130.33A27.14,27.14,0,0,1,157.47,226.21Z"/><circle class="cls-2" cx="183.64" cy="435.35" r="7.11"/><circle class="cls-2" cx="228.52" cy="435.35" r="7.11"/><path class="cls-3" d="M183.62,409.49v17.35H245V409.49c0-.17,0-.34,0-.49a14.16,14.16,0,0,0-14.13-13.66H197.76A14.13,14.13,0,0,0,183.64,409,3.85,3.85,0,0,0,183.62,409.49Z"/><path class="cls-4" d="M183.64,409H245a14.16,14.16,0,0,0-14.13-13.66H197.76A14.13,14.13,0,0,0,183.64,409Z"/><path class="cls-4" d="M174.69,423.08H260a6.13,6.13,0,0,1,6.13,6.13v0a6.13,6.13,0,0,1-6.13,6.13H162.42a0,0,0,0,1,0,0v0A12.27,12.27,0,0,1,174.69,423.08Z" transform="translate(428.58 858.43) rotate(180)"/><circle class="cls-5" cx="197.65" cy="429.21" r="6.04"/><path class="cls-2" d="M192.88,429.21a4.77,4.77,0,1,1,4.77,4.77A4.78,4.78,0,0,1,192.88,429.21Zm1,0a3.77,3.77,0,1,0,3.77-3.77A3.77,3.77,0,0,0,193.88,429.21Z"/><circle class="cls-5" cx="168.46" cy="429.21" r="6.04"/><path class="cls-2" d="M163.69,429.21a4.77,4.77,0,1,1,4.77,4.77A4.78,4.78,0,0,1,163.69,429.21Zm1,0a3.77,3.77,0,1,0,3.77-3.77A3.77,3.77,0,0,0,164.69,429.21Z"/><circle class="cls-2" cx="243.61" cy="435.35" r="7.11"/><circle class="cls-2" cx="210.8" cy="435.35" r="7.11"/><path class="cls-2" d="M204.77,423.58a.51.51,0,0,0,.5-.5V410.22c0-.15,0-.31,0-.44a13.59,13.59,0,0,1,13.63-13.21.5.5,0,0,0,.5-.5.5.5,0,0,0-.5-.5,14.58,14.58,0,0,0-14.63,14.14c0,.14,0,.32,0,.51v12.86A.5.5,0,0,0,204.77,423.58Z"/><rect class="cls-2" x="226.65" y="423.17" width="1" height="12.17"/><rect class="cls-6" x="32.95" y="349.94" width="116.8" height="92.13" transform="translate(182.71 792.02) rotate(-180)"/><polygon class="cls-2" points="23.18 367.24 159.53 367.24 147.45 330.43 32.95 330.43 23.18 367.24"/><rect class="cls-7" x="31.45" y="335.6" width="117.86" height="1"/><rect class="cls-7" x="30.09" y="340.69" width="120.89" height="1"/><rect class="cls-7" x="28.74" y="345.78" width="123.92" height="1"/><rect class="cls-7" x="27.39" y="350.88" width="126.94" height="1"/><rect class="cls-7" x="26.03" y="355.97" width="129.97" height="1"/><rect class="cls-7" x="24.68" y="361.07" width="132.99" height="1"/><polygon class="cls-6" points="91.36 367.71 106.47 367.71 98.91 354.62 91.36 341.54 83.8 354.62 76.24 367.71 91.36 367.71"/><path class="cls-2" d="M83.82,365.46A7.55,7.55,0,1,1,91.37,373,7.56,7.56,0,0,1,83.82,365.46Zm1,0a6.55,6.55,0,1,0,6.55-6.55A6.56,6.56,0,0,0,84.82,365.46Z"/><rect class="cls-8" x="83.55" y="412.79" width="15.64" height="29.28" transform="translate(182.73 854.87) rotate(-180)"/><polygon class="cls-2" points="80.91 442.08 81.91 442.08 81.91 411.12 100.82 411.12 100.82 442.08 101.82 442.08 101.82 410.12 80.91 410.12 80.91 442.08"/><rect class="cls-2" x="84.32" y="364.96" width="14.09" height="1"/><rect class="cls-2" x="90.87" y="358.41" width="1" height="14.09"/><path class="cls-2" d="M127.17,419.51v-.21c0-.13,0-.26,0-.4a8,8,0,0,1,16,0v17.44h-16Zm15,.5h-.07l0-.54a5.44,5.44,0,0,0,0-.57,7,7,0,0,0-14,0c0,.19,0,.38,0,.57l0,15.87h14Z"/><rect class="cls-2" x="127.67" y="418.4" width="15" height="1"/><rect class="cls-2" x="134.67" y="411.4" width="1" height="24.44"/><polygon class="cls-2" points="135.17 419.61 140.82 413.96 140.11 413.25 135.17 418.19 130.37 413.39 129.66 414.1 135.17 419.61"/><path class="cls-2" d="M105.22,419.51v-.21c0-.13,0-.26,0-.4a8,8,0,0,1,16,0,.41.41,0,0,1,0,.11v17.33h-16Zm15,.5h-.07l0-.54a5.44,5.44,0,0,0,0-.57,7,7,0,0,0-14,0c0,.19,0,.38,0,.57l0,15.87h14Z"/><rect class="cls-2" x="105.72" y="418.4" width="15" height="1"/><rect class="cls-2" x="112.72" y="411.4" width="1" height="24.44"/><polygon class="cls-2" points="113.22 419.61 118.87 413.96 118.16 413.25 113.22 418.19 108.41 413.39 107.71 414.1 113.22 419.61"/><path class="cls-2" d="M61.62,419.51v-.21c0-.13,0-.26,0-.4a8,8,0,1,1,16,0v17.44h-16Zm15,.5h-.06l0-.54c0-.19,0-.38,0-.57a7,7,0,1,0-14,0,5.43,5.43,0,0,0,0,.57l0,15.87h14Z"/><rect class="cls-2" x="62.12" y="418.4" width="15" height="1"/><rect class="cls-2" x="69.11" y="411.4" width="1" height="24.44"/><polygon class="cls-2" points="69.61 419.61 75.27 413.96 74.56 413.25 69.61 418.19 64.81 413.39 64.11 414.1 69.61 419.61"/><path class="cls-2" d="M39.66,419.51v-.21c0-.13,0-.26,0-.4a8,8,0,0,1,16,0v17.44h-16Zm15,.5h-.07l0-.54c0-.19,0-.38,0-.57a7,7,0,0,0-14,0,5.44,5.44,0,0,0,0,.57l0,15.87h14Z"/><rect class="cls-2" x="40.16" y="418.4" width="15" height="1"/><rect class="cls-2" x="47.16" y="411.4" width="1" height="24.44"/><polygon class="cls-2" points="47.66 419.61 53.31 413.96 52.61 413.25 47.66 418.19 42.86 413.39 42.15 414.1 47.66 419.61"/><path class="cls-2" d="M101.32,411.12a.49.49,0,0,0,.41-.21.49.49,0,0,0-.12-.69l-10-7.08a.51.51,0,0,0-.58,0l-10,7.08a.49.49,0,0,0-.12.69.5.5,0,0,0,.7.12l9.67-6.87L101,411A.52.52,0,0,0,101.32,411.12Z"/><path class="cls-2" d="M91.37,411.12a.5.5,0,0,0,.5-.5v-7.07a.5.5,0,0,0-.5-.5.5.5,0,0,0-.5.5v7.07A.5.5,0,0,0,91.37,411.12Z"/><path class="cls-2" d="M105.5,401.8l.88-.48a3.17,3.17,0,0,1-.21-.41l-.91.42Z"/><path class="cls-2" d="M142.89,401.8c.08-.15.16-.3.23-.45l-.9-.44-.21.41Z"/><path class="cls-2" d="M105.71,382.68a.48.48,0,0,0,.45-.28c.07-.14.14-.28.22-.42A20.15,20.15,0,0,1,142,382l.21.41a.49.49,0,0,0,.66.23.5.5,0,0,0,.24-.67c-.07-.15-.15-.3-.23-.45a21.15,21.15,0,0,0-37.39,0l-.24.45a.5.5,0,0,0,.24.67A.54.54,0,0,0,105.71,382.68Z"/><path class="cls-2" d="M124.19,382.68a.51.51,0,0,0,.36-.15l9-9a.5.5,0,1,0-.71-.71l-9,9a.5.5,0,0,0,.35.85Z"/><path class="cls-2" d="M124.19,382.68a.41.41,0,0,0,.19,0,.5.5,0,0,0,.31-.46V370.75a.5.5,0,0,0-.5-.5.5.5,0,0,0-.5.5V381l-8.18-8.18a.5.5,0,1,0-.71.71l9,9A.47.47,0,0,0,124.19,382.68Z"/><path class="cls-2" d="M40.16,382.68a.5.5,0,0,0,.45-.28c.07-.14.14-.28.22-.42a20.15,20.15,0,0,1,35.62,0c.07.13.15.27.21.41a.5.5,0,0,0,.67.23.51.51,0,0,0,.24-.67l-.24-.45a21.15,21.15,0,0,0-37.38,0c-.09.15-.16.3-.24.45a.5.5,0,0,0,.23.67A.59.59,0,0,0,40.16,382.68Z"/><path class="cls-2" d="M58.64,382.68a.49.49,0,0,0,.35-.15l9-9a.5.5,0,0,0,0-.71.5.5,0,0,0-.7,0l-9,9a.5.5,0,0,0,0,.7A.51.51,0,0,0,58.64,382.68Z"/><path class="cls-2" d="M58.64,382.68a.43.43,0,0,0,.19,0,.5.5,0,0,0,.31-.46V370.75a.5.5,0,0,0-1,0V381L50,372.79a.5.5,0,1,0-.71.71l9,9A.47.47,0,0,0,58.64,382.68Z"/><path class="cls-9" d="M134.69,401.35h7.76V382.24h-7.76s1.23,7.64,5.78,9.55A25.24,25.24,0,0,0,134.69,401.35Z"/><path class="cls-9" d="M113.72,401.35H106V382.24h7.75s-1.23,7.64-5.78,9.55A25.09,25.09,0,0,1,113.72,401.35Z"/><path class="cls-9" d="M69.12,401.35h7.76V382.24H69.12s1.23,7.64,5.78,9.55A25.24,25.24,0,0,0,69.12,401.35Z"/><path class="cls-9" d="M48.15,401.35H40.4V382.24h7.75s-1.23,7.64-5.77,9.55A25.14,25.14,0,0,1,48.15,401.35Z"/><path class="cls-2" d="M105.22,401.56V382.24a.5.5,0,0,1,.5-.5h36.95a.51.51,0,0,1,.5.5v19.32a.5.5,0,0,1-.5.5H105.72A.5.5,0,0,1,105.22,401.56Zm36.95-18.82H106.22v18.32h35.95Z"/><path class="cls-2" d="M105.71,392.3h37a.51.51,0,0,0,.5-.5.5.5,0,0,0-.5-.5h-37a.5.5,0,0,0-.5.5A.51.51,0,0,0,105.71,392.3Z"/><path class="cls-2" d="M40.16,392.3h37a.5.5,0,0,0,.5-.5.5.5,0,0,0-.5-.5H40.16a.5.5,0,0,0-.5.5A.5.5,0,0,0,40.16,392.3Z"/><path class="cls-2" d="M39.66,381.74h38v20.32H39.66Zm37,1H40.66v18.32h36Z"/><path class="cls-9" d="M91.71,431.09v-9.51a.5.5,0,0,1,.5-.5h4.58a.5.5,0,0,1,.5.5v9.51a.5.5,0,0,1-.5.5H92.21A.5.5,0,0,1,91.71,431.09Zm4.58-9H92.71v8.51h3.58Z"/><path class="cls-9" d="M85.45,431.09v-9.51a.5.5,0,0,1,.5-.5h4.57a.5.5,0,0,1,.5.5v9.51a.5.5,0,0,1-.5.5H86A.5.5,0,0,1,85.45,431.09Zm4.57-9H86.45v8.51H90Z"/><path class="cls-9" d="M91.71,442.08h1v-8.66h3.58v8.66h1v-9.16a.5.5,0,0,0-.5-.5H92.21a.5.5,0,0,0-.5.5Z"/><path class="cls-9" d="M85.45,442.08h1v-8.66H90v8.66h1v-9.16a.5.5,0,0,0-.5-.5H86a.5.5,0,0,0-.5.5Z"/><path class="cls-9" d="M85.45,419.63a5.92,5.92,0,0,1,11.84,0,.5.5,0,0,1-.5.5H86A.5.5,0,0,1,85.45,419.63Zm5.92-4.92a4.93,4.93,0,0,0-4.9,4.42h9.79A4.92,4.92,0,0,0,91.37,414.71Z"/><rect class="cls-7" x="14.6" y="15.1" width="116.8" height="267.34" transform="translate(146 297.54) rotate(-180)"/><path class="cls-3" d="M109.51,194.48h7V147.16H105.29a52.57,52.57,0,0,0,6.55,23.41A102.69,102.69,0,0,0,109.51,194.48Z"/><path class="cls-3" d="M99.42,194.48h-7V147.16h11.26a52.57,52.57,0,0,1-6.55,23.41A102.69,102.69,0,0,1,99.42,194.48Z"/><path class="cls-3" d="M48.6,77.28h7V30H44.38a52.64,52.64,0,0,0,6.54,23.41A103,103,0,0,0,48.6,77.28Z"/><path class="cls-3" d="M38.5,77.28h-7V30H42.72a52.57,52.57,0,0,1-6.55,23.41A102.69,102.69,0,0,1,38.5,77.28Z"/><polygon class="cls-2" points="73 0 146 0 131.4 15.61 73 15.61 14.6 15.61 0 0 73 0"/><rect class="cls-4" x="4.68" y="4.5" width="136.65" height="1"/><rect class="cls-4" x="10.07" y="10.04" width="125.86" height="1"/><path class="cls-2" d="M91.88,29.46h25.17V77.28H91.88Zm24.17,1H92.88V76.28h23.17Z"/><rect class="cls-2" x="92.38" y="32.61" width="24.17" height="1"/><rect class="cls-2" x="92.38" y="36.01" width="24.17" height="1"/><rect class="cls-2" x="92.38" y="39.42" width="24.17" height="1"/><rect class="cls-2" x="92.38" y="42.82" width="24.17" height="1"/><rect class="cls-2" x="92.38" y="46.23" width="24.17" height="1"/><rect class="cls-2" x="92.38" y="49.64" width="24.17" height="1"/><rect class="cls-2" x="92.38" y="53.04" width="24.17" height="1"/><rect class="cls-2" x="92.38" y="56.45" width="24.17" height="1"/><rect class="cls-2" x="92.38" y="59.85" width="24.17" height="1"/><path class="cls-2" d="M61.43,29.46H86.59V77.28H61.43Zm24.16,1H62.43V76.28H85.59Z"/><rect class="cls-2" x="61.93" y="32.61" width="24.17" height="1"/><rect class="cls-2" x="61.93" y="36.01" width="24.17" height="1"/><rect class="cls-2" x="61.93" y="39.42" width="24.17" height="1"/><rect class="cls-2" x="61.93" y="42.82" width="24.17" height="1"/><rect class="cls-2" x="61.93" y="46.23" width="24.17" height="1"/><rect class="cls-2" x="61.93" y="49.64" width="24.17" height="1"/><rect class="cls-2" x="61.93" y="53.04" width="24.17" height="1"/><rect class="cls-2" x="61.93" y="56.45" width="24.17" height="1"/><rect class="cls-2" x="61.93" y="59.85" width="24.17" height="1"/><path class="cls-2" d="M31,29.46H56.13V77.28H31Zm24.16,1H32V76.28H55.13Z"/><rect class="cls-2" x="31.47" y="53.04" width="24.17" height="1"/><path class="cls-2" d="M91.88,88.08h25.17V135.9H91.88Zm24.17,1H92.88V134.9h23.17Z"/><rect class="cls-2" x="92.38" y="91.23" width="24.17" height="1"/><rect class="cls-2" x="92.38" y="94.64" width="24.17" height="1"/><rect class="cls-2" x="92.38" y="98.04" width="24.17" height="1"/><rect class="cls-2" x="92.38" y="101.45" width="24.17" height="1"/><rect class="cls-2" x="92.38" y="111.67" width="24.17" height="1"/><path class="cls-2" d="M61.43,88.08H86.59V135.9H61.43Zm24.16,1H62.43V134.9H85.59Z"/><rect class="cls-2" x="61.93" y="91.23" width="24.17" height="1"/><rect class="cls-2" x="61.93" y="94.64" width="24.17" height="1"/><rect class="cls-2" x="61.93" y="98.04" width="24.17" height="1"/><rect class="cls-2" x="61.93" y="101.45" width="24.17" height="1"/><rect class="cls-2" x="61.93" y="104.86" width="24.17" height="1"/><rect class="cls-2" x="61.93" y="108.26" width="24.17" height="1"/><rect class="cls-2" x="61.93" y="111.67" width="24.17" height="1"/><rect class="cls-2" x="61.93" y="115.07" width="24.17" height="1"/><rect class="cls-2" x="61.93" y="118.48" width="24.17" height="1"/><path class="cls-2" d="M31,88.08H56.13V135.9H31Zm24.16,1H32V134.9H55.13Z"/><rect class="cls-2" x="31.47" y="91.23" width="24.17" height="1"/><rect class="cls-2" x="31.47" y="94.64" width="24.17" height="1"/><rect class="cls-2" x="31.47" y="98.04" width="24.17" height="1"/><rect class="cls-2" x="31.47" y="101.45" width="24.17" height="1"/><rect class="cls-2" x="31.47" y="104.86" width="24.17" height="1"/><rect class="cls-2" x="31.47" y="108.26" width="24.17" height="1"/><rect class="cls-2" x="31.47" y="111.67" width="24.17" height="1"/><rect class="cls-2" x="31.47" y="115.07" width="24.17" height="1"/><rect class="cls-2" x="31.47" y="118.48" width="24.17" height="1"/><rect class="cls-2" x="31.47" y="121.88" width="24.17" height="1"/><rect class="cls-2" x="31.47" y="125.29" width="24.17" height="1"/><rect class="cls-2" x="31.47" y="128.7" width="24.17" height="1"/><rect class="cls-2" x="31.47" y="132.1" width="24.17" height="1"/><path class="cls-2" d="M91.88,146.71h25.17v47.82H91.88Zm24.17,1H92.88v45.82h23.17Z"/><rect class="cls-2" x="92.38" y="170.29" width="24.17" height="1"/><path class="cls-2" d="M61.43,146.71H86.59v47.82H61.43Zm24.16,1H62.43v45.82H85.59Z"/><rect class="cls-2" x="61.93" y="170.29" width="24.17" height="1"/><path class="cls-2" d="M31,146.71H56.13v47.82H31Zm24.16,1H32v45.82H55.13Z"/><rect class="cls-2" x="31.47" y="149.86" width="24.17" height="1"/><rect class="cls-2" x="31.47" y="153.26" width="24.17" height="1"/><rect class="cls-2" x="31.47" y="156.67" width="24.17" height="1"/><rect class="cls-2" x="31.47" y="160.08" width="24.17" height="1"/><rect class="cls-2" x="31.47" y="163.48" width="24.17" height="1"/><rect class="cls-2" x="31.47" y="166.89" width="24.17" height="1"/><rect class="cls-2" x="31.47" y="170.29" width="24.17" height="1"/><rect class="cls-2" x="31.47" y="173.7" width="24.17" height="1"/><rect class="cls-2" x="31.47" y="177.1" width="24.17" height="1"/><rect class="cls-2" x="31.47" y="180.51" width="24.17" height="1"/><path class="cls-2" d="M91.88,205.33h25.17v47.82H91.88Zm24.17,1H92.88v45.82h23.17Z"/><rect class="cls-2" x="92.38" y="208.48" width="24.17" height="1"/><rect class="cls-2" x="92.38" y="211.89" width="24.17" height="1"/><rect class="cls-2" x="92.38" y="215.3" width="24.17" height="1"/><rect class="cls-2" x="92.38" y="218.7" width="24.17" height="1"/><rect class="cls-2" x="92.38" y="228.74" width="24.17" height="1"/><path class="cls-2" d="M61.43,205.33H86.59v47.82H61.43Zm24.16,1H62.43v45.82H85.59Z"/><rect class="cls-2" x="61.93" y="208.48" width="24.17" height="1"/><rect class="cls-2" x="61.93" y="211.89" width="24.17" height="1"/><rect class="cls-2" x="61.93" y="215.3" width="24.17" height="1"/><rect class="cls-2" x="61.93" y="218.7" width="24.17" height="1"/><rect class="cls-2" x="61.93" y="222.11" width="24.17" height="1"/><rect class="cls-2" x="61.93" y="225.51" width="24.17" height="1"/><rect class="cls-2" x="61.93" y="228.92" width="24.17" height="1"/><path class="cls-2" d="M31,205.33H56.13v47.82H31Zm24.16,1H32v45.82H55.13Z"/><rect class="cls-2" x="31.47" y="208.48" width="24.17" height="1"/><rect class="cls-2" x="31.47" y="211.89" width="24.17" height="1"/><rect class="cls-2" x="31.47" y="215.3" width="24.17" height="1"/><rect class="cls-2" x="31.47" y="218.7" width="24.17" height="1"/><rect class="cls-2" x="31.47" y="222.11" width="24.17" height="1"/><rect class="cls-2" x="31.47" y="225.51" width="24.17" height="1"/><rect class="cls-2" x="31.47" y="228.92" width="24.17" height="1"/><rect class="cls-2" x="27.97" y="74.5" width="92.09" height="2.78" transform="translate(148.02 151.78) rotate(-180)"/><rect class="cls-2" x="27.97" y="133.1" width="92.09" height="2.78" transform="translate(148.02 268.99) rotate(-180)"/><rect class="cls-2" x="27.97" y="191.74" width="92.09" height="2.78" transform="translate(148.02 386.27) rotate(-180)"/><rect class="cls-2" x="27.97" y="250.38" width="92.09" height="2.78" transform="translate(148.02 503.53) rotate(-180)"/><path class="cls-8" d="M25.46,427.85v.07c0,1.47.06,2.89.17,4.25,0,.5.09,1,.14,1.47l0,.23c.07.58.15,1.14.24,1.69,0,.26.08.51.13.76s.07.42.11.63c.17.9.38,1.74.6,2.52.06.22.13.43.19.64s.17.51.26.75.28.75.43,1.08l.29.62a8.3,8.3,0,0,0,.86,1.35,4.12,4.12,0,0,0,.28.31c.55,0,1.12,0,1.69,0s1.14,0,1.69,0c0,0,0,0,0-.05a7,7,0,0,0,1.09-1.62c.13-.25.26-.52.38-.81l.18-.45c.13-.32.25-.65.36-1s.25-.77.35-1.19c.19-.68.36-1.4.5-2.16,0-.2.08-.4.11-.61a5.4,5.4,0,0,0,.1-.58c.09-.48.16-1,.22-1.48,0-.2.05-.41.08-.62.07-.71.14-1.43.19-2.18.08-1.16.12-2.37.12-3.61v-.36a48.88,48.88,0,0,0-.71-8.15c-.93-5.21-2.69-8.72-4.71-8.72s-3.83,3.6-4.74,8.93A47.81,47.81,0,0,0,25.46,427.85Z"/><ellipse class="cls-8" cx="35.55" cy="428.9" rx="17.24" ry="5.42" transform="translate(-353.66 245.24) rotate(-60)"/><ellipse class="cls-8" cx="39.07" cy="432.14" rx="17.24" ry="5.42" transform="translate(-210.84 77.43) rotate(-30)"/><ellipse class="cls-8" cx="40.5" cy="436.71" rx="17.24" ry="5.42"/><ellipse class="cls-8" cx="22.02" cy="437.47" rx="17.24" ry="5.42"/><ellipse class="cls-8" cx="23.07" cy="432.8" rx="5.42" ry="17.24" transform="translate(-363.28 236.38) rotate(-60)"/><path class="cls-8" d="M32.76,444.22h0l-.13-.05a8.55,8.55,0,0,1-2-1.12c-.3-.22-.61-.46-.93-.73l-.59-.52-.5-.46c-.32-.32-.66-.66-1-1l-.76-.85c-.3-.35-.61-.71-.91-1.09s-.7-.87-1-1.34l-.53-.72-.63-.91c-.31-.45-.61-.91-.92-1.38-.4-.64-.8-1.3-1.19-2l0-.06a48.62,48.62,0,0,1-3.57-7.53c-1.87-5.07-2.13-9.08-.35-10.1s5,1.15,8.44,5.19a48.05,48.05,0,0,1,4.68,6.7l.19.32c.62,1.07,1.19,2.14,1.71,3.18.32.67.63,1.33.91,2s.51,1.2.73,1.78c0,.07,0,.14.08.2.15.39.28.77.41,1.14s.33,1,.46,1.47c.07.21.12.41.17.61.12.42.22.83.3,1.22.11.55.2,1.07.26,1.56,0,.31.06.61.07.89a7.41,7.41,0,0,1,0,1.35,5.4,5.4,0,0,1-.09.6,2.5,2.5,0,0,1-.89,1.54Z"/><path class="cls-8" d="M13.65,438.82c0,1.59,2.16,3,5.61,4a41.19,41.19,0,0,0,9.93,1.39c.55,0,1.12,0,1.69,0s1.14,0,1.69,0H33l1.91-.11h.23A32,32,0,0,0,45,442c2-.89,3.14-2,3.14-3.13,0-.9-.7-1.75-1.95-2.5a12.65,12.65,0,0,0-2-.95A27.83,27.83,0,0,0,38.78,434c-.89-.15-1.82-.27-2.79-.37l-1.63-.13-.71,0-.29,0c-.81,0-1.64-.05-2.48-.05s-1.92,0-2.84.07l-.68,0-.95.07-.64.06c-1,.1-2,.23-2.92.39a26.35,26.35,0,0,0-5.65,1.5,10.84,10.84,0,0,0-1.6.79C14.36,437.07,13.65,437.92,13.65,438.82Z"/><circle class="cls-8" cx="328.41" cy="267.1" r="22.85"/><circle class="cls-8" cx="328.41" cy="298.6" r="22.85"/><path class="cls-2" d="M328.41,373.56a.5.5,0,0,0,.5-.5V257.15a.5.5,0,0,0-.5-.5.51.51,0,0,0-.5.5V373.06A.5.5,0,0,0,328.41,373.56Z"/><path class="cls-2" d="M328.41,301.76a.48.48,0,0,0,.42-.23l14.22-21.69a.5.5,0,0,0-.15-.69.49.49,0,0,0-.69.14L328,301a.49.49,0,0,0,.14.69A.53.53,0,0,0,328.41,301.76Z"/><path class="cls-2" d="M328.41,276.62a.47.47,0,0,0,.37-.16.5.5,0,0,0,0-.71l-16-14.51a.5.5,0,0,0-.71,0,.49.49,0,0,0,0,.7l16,14.52A.5.5,0,0,0,328.41,276.62Z"/><path class="cls-8" d="M112.68,271.27c0-9.46,8.08-5.42,8.08-10.7,0-3.42,1.13-10.25,6.65-10.49v0h.52v0c5.52.24,6.65,7.07,6.65,10.49,0,5.28,8.08,1.24,8.08,10.7,0,5.7,6.64,0,6.64,10.38H106C106,271.27,112.68,277,112.68,271.27Z"/><path class="cls-10" d="M136.29,276.75a.5.5,0,0,0,.35-.15l2.07-2.07a.5.5,0,0,0,0-.71.5.5,0,0,0-.7,0l-2.08,2.08a.5.5,0,0,0,0,.7A.51.51,0,0,0,136.29,276.75Z"/><path class="cls-10" d="M138.36,276.75a.5.5,0,0,0,.35-.85l-2.07-2.08a.5.5,0,1,0-.71.71L138,276.6A.47.47,0,0,0,138.36,276.75Z"/><path class="cls-10" d="M127.67,263.67a.47.47,0,0,0,.35-.15l2.08-2.07a.5.5,0,0,0-.71-.71l-2.07,2.07a.5.5,0,0,0,0,.71A.47.47,0,0,0,127.67,263.67Z"/><path class="cls-10" d="M129.74,263.67a.51.51,0,0,0,.36-.15.51.51,0,0,0,0-.71L128,260.74a.5.5,0,0,0-.7,0,.5.5,0,0,0,0,.71l2.07,2.07A.49.49,0,0,0,129.74,263.67Z"/><path class="cls-10" d="M118.46,270.73a.52.52,0,0,0,.35-.14l2.07-2.08a.49.49,0,1,0-.7-.7l-2.08,2.07a.51.51,0,0,0,0,.71A.54.54,0,0,0,118.46,270.73Z"/><path class="cls-10" d="M120.53,270.73a.5.5,0,0,0,.35-.85l-2.07-2.07a.5.5,0,0,0-.71,0,.5.5,0,0,0,0,.7l2.08,2.08A.5.5,0,0,0,120.53,270.73Z"/><path class="cls-4" d="M220.94,328.62c0-9.46,8.08-5.42,8.08-10.7,0-3.42,1.13-10.25,6.65-10.49v0h.51v0c5.52.24,6.65,7.07,6.65,10.49,0,5.28,8.08,1.24,8.08,10.7,0,5.7,6.65,0,6.65,10.38H214.29C214.29,328.62,220.94,334.32,220.94,328.62Z"/><polygon class="cls-7" points="313.07 395.36 315.04 423.83 321.92 445.89 318.31 445.89 308.15 425.51 303.23 402.89 301.7 395.26 313.07 395.36"/><polygon class="cls-7" points="295.37 395.36 286.19 445.89 289.9 445.89 303.23 402.89 305.53 395.26 295.37 395.36"/><path class="cls-2" d="M291.52,384.58l3.85,10.78h17.7l2.65-11.22c.67-3.33-2.34-6.38-6.31-6.38H297.73C293.54,377.76,290.48,381.13,291.52,384.58Z"/><path class="cls-4" d="M297.66,371.06h1.85l.45,6.7h6.55l-1.29-7.7-.35-2.07h0a.66.66,0,0,0,0-.14,2.6,2.6,0,0,0-2.78-2.37,2.67,2.67,0,0,0-2.75,2,.64.64,0,0,0,0,.07Z"/><path class="cls-2" d="M321,394.12h0a3.59,3.59,0,0,1-4.48-1l-9.76-14.4h0c3.13-1.54,7.14-.63,9,2l6.49,9.57A2.57,2.57,0,0,1,321,394.12Z"/><path class="cls-2" d="M284.91,392.9a3.67,3.67,0,0,0,4.59-.54l3.14-3.53,6.74-7.61.72-2.74a7.52,7.52,0,0,0-2.77-.52,7.66,7.66,0,0,0-2.29.35,6.55,6.55,0,0,0-3,1.87L284.27,389A2.53,2.53,0,0,0,284.91,392.9Z"/><path class="cls-2" d="M321.88,390.25h0a3.64,3.64,0,0,0-4.57-.66l-11.45,8.53,2.29,2.51,12.94-6.49A2.54,2.54,0,0,0,321.88,390.25Z"/><path class="cls-4" d="M302,400.16,305.4,398a2.57,2.57,0,0,1,3.21.42,1.77,1.77,0,0,1-.5,2.73l-3.43,2.15a2.56,2.56,0,0,1-3.21-.42A1.77,1.77,0,0,1,302,400.16Z"/><rect class="cls-2" x="310.12" y="445.89" width="12.13" height="1.12" rx="0.56" ry="0.56" transform="translate(632.37 892.9) rotate(-180)"/><rect class="cls-2" x="277.99" y="445.89" width="12.13" height="1.12" rx="0.56" ry="0.56" transform="translate(568.11 892.9) rotate(-180)"/><path class="cls-7" d="M299.34,367.49c1.6,2.12,5.88,2.57,5.88,2.57l-.35-2.07h0a.66.66,0,0,0,0-.14,2.6,2.6,0,0,0-2.78-2.37A2.67,2.67,0,0,0,299.34,367.49Z"/><path class="cls-2" d="M289.46,389h0a2.54,2.54,0,0,1-.62,3.92L276,399l-2.11-2.77,11-8A3.66,3.66,0,0,1,289.46,389Z"/><path class="cls-4" d="M272.32,401.69l3.39-2a1.78,1.78,0,0,0,.49-2.74,2.58,2.58,0,0,0-3.18-.61l-3.39,2a1.77,1.77,0,0,0-.49,2.73A2.57,2.57,0,0,0,272.32,401.69Z"/><polygon class="cls-2" points="299.53 377.61 303.22 381.69 306.9 377.61 299.53 377.61"/></svg>