<svg id="Capa_1" data-name="Capa 1" xmlns="http://www.w3.org/2000/svg" viewBox="0 0 136.36 111.65"><defs><style>.cls-1{fill:#e2e3e1;}.cls-2{fill:#3e63a6;}.cls-3{fill:#21375e;}.cls-4{fill:#43a057;}.cls-5{fill:#fff;}</style></defs><title>Mesa de trabajo 7</title><rect class="cls-1" x="9.78" y="19.51" width="116.8" height="92.13"/><polygon class="cls-2" points="136.36 36.81 0 36.81 12.08 0 126.58 0 136.36 36.81"/><rect class="cls-3" x="10.22" y="5.17" width="117.86" height="1"/><rect class="cls-3" x="8.55" y="10.26" width="120.89" height="1"/><rect class="cls-3" x="6.88" y="15.35" width="123.92" height="1"/><rect class="cls-3" x="5.21" y="20.45" width="126.94" height="1"/><rect class="cls-3" x="3.53" y="25.54" width="129.97" height="1"/><rect class="cls-3" x="1.86" y="30.64" width="132.99" height="1"/><polygon class="cls-1" points="68.18 37.28 53.07 37.28 60.62 24.19 68.18 11.11 75.74 24.19 83.29 37.28 68.18 37.28"/><path class="cls-3" d="M68.17,42.57A7.55,7.55,0,1,1,75.71,35,7.55,7.55,0,0,1,68.17,42.57Zm0-14.09A6.55,6.55,0,1,0,74.71,35,6.56,6.56,0,0,0,68.17,28.48Z"/><rect class="cls-4" x="60.35" y="82.36" width="15.64" height="29.28"/><polygon class="cls-3" points="78.63 111.65 77.63 111.65 77.63 80.69 58.71 80.69 58.71 111.65 57.71 111.65 57.71 79.69 78.63 79.69 78.63 111.65"/><rect class="cls-3" x="61.12" y="34.53" width="14.09" height="1"/><rect class="cls-3" x="67.67" y="27.98" width="1" height="14.09"/><path class="cls-3" d="M32.36,105.91h-16V88.47a8,8,0,1,1,16,0c0,.14,0,.27,0,.4v17Zm-15-1h14l0-15.87c0-.19,0-.38,0-.57a7,7,0,1,0-14,0c0,.19,0,.38,0,.57l0,.54h-.06Z"/><rect class="cls-3" x="16.87" y="87.97" width="15" height="1"/><rect class="cls-3" x="23.86" y="80.97" width="1" height="24.44"/><polygon class="cls-3" points="24.36 89.18 18.71 83.53 19.42 82.82 24.36 87.77 29.17 82.97 29.87 83.67 24.36 89.18"/><path class="cls-3" d="M54.32,105.91h-16V88.47a8,8,0,0,1,16,0c0,.14,0,.27,0,.4v17Zm-15-1h14l0-15.87a5.44,5.44,0,0,0,0-.57,7,7,0,0,0-14,0c0,.19,0,.38,0,.57l0,.54h-.07Z"/><rect class="cls-3" x="38.82" y="87.97" width="15" height="1"/><rect class="cls-3" x="45.82" y="80.97" width="1" height="24.44"/><polygon class="cls-3" points="46.32 89.18 40.66 83.53 41.37 82.82 46.32 87.77 51.12 82.97 51.83 83.67 46.32 89.18"/><path class="cls-3" d="M97.92,105.91h-16V88.47a8,8,0,0,1,16,0c0,.14,0,.27,0,.4v17Zm-15-1h14l0-15.87a5.44,5.44,0,0,0,0-.57,7,7,0,0,0-14,0c0,.19,0,.38,0,.57l0,.54h-.07Z"/><rect class="cls-3" x="82.42" y="87.97" width="15" height="1"/><rect class="cls-3" x="89.42" y="80.97" width="1" height="24.44"/><polygon class="cls-3" points="89.92 89.18 84.27 83.53 84.97 82.82 89.92 87.77 94.72 82.97 95.43 83.67 89.92 89.18"/><path class="cls-3" d="M119.87,105.91h-16V88.47a8,8,0,0,1,16,0c0,.14,0,.27,0,.4v17Zm-15-1h14l0-15.87c0-.19,0-.38,0-.57a7,7,0,0,0-14,0,5.44,5.44,0,0,0,0,.57l0,.54h-.07Z"/><rect class="cls-3" x="104.37" y="87.97" width="15" height="1"/><rect class="cls-3" x="111.37" y="80.97" width="1" height="24.44"/><polygon class="cls-3" points="111.87 89.18 106.22 83.53 106.93 82.82 111.87 87.77 116.67 82.97 117.38 83.67 111.87 89.18"/><path class="cls-3" d="M78.13,80.7a.48.48,0,0,1-.29-.1l-9.67-6.86L58.5,80.6a.5.5,0,0,1-.7-.12.49.49,0,0,1,.12-.69l10-7.08a.51.51,0,0,1,.58,0l10,7.08a.5.5,0,0,1-.28.91Z"/><path class="cls-3" d="M68.17,80.7a.5.5,0,0,1-.5-.5V73.12a.5.5,0,0,1,.5-.5.51.51,0,0,1,.5.5V80.2A.51.51,0,0,1,68.17,80.7Z"/><path class="cls-3" d="M54,71.37l-.88-.48c.08-.13.15-.27.22-.41l.9.42A4.16,4.16,0,0,1,54,71.37Z"/><path class="cls-3" d="M16.65,71.37c-.08-.15-.16-.3-.23-.45l.9-.44c.06.14.14.28.21.42Z"/><path class="cls-3" d="M53.82,52.25a.48.48,0,0,1-.45-.28c-.07-.14-.14-.28-.22-.42a20.15,20.15,0,0,0-35.62,0,3.22,3.22,0,0,0-.21.41.5.5,0,0,1-.67.23.51.51,0,0,1-.24-.67c.07-.13.14-.25.2-.38A21.15,21.15,0,0,1,54,51.08a4.92,4.92,0,0,1,.24.45.51.51,0,0,1-.23.67A.44.44,0,0,1,53.82,52.25Z"/><path class="cls-3" d="M35.34,52.25A.5.5,0,0,1,35,52.1l-9-9a.5.5,0,0,1,0-.71.5.5,0,0,1,.7,0l9,9a.5.5,0,0,1,0,.7A.51.51,0,0,1,35.34,52.25Z"/><path class="cls-3" d="M35.34,52.25a.43.43,0,0,1-.19,0,.49.49,0,0,1-.31-.46V40.32a.5.5,0,1,1,1,0V50.54L44,42.36a.5.5,0,0,1,.71.71l-9,9A.47.47,0,0,1,35.34,52.25Z"/><path class="cls-3" d="M119.37,52.25a.5.5,0,0,1-.45-.28c-.06-.14-.14-.28-.21-.42a20.15,20.15,0,0,0-35.63,0l-.21.41a.5.5,0,1,1-.9-.44c.06-.13.13-.25.2-.38a21.15,21.15,0,0,1,37.42-.06c.08.15.16.3.23.45a.5.5,0,0,1-.23.67A.42.42,0,0,1,119.37,52.25Z"/><path class="cls-3" d="M100.9,52.25a.51.51,0,0,1-.36-.15l-9-9a.5.5,0,0,1,0-.71.51.51,0,0,1,.71,0l9,9a.5.5,0,0,1-.35.85Z"/><path class="cls-3" d="M100.89,52.25a.46.46,0,0,1-.19,0,.5.5,0,0,1-.31-.46V40.32a.51.51,0,0,1,.5-.5.5.5,0,0,1,.5.5V50.54l8.19-8.18a.5.5,0,0,1,.7,0,.5.5,0,0,1,0,.71l-9,9A.51.51,0,0,1,100.89,52.25Z"/><path class="cls-5" d="M24.84,70.92H17.09V51.81h7.75s-1.23,7.64-5.77,9.56A25.06,25.06,0,0,1,24.84,70.92Z"/><path class="cls-5" d="M45.81,70.92h7.76V51.81H45.81s1.23,7.64,5.78,9.56A25.17,25.17,0,0,0,45.81,70.92Z"/><path class="cls-5" d="M90.41,70.92H82.66V51.81h7.75s-1.23,7.64-5.78,9.56A25,25,0,0,1,90.41,70.92Z"/><path class="cls-5" d="M111.38,70.92h7.76V51.81h-7.76s1.23,7.64,5.78,9.56A25.17,25.17,0,0,0,111.38,70.92Z"/><path class="cls-3" d="M53.82,71.63H16.87a.5.5,0,0,1-.5-.5V51.81a.5.5,0,0,1,.5-.5h37a.51.51,0,0,1,.5.5V71.13A.5.5,0,0,1,53.82,71.63Zm-36.45-1h36V52.31H17.37Z"/><path class="cls-3" d="M53.82,61.87H16.87a.5.5,0,0,1-.5-.5.5.5,0,0,1,.5-.5h37a.5.5,0,0,1,.5.5A.5.5,0,0,1,53.82,61.87Z"/><path class="cls-3" d="M119.37,61.87H82.42a.5.5,0,0,1-.5-.5.5.5,0,0,1,.5-.5h37a.5.5,0,0,1,.5.5A.5.5,0,0,1,119.37,61.87Z"/><path class="cls-3" d="M119.87,71.63H81.92V51.31h38Zm-36.95-1h36V52.31H82.92Z"/><path class="cls-5" d="M67.32,101.16H62.75a.5.5,0,0,1-.5-.5V91.15a.5.5,0,0,1,.5-.5h4.57a.5.5,0,0,1,.5.5v9.51A.5.5,0,0,1,67.32,101.16Zm-4.07-1h3.57V91.65H63.25Z"/><path class="cls-5" d="M73.59,101.16H69a.5.5,0,0,1-.5-.5V91.15a.5.5,0,0,1,.5-.5h4.58a.5.5,0,0,1,.5.5v9.51A.5.5,0,0,1,73.59,101.16Zm-4.08-1h3.58V91.65H69.51Z"/><path class="cls-5" d="M67.82,111.65h-1V103H63.25v8.66h-1v-9.16a.5.5,0,0,1,.5-.5h4.57a.5.5,0,0,1,.5.5Z"/><path class="cls-5" d="M74.09,111.65h-1V103H69.51v8.66h-1v-9.16a.5.5,0,0,1,.5-.5h4.58a.5.5,0,0,1,.5.5Z"/><path class="cls-5" d="M73.59,89.7H62.75a.5.5,0,0,1-.5-.5,5.92,5.92,0,0,1,11.84,0A.5.5,0,0,1,73.59,89.7Zm-10.32-1h9.79a4.92,4.92,0,0,0-9.79,0Z"/></svg>