<svg id="Capa_1" data-name="Capa 1" xmlns="http://www.w3.org/2000/svg" viewBox="0 0 610.64 180.71"><defs><style>.cls-1{fill:#3e63a6;}.cls-2{fill:#21385e;}.cls-3{fill:#8abb7f;}.cls-4{fill:#faf9f9;}.cls-5{fill:#21375e;}.cls-6{fill:#f9f9f9;}.cls-7{fill:#b7d4b2;}.cls-8{fill:#43a057;}</style></defs><title>Mesa de trabajo 5_1</title><rect class="cls-1" x="139.28" y="40.93" width="334.35" height="139.77"/><rect class="cls-2" x="139.28" y="40.94" width="334.35" height="25.06"/><path class="cls-3" d="M259.32,40.93V66a39.16,39.16,0,0,0-61.54-1.55,39.15,39.15,0,0,0-58.5-2V40.93Z"/><path class="cls-3" d="M473.63,40.93V66a39.16,39.16,0,0,0-61.54-1.55,39.15,39.15,0,0,0-58.5-2V40.93Z"/><path class="cls-1" d="M353.59,23.93V180.71H259.32V23.93l19.1,0c5.25-10.88,14.67-18.46,28-18.46s23.21,7.72,28.48,18.61Z"/><path class="cls-1" d="M353.59,19.3v4.63l-18.65.17c-5.27-10.89-15.1-18.61-28.48-18.61s-22.79,7.58-28,18.46l-19.1,0V19.3h17a33.22,33.22,0,0,1,60.33,0Z"/><path class="cls-3" d="M353.59,23.93V180.71H259.32V23.93l19.1,0c5.25-10.88,14.67-18.46,28-18.46s23.21,7.72,28.48,18.61Z"/><path class="cls-1" d="M306.46,102.53a29.67,29.67,0,0,0-29.67,29.67v48.51h59.33V132.2a29.67,29.67,0,0,0-29.66-29.67"/><path class="cls-2" d="M306.46,55.71a14.78,14.78,0,1,1,14.77-14.78,14.8,14.8,0,0,1-14.77,14.78m0-28.55a13.78,13.78,0,1,0,13.77,13.77,13.79,13.79,0,0,0-13.77-13.77"/><rect class="cls-2" x="292.18" y="40.43" width="28.55" height="1"/><rect class="cls-2" x="305.96" y="26.66" width="1" height="28.55"/><rect class="cls-3" x="352.9" y="120.75" width="120.73" height="13.43"/><rect class="cls-3" x="139.28" y="120.75" width="120.04" height="13.43"/><rect class="cls-2" x="191.1" y="66" width="13.44" height="114.71"/><rect class="cls-2" x="404.97" y="66" width="13.44" height="114.71"/><path class="cls-2" d="M191.6,121.25H139.45V99.53H191.6Zm-51.15-1H190.6V100.53H140.45Z"/><rect class="cls-2" x="144.74" y="100.03" width="1" height="20.72"/><rect class="cls-2" x="149.81" y="100.03" width="1" height="20.72"/><rect class="cls-2" x="154.88" y="100.03" width="1" height="20.72"/><rect class="cls-2" x="159.95" y="100.03" width="1" height="20.72"/><rect class="cls-2" x="165.02" y="100.03" width="1" height="20.72"/><rect class="cls-2" x="170.1" y="100.03" width="1" height="20.72"/><rect class="cls-2" x="175.17" y="100.03" width="1" height="20.72"/><rect class="cls-2" x="180.24" y="100.03" width="1" height="20.72"/><rect class="cls-2" x="185.31" y="100.03" width="1" height="20.72"/><path class="cls-2" d="M258.79,121.25H204V99.53h54.75Zm-53.75-1h52.75V100.53H205Z"/><rect class="cls-2" x="209.59" y="100.03" width="1" height="20.72"/><rect class="cls-2" x="214.92" y="100.03" width="1" height="20.72"/><rect class="cls-2" x="220.25" y="100.03" width="1" height="20.72"/><rect class="cls-2" x="225.58" y="100.03" width="1" height="20.72"/><rect class="cls-2" x="230.91" y="100.03" width="1" height="20.72"/><rect class="cls-2" x="236.24" y="100.03" width="1" height="20.72"/><rect class="cls-2" x="241.57" y="100.03" width="1" height="20.72"/><rect class="cls-2" x="246.9" y="100.03" width="1" height="20.72"/><rect class="cls-2" x="252.23" y="100.03" width="1" height="20.72"/><path class="cls-2" d="M405.47,121.25H353.7V99.53h51.77Zm-50.77-1h49.77V100.53H354.7Z"/><rect class="cls-2" x="358.94" y="100.03" width="1" height="20.72"/><rect class="cls-2" x="363.98" y="100.03" width="1" height="20.72"/><rect class="cls-2" x="369.01" y="100.03" width="1" height="20.72"/><rect class="cls-2" x="374.05" y="100.03" width="1" height="20.72"/><rect class="cls-2" x="379.08" y="100.03" width="1" height="20.72"/><rect class="cls-2" x="384.12" y="100.03" width="1" height="20.72"/><rect class="cls-2" x="389.15" y="100.03" width="1" height="20.72"/><rect class="cls-2" x="394.19" y="100.03" width="1" height="20.72"/><rect class="cls-2" x="399.22" y="100.03" width="1" height="20.72"/><path class="cls-2" d="M473.38,121.25H417.91V99.53h55.47Zm-54.47-1h53.47V100.53H418.91Z"/><rect class="cls-2" x="423.54" y="100.03" width="1" height="20.72"/><rect class="cls-2" x="428.94" y="100.03" width="1" height="20.72"/><rect class="cls-2" x="434.34" y="100.03" width="1" height="20.72"/><rect class="cls-2" x="439.74" y="100.03" width="1" height="20.72"/><rect class="cls-2" x="445.14" y="100.03" width="1" height="20.72"/><rect class="cls-2" x="450.54" y="100.03" width="1" height="20.72"/><rect class="cls-2" x="455.95" y="100.03" width="1" height="20.72"/><rect class="cls-2" x="461.35" y="100.03" width="1" height="20.72"/><rect class="cls-2" x="466.75" y="100.03" width="1" height="20.72"/><path class="cls-4" d="M289,78.54H278.19V72.61H289Zm-9.76-1H288V73.61h-8.76Z"/><path class="cls-4" d="M284.45,83.35H273.69V77.41h10.76Zm-9.76-1h8.76V78.41h-8.76Z"/><path class="cls-4" d="M341.5,93.05H330.74V87.12H341.5Zm-9.76-1h8.76V88.12h-8.76Z"/><path class="cls-4" d="M331,93.05H320.23V87.12H331Zm-9.76-1H330V88.12h-8.76Z"/><path class="cls-4" d="M278.94,78.54H268.18V72.61h10.76Zm-9.76-1h8.76V73.61h-8.76Z"/><circle class="cls-5" cx="77.96" cy="173.99" r="6.72"/><circle class="cls-5" cx="35.56" cy="173.99" r="6.72"/><path class="cls-6" d="M78,149.56V166H20V149.56c0-.16,0-.32,0-.47a13.37,13.37,0,0,1,13.35-12.9H64.61A13.36,13.36,0,0,1,78,149.09C78,149.24,78,149.4,78,149.56Z"/><path class="cls-1" d="M78,149.09H20a13.37,13.37,0,0,1,13.35-12.9H64.61A13.36,13.36,0,0,1,78,149.09Z"/><path class="cls-1" d="M0,162.4H92.21a5.8,5.8,0,0,1,5.8,5.8v0a5.8,5.8,0,0,1-5.8,5.8H11.59A11.59,11.59,0,0,1,0,162.4v0a0,0,0,0,1,0,0Z"/><circle class="cls-7" cx="64.72" cy="168.19" r="5.71"/><path class="cls-5" d="M64.72,172.73a4.54,4.54,0,1,1,4.54-4.54A4.54,4.54,0,0,1,64.72,172.73Zm0-8.07a3.54,3.54,0,1,0,3.54,3.53A3.53,3.53,0,0,0,64.72,164.66Z"/><circle class="cls-7" cx="92.3" cy="168.19" r="5.71"/><path class="cls-5" d="M92.3,172.73a4.54,4.54,0,1,1,4.53-4.54A4.55,4.55,0,0,1,92.3,172.73Zm0-8.07a3.54,3.54,0,1,0,3.53,3.53A3.54,3.54,0,0,0,92.3,164.66Z"/><circle class="cls-5" cx="21.3" cy="173.99" r="6.72"/><circle class="cls-5" cx="52.3" cy="173.99" r="6.72"/><path class="cls-5" d="M58,162.9a.5.5,0,0,1-.5-.5V150.25c0-.15,0-.29,0-.42a12.81,12.81,0,0,0-12.85-12.44.5.5,0,0,1-.5-.5.5.5,0,0,1,.5-.5,13.78,13.78,0,0,1,13.84,13.38,3.47,3.47,0,0,1,0,.48V162.4A.51.51,0,0,1,58,162.9Z"/><rect class="cls-5" x="36.35" y="162.49" width="1" height="11.5"/><circle class="cls-8" cx="593.39" cy="120.92" r="17.25"/><path class="cls-5" d="M593.39,174.94a.5.5,0,0,1-.5-.5V115.9a.5.5,0,0,1,.5-.5.5.5,0,0,1,.5.5v58.54A.5.5,0,0,1,593.39,174.94Z"/><path class="cls-5" d="M593.39,138.68a.48.48,0,0,1-.42-.23l-7.18-11a.5.5,0,1,1,.83-.55l7.19,11a.51.51,0,0,1-.15.7A.53.53,0,0,1,593.39,138.68Z"/><path class="cls-5" d="M593.39,126a.47.47,0,0,1-.37-.16.5.5,0,0,1,0-.71l8.1-7.33a.51.51,0,0,1,.71,0,.49.49,0,0,1,0,.7l-8.1,7.33A.46.46,0,0,1,593.39,126Z"/><circle class="cls-8" cx="566.94" cy="74.25" r="22.85"/><circle class="cls-8" cx="566.94" cy="105.75" r="22.85"/><path class="cls-5" d="M566.94,180.71a.51.51,0,0,1-.5-.5V64.3a.51.51,0,0,1,.5-.5.5.5,0,0,1,.5.5V180.21A.5.5,0,0,1,566.94,180.71Z"/><path class="cls-5" d="M566.94,108.91a.48.48,0,0,1-.41-.23L552.31,87a.5.5,0,1,1,.84-.55l14.21,21.69a.51.51,0,0,1-.14.7A.57.57,0,0,1,566.94,108.91Z"/><path class="cls-5" d="M566.94,83.77a.5.5,0,0,1-.33-.87l16-14.51a.5.5,0,0,1,.71,0,.49.49,0,0,1,0,.7l-16,14.51A.5.5,0,0,1,566.94,83.77Z"/></svg>